<svg width="31" height="50" viewBox="0 0 31 50" fill="none" xmlns="http://www.w3.org/2000/svg">
<g clip-path="url(#clip0_6177_8566)">
<rect x="0.878149" y="7.29623" width="28.3272" height="39.5089" rx="1.4909" fill="white"/>
<rect x="0.878149" y="7.29623" width="28.3272" height="39.5089" rx="1.4909" stroke="#FF9FDF" stroke-width="1.4909"/>
<rect width="26.0908" height="40.9998" rx="2.23635" transform="matrix(0.983255 -0.182236 0 1 0.132698 6.55078)" fill="#FF9FDF"/>
</g>
<g clip-path="url(#clip1_6177_8566)">
<path d="M23.5223 30.9149C23.5223 30.9149 23.5112 30.8982 23.5056 30.8927C23.5056 30.8927 23.5056 30.8871 23.5001 30.8816C23.2279 29.6927 22.5279 29.2316 21.3612 29.4649L20.8001 29.576C15.8445 30.576 10.7223 31.6149 5.68897 32.6371C5.52786 32.6704 5.36674 32.7371 5.23341 32.8316C4.50008 33.3482 3.75564 33.8816 3.03897 34.3927C2.65009 34.6704 2.26119 34.9482 1.86674 35.226C1.75008 35.3093 1.55563 35.4482 1.55563 35.7149C1.55563 35.9816 1.75008 36.0427 1.86674 36.076C2.23341 36.1871 2.60008 36.3038 2.96675 36.4149C3.68342 36.6371 4.42231 36.8649 5.15564 37.0871C5.33897 37.1427 5.54453 37.1538 5.72786 37.1149C9.27231 36.4038 12.8612 35.6816 16.389 34.9649L19.6556 34.3038L21.3167 33.9704H21.3501C21.4334 33.9482 21.5168 33.9316 21.6001 33.9038C22.4723 33.6538 23.0723 33.0649 23.3834 32.1593C23.4279 32.0316 23.4556 31.9038 23.489 31.776C23.5001 31.7204 23.5168 31.6649 23.5279 31.6093C23.5279 31.5982 23.5279 31.5871 23.5279 31.5704V30.9649C23.5279 30.9649 23.5279 30.926 23.5167 30.9093L23.5223 30.9149ZM5.95564 34.3927V33.4316L19.8612 30.6204V31.5816L5.95564 34.3927ZM19.8612 32.4482V33.4149L5.95564 36.226V35.2593L19.8612 32.4482ZM22.7556 31.6371C22.6945 32.3093 22.2167 32.9038 21.6279 33.0593C21.3834 33.1204 21.1445 33.1649 20.889 33.2149C20.8112 33.2316 20.7279 33.2427 20.6501 33.2593V30.4371C20.7556 30.4204 20.8612 30.4038 20.9667 30.3816C21.2834 30.326 21.5834 30.2704 21.8723 30.276C22.4667 30.2816 22.8279 30.8427 22.7556 31.6427V31.6371ZM5.16674 33.8149V36.1593L2.83897 35.4593L5.16674 33.8149Z" fill="white"/>
<path d="M2.3446 32.0042L22.7168 27.8875C23.1946 27.7931 23.2946 27.6597 23.2946 27.1319V15.3042C23.2946 14.5931 23.2446 14.5431 22.5835 14.6764L21.2835 14.9375V14.8042C21.2835 14.6319 21.2835 14.4597 21.2835 14.2875C21.2835 13.8708 21.2835 13.4375 21.289 13.0097C21.2946 12.7153 21.1835 12.5597 20.9279 12.4931C19.4946 12.1153 18.0001 12.2597 16.3446 12.9264C15.2335 13.3764 14.0668 14.0319 12.6779 14.9875C12.5724 15.0597 12.4946 15.0764 12.389 15.0431C11.1613 14.6931 10.1279 14.5097 9.14459 14.4708C7.33904 14.3931 5.72237 14.8431 4.20015 15.8431C3.80571 16.1042 3.77792 16.1597 3.77792 16.6319V18.4764L2.33349 18.7708C1.87238 18.8653 1.76125 19.0097 1.76125 19.5097V31.5042C1.76125 31.9986 1.87794 32.1042 2.33349 32.0097L2.3446 32.0042ZM21.289 25.3319V15.7875L22.5335 15.5375V27.0653L13.939 28.8042C13.9724 28.7764 14.0057 28.7542 14.039 28.7264C14.3279 28.4986 14.6279 28.2597 14.9279 28.0542C16.7557 26.7875 18.689 26.0986 20.6724 26.0153C20.7335 26.0153 20.8002 26.0097 20.8724 25.9986C21.1224 25.9653 21.2779 25.7764 21.2946 25.4986C21.2946 25.4431 21.2946 25.3875 21.2946 25.3375L21.289 25.3319ZM20.5446 13.4097C20.5446 16.4597 20.5446 19.5597 20.5446 22.5597V25.0764C20.5446 25.0764 20.5446 25.1319 20.5446 25.1597C17.8113 25.4097 15.2501 26.5986 12.9279 28.6931V26.5653C12.9279 23.0764 12.9279 19.4653 12.9279 15.9208C12.9279 15.7653 12.9557 15.7097 13.0835 15.6264C14.1613 14.9042 15.339 14.1708 16.6057 13.6819C17.0835 13.4986 17.5446 13.3597 17.9946 13.2653C18.8557 13.0931 19.6724 13.0931 20.4501 13.2653C20.5446 13.2875 20.5557 13.3042 20.5557 13.4097H20.5446ZM9.21126 28.7931C9.88348 28.9042 10.5335 29.0986 11.139 29.3653L2.54459 31.1042V19.5764L3.78348 19.3264V21.8486C3.78348 24.1931 3.78348 26.5319 3.78348 28.8764C3.78348 29.1042 3.80571 29.2597 3.90571 29.3375C4.00571 29.4153 4.15571 29.3819 4.35571 29.3097C5.99459 28.7097 7.62793 28.5375 9.20571 28.7931H9.21126ZM12.1668 16.3653C12.1668 16.4431 12.1557 16.5208 12.1557 16.5986C12.1557 19.9375 12.1557 23.2708 12.1557 26.6097V28.8375C10.0779 27.8708 8.00015 27.6042 5.85015 28.0431C5.41682 28.1319 4.98348 28.2486 4.54459 28.3875V16.5264C5.37793 15.9764 6.28349 15.6097 7.2446 15.4375C8.86127 15.1431 10.3279 15.4208 11.5446 15.7264C11.6113 15.7431 11.6779 15.7542 11.7446 15.7653C11.9001 15.7931 12.0668 15.8153 12.1279 15.9042C12.189 15.9931 12.1779 16.1819 12.1668 16.3653Z" fill="white"/>
<path d="M14.239 18.0708C14.0446 18.293 14.0113 18.5208 14.1501 18.7041C14.2057 18.7819 14.2779 18.8208 14.3501 18.8208C14.3668 18.8208 14.3779 18.8208 14.3946 18.8208C14.4946 18.7985 14.589 18.7152 14.6724 18.6319C15.7835 17.5152 17.0446 16.8152 18.4112 16.5485L18.5779 16.5152C18.7001 16.493 18.8224 16.4652 18.9446 16.443C19.3224 16.3597 19.3835 16.0819 19.3835 15.9263C19.3835 15.793 19.3446 15.6985 19.2779 15.6374C19.2002 15.5708 19.089 15.5597 18.939 15.5985C18.7835 15.6374 18.6335 15.6763 18.4779 15.7152C17.9779 15.843 17.4668 15.9763 16.9613 16.1485C15.9613 16.493 15.0446 17.143 14.239 18.0708Z" fill="white"/>
<path d="M18.9723 22.1266C18.7389 22.171 18.5056 22.221 18.3112 22.271C17.3167 22.5043 16.5667 22.7877 15.8778 23.2043C15.2889 23.5599 14.7445 24.0321 14.2167 24.6377C14.0389 24.8432 14.0112 25.071 14.1501 25.2543C14.2056 25.3321 14.2778 25.371 14.3556 25.3655C14.3723 25.3655 14.3834 25.3655 14.3945 25.3655C14.4945 25.3432 14.5834 25.2655 14.6501 25.1988C15.7501 24.0877 16.9945 23.3821 18.3501 23.1099H18.3834C18.4445 23.0932 18.5001 23.0821 18.5556 23.0655C18.6889 23.0377 18.8223 23.0154 18.9556 22.9821C19.2167 22.9266 19.3723 22.7432 19.3778 22.4821C19.3778 22.3543 19.3501 22.2599 19.2834 22.1988C19.2112 22.1321 19.1056 22.1099 18.9667 22.1377L18.9723 22.1266Z" fill="white"/>
<path d="M14.389 22.0816C14.5001 22.0594 14.6057 21.9594 14.6723 21.8871C15.7668 20.7871 17.0057 20.0927 18.3557 19.8205H18.3779C18.439 19.8038 18.5001 19.7927 18.5557 19.7816C18.6945 19.7538 18.8334 19.726 18.9723 19.6982C19.1112 19.6649 19.2168 19.6038 19.289 19.5038C19.3557 19.4149 19.3834 19.3038 19.3834 19.176C19.3723 18.9149 19.2279 18.7982 18.9834 18.8482C18.1945 19.0094 17.3445 19.2094 16.489 19.6038C15.6612 19.9871 14.9057 20.5705 14.239 21.3427C14.0501 21.5649 14.0168 21.8149 14.1612 21.9816C14.239 22.076 14.3223 22.0927 14.4001 22.0816H14.389Z" fill="white"/>
<path d="M10.9723 18.9101C10.9334 18.849 10.889 18.7823 10.8279 18.749C10.7112 18.6879 10.5945 18.6268 10.4834 18.5601C10.1667 18.3823 9.84452 18.2046 9.49452 18.0934C8.40564 17.749 7.24453 17.949 6.0612 18.1934C5.84453 18.2379 5.70564 18.4212 5.70009 18.6712C5.69453 18.9212 5.82786 19.0601 6.05563 19.0379C6.11675 19.0323 6.18342 19.0157 6.23898 19.0046H6.26119C7.87785 18.6046 9.25009 18.7657 10.4556 19.5046C10.5168 19.5434 10.6056 19.5546 10.689 19.5379C10.7334 19.5268 10.7779 19.5101 10.8167 19.4823C10.8945 19.4212 10.939 19.3268 10.9834 19.2379C11.0001 19.2046 11.0167 19.1712 11.0334 19.1379C11.0612 19.0879 11.0612 19.0323 11.0334 18.9934C11.0167 18.9712 10.9945 18.9434 10.9779 18.9157L10.9723 18.9101Z" fill="white"/>
<path d="M10.839 25.2988C10.7779 25.2599 10.7167 25.2266 10.6501 25.1877C10.3723 25.021 10.0834 24.8488 9.77229 24.721C8.77229 24.3266 7.65007 24.4432 6.59451 24.6266C6.55007 24.6321 6.50562 24.6432 6.45562 24.6543C6.32785 24.6766 6.18896 24.7043 6.04452 24.7377C5.83896 24.7877 5.71119 24.9654 5.70008 25.1988C5.68897 25.4488 5.81119 25.5877 6.02785 25.571C6.10007 25.5654 6.16674 25.5488 6.2334 25.5321C6.25563 25.5321 6.27784 25.521 6.29451 25.5154C7.12784 25.3377 8.21674 25.1766 9.2223 25.5043C9.58341 25.621 9.9334 25.7932 10.2723 25.9599C10.339 25.9932 10.4056 26.0266 10.4723 26.0543C10.5501 26.0932 10.6223 26.1043 10.689 26.0932C10.7778 26.0766 10.8612 26.0099 10.9278 25.8988C11.0001 25.7877 11.0278 25.671 11.0167 25.5599C11.0001 25.4432 10.939 25.3488 10.839 25.2877V25.2988Z" fill="white"/>
<path d="M6.0556 22.3043C6.20005 22.2821 6.35005 22.2488 6.48894 22.221C6.55005 22.2099 6.61117 22.1932 6.67228 22.1821C6.70006 22.1765 6.72782 22.1599 6.74449 22.1377C6.87782 22.1321 7.00561 22.121 7.13894 22.1154C7.48339 22.0932 7.83895 22.071 8.18339 22.0765C8.91672 22.0877 9.63893 22.3154 10.4445 22.7821C10.5278 22.8321 10.6112 22.8488 10.6834 22.8321C10.7056 22.8321 10.7278 22.821 10.7501 22.8099C10.8112 22.7821 10.8945 22.7154 10.9556 22.571C11.0556 22.3265 11.0056 22.121 10.8223 22.0265C10.7001 21.9654 10.5723 21.8932 10.45 21.8265C10.1389 21.6543 9.81672 21.4765 9.46672 21.3654C8.40561 21.0265 7.24449 21.221 6.0556 21.4654C5.83894 21.5099 5.70005 21.6932 5.68893 21.9377C5.68893 22.0599 5.71115 22.1599 5.77226 22.2265C5.81671 22.2765 5.90005 22.3265 6.0445 22.3043H6.0556Z" fill="white"/>
</g>
<defs>
<clipPath id="clip0_6177_8566">
<rect width="29.8181" height="46.5907" fill="white" transform="translate(0.132698 1.70508)"/>
</clipPath>
<clipPath id="clip1_6177_8566">
<rect width="25" height="25" fill="white" transform="translate(0.041748 12.2129)"/>
</clipPath>
</defs>
</svg>
