<svg width="31" height="50" viewBox="0 0 31 50" fill="none" xmlns="http://www.w3.org/2000/svg">
<g clip-path="url(#clip0_6177_9255)">
<rect x="0.878142" y="7.29623" width="28.3272" height="39.5089" rx="1.4909" fill="white"/>
<rect x="0.878142" y="7.29623" width="28.3272" height="39.5089" rx="1.4909" stroke="#3277FF" stroke-width="1.4909"/>
<rect width="26.0908" height="40.9998" rx="2.23635" transform="matrix(0.983255 -0.182236 0 1 0.13269 6.55078)" fill="#3277FF"/>
</g>
<path fill-rule="evenodd" clip-rule="evenodd" d="M5.93896 15.6524C5.93896 15.6524 5.93896 15.6636 5.93896 15.6691V24.7469L6.66118 24.6024C7.10006 24.5136 7.45005 24.8247 7.45005 25.308V34.2802C7.45005 34.508 7.27784 34.7302 7.07228 34.7747C6.86673 34.8191 6.69451 34.6636 6.69451 34.4358V25.4636C6.69451 25.4636 6.69451 25.4524 6.69451 25.4469C6.69451 25.4469 6.69451 25.4469 6.69451 25.4413C6.69451 25.4413 6.6945 25.4413 6.68895 25.4413C6.68895 25.4413 6.68341 25.4413 6.6723 25.4413L3.03894 26.1747C3.03894 26.1747 3.02785 26.1747 3.02229 26.1802C3.02229 26.1802 3.02229 26.1802 3.01673 26.1858C3.01673 26.1858 3.01673 26.1858 3.01673 26.1969C3.01673 26.1969 3.01673 26.208 3.01673 26.2136V35.1858C3.01673 35.4136 2.84451 35.6358 2.63896 35.6802C2.4334 35.7247 2.26118 35.5691 2.26118 35.3413V26.3691C2.26118 25.8858 2.61118 25.4302 3.05006 25.3413L5.20006 24.908V15.8247C5.20006 15.3413 5.55005 14.8858 5.98894 14.7969L11.1501 13.7524C11.589 13.6636 11.939 13.9747 11.939 14.458V23.7469L13.3445 23.4636L14.3779 18.2802C14.3779 18.2802 14.3779 18.2747 14.3779 18.2691C14.4667 17.8636 14.7723 17.5247 15.1501 17.4469L17.0112 17.0691C17.4501 16.9802 17.8001 17.2913 17.8001 17.7747V18.058C17.8001 18.058 17.8001 18.0691 17.8001 18.0747C17.8001 18.0747 17.8001 18.0747 17.8001 18.0802C17.8001 18.0802 17.8001 18.0802 17.8056 18.0802C17.8056 18.0802 17.8112 18.0802 17.8223 18.0802L22.0334 17.2302C22.4723 17.1413 22.8223 17.4524 22.8223 17.9358V31.1413C22.8223 31.3691 22.6501 31.5913 22.4445 31.6358C22.239 31.6802 22.0667 31.5247 22.0667 31.2969V18.0969C22.0667 18.0969 22.0667 18.0858 22.0667 18.0802C22.0667 18.0802 22.0667 18.0802 22.0667 18.0747C22.0667 18.0747 22.0667 18.0747 22.0612 18.0747C22.0612 18.0747 22.0556 18.0747 22.0445 18.0747L17.8334 18.9247C17.3945 19.0136 17.0445 18.7024 17.0445 18.2191V17.9358C17.0445 17.9358 17.0445 17.9247 17.0445 17.9191C17.0445 17.9191 17.0445 17.9191 17.0445 17.9136C17.0445 17.9136 17.0445 17.9136 17.0389 17.9136C17.0389 17.9136 17.0334 17.9136 17.0223 17.9136L15.1612 18.2913C15.1612 18.2913 15.1445 18.2913 15.1445 18.2969C15.1445 18.2969 15.1445 18.2969 15.139 18.2969C15.139 18.2969 15.1278 18.308 15.1223 18.3302L14.1278 23.3136L19.139 22.3024C19.5779 22.2136 19.9278 22.5247 19.9278 23.008V31.7691C19.9278 31.9969 19.7556 32.2191 19.5501 32.2636C19.3445 32.308 19.1723 32.1524 19.1723 31.9247V23.1636C19.1723 23.1636 19.1723 23.1524 19.1723 23.1469C19.1723 23.1469 19.1723 23.1469 19.1723 23.1413C19.1723 23.1413 19.1667 23.1413 19.1556 23.1413L9.81117 25.0302C9.81117 25.0302 9.80007 25.0302 9.79452 25.0358C9.79452 25.0358 9.79451 25.0358 9.78896 25.0413C9.78896 25.0413 9.78896 25.0413 9.78896 25.0524C9.78896 25.0524 9.78896 25.0636 9.78896 25.0691V33.8302C9.78896 34.058 9.61674 34.2802 9.41118 34.3247C9.20563 34.3691 9.03341 34.2136 9.03341 33.9858V25.2247C9.03341 24.7413 9.3834 24.2858 9.82229 24.1969L11.2112 23.9136V14.6136C11.2112 14.6136 11.2112 14.6024 11.2112 14.5969C11.2112 14.5969 11.2112 14.5969 11.2112 14.5913C11.2112 14.5913 11.2112 14.5913 11.2056 14.5913C11.2056 14.5913 11.2001 14.5913 11.189 14.5913L6.02783 15.6358C6.02783 15.6358 6.01674 15.6358 6.01118 15.6413C6.01118 15.6413 6.01118 15.6413 6.00562 15.6469C6.00562 15.6469 6.00562 15.6469 6.00562 15.658L5.93896 15.6524ZM11.2334 28.058L12.5278 27.7969C12.5945 27.7858 12.5945 27.7136 12.5945 27.7136V26.2802C12.5945 26.2413 12.5278 26.2247 12.5278 26.2247L11.2334 26.4858C11.2001 26.4913 11.1667 26.5691 11.1667 26.5691V28.0024C11.1667 28.0413 11.2334 28.058 11.2334 28.058ZM14.9501 27.308L13.6556 27.5691C13.6556 27.5691 13.589 27.5524 13.589 27.5136V26.0802C13.589 26.0802 13.6167 26.0024 13.6556 25.9969L14.9501 25.7358C14.9501 25.7358 15.0167 25.7524 15.0167 25.7913V27.2247C15.0167 27.2247 15.0167 27.2969 14.9501 27.308ZM16.0667 27.0802L17.3612 26.8191C17.4278 26.808 17.4278 26.7358 17.4278 26.7358V25.3024C17.4278 25.2636 17.3612 25.2469 17.3612 25.2469L16.0667 25.508C16.0334 25.5136 16.0001 25.5913 16.0001 25.5913V27.0247C16.0001 27.0636 16.0667 27.0802 16.0667 27.0802ZM12.5278 30.5636L11.2334 30.8247C11.2334 30.8247 11.1667 30.808 11.1667 30.7691V29.3358C11.1667 29.3358 11.1945 29.258 11.2334 29.2524L12.5278 28.9913C12.5278 28.9913 12.5945 29.008 12.5945 29.0469V30.4802C12.5945 30.4802 12.5945 30.5524 12.5278 30.5636ZM13.6556 30.3358L14.9501 30.0747C15.0167 30.0636 15.0167 29.9913 15.0167 29.9913V28.558C15.0167 28.5191 14.9501 28.5024 14.9501 28.5024L13.6556 28.7636C13.6223 28.7691 13.589 28.8469 13.589 28.8469V30.2802C13.589 30.3191 13.6556 30.3358 13.6556 30.3358ZM17.3667 29.5858L16.0723 29.8469C16.0723 29.8469 16.0056 29.8302 16.0056 29.7913V28.358C16.0056 28.358 16.0334 28.2802 16.0723 28.2747L17.3667 28.0136C17.3667 28.0136 17.4334 28.0302 17.4334 28.0691V29.5024C17.4334 29.5024 17.4334 29.5747 17.3667 29.5858ZM11.2334 33.5969L12.5278 33.3358C12.5945 33.3247 12.5945 33.2524 12.5945 33.2524V31.8191C12.5945 31.7802 12.5278 31.7636 12.5278 31.7636L11.2334 32.0247C11.2001 32.0302 11.1667 32.108 11.1667 32.108V33.5413C11.1667 33.5802 11.2334 33.5969 11.2334 33.5969ZM5.41118 34.7691L4.11672 35.0302C4.11672 35.0302 4.05006 35.0136 4.05006 34.9747V33.5413C4.05006 33.5413 4.07783 33.4636 4.11672 33.458L5.41118 33.1969C5.41118 33.1969 5.47784 33.2136 5.47784 33.2524V34.6858C5.47784 34.6858 5.47784 34.758 5.41118 34.7691ZM4.11672 32.2636L5.41118 32.0024C5.47784 31.9913 5.47784 31.9191 5.47784 31.9191V30.4858C5.47784 30.4469 5.41118 30.4302 5.41118 30.4302L4.11672 30.6913C4.08339 30.6969 4.05006 30.7747 4.05006 30.7747V32.208C4.05006 32.2469 4.11672 32.2636 4.11672 32.2636ZM5.41118 29.2358L4.11672 29.4969C4.11672 29.4969 4.05006 29.4802 4.05006 29.4413V28.008C4.05006 28.008 4.07783 27.9302 4.11672 27.9247L5.41118 27.6636C5.41118 27.6636 5.47784 27.6802 5.47784 27.7191V29.1524C5.47784 29.1524 5.47784 29.2247 5.41118 29.2358ZM7.8223 24.6636L9.12784 24.4024C9.16118 24.3969 9.19451 24.3191 9.19451 24.3191V22.8858C9.19451 22.8469 9.12784 22.8302 9.12784 22.8302L7.8223 23.0913C7.78897 23.0969 7.75564 23.1747 7.75564 23.1747V24.608C7.75564 24.6469 7.8223 24.6636 7.8223 24.6636ZM9.12784 21.2802L7.8223 21.5413C7.8223 21.5413 7.75564 21.5247 7.75564 21.4858V20.0524C7.75564 20.0524 7.78341 19.9747 7.8223 19.9691L9.12784 19.708C9.12784 19.708 9.19451 19.7247 9.19451 19.7636V21.1969C9.19451 21.1969 9.16673 21.2747 9.12784 21.2802ZM7.8223 18.3969L9.12784 18.1358C9.16118 18.1302 9.19451 18.0524 9.19451 18.0524V16.6191C9.19451 16.5802 9.12784 16.5636 9.12784 16.5636L7.8223 16.8247C7.78897 16.8302 7.75564 16.908 7.75564 16.908V18.3413C7.75564 18.3802 7.8223 18.3969 7.8223 18.3969ZM14.9501 32.8413L13.6556 33.1024C13.6556 33.1024 13.589 33.0858 13.589 33.0469V31.6136C13.589 31.6136 13.6167 31.5358 13.6556 31.5302L14.9501 31.2691C14.9501 31.2691 15.0167 31.2858 15.0167 31.3247V32.758C15.0167 32.758 15.0167 32.8302 14.9501 32.8413ZM16.0667 32.6191L17.3612 32.358C17.4278 32.3469 17.4278 32.2747 17.4278 32.2747V30.8413C17.4278 30.8024 17.3612 30.7858 17.3612 30.7858L16.0667 31.0469C16.0334 31.0524 16.0001 31.1302 16.0001 31.1302V32.5636C16.0001 32.6024 16.0667 32.6191 16.0667 32.6191Z" fill="white"/>
<defs>
<clipPath id="clip0_6177_9255">
<rect width="29.8181" height="46.5907" fill="white" transform="translate(0.13269 1.70508)"/>
</clipPath>
</defs>
</svg>
