<svg width="31" height="51" viewBox="0 0 31 51" fill="none" xmlns="http://www.w3.org/2000/svg">
<rect x="0.132751" y="4.71387" width="29.8181" height="40.9998" rx="2.23635" fill="#FFB800"/>
<path d="M16.8366 14.15C16.5764 14.1177 16.3109 14.1016 16.0415 14.1016C15.7365 14.1016 15.4369 14.1222 15.1438 14.1636C15.1425 14.1636 15.1418 14.1636 15.1412 14.1636C14.2816 14.2819 13.4766 14.5696 12.7636 14.9911C12.7485 14.9995 12.7333 15.0085 12.7189 15.0169C12.4593 15.1727 12.2122 15.346 11.9796 15.536C11.9487 15.5606 11.9178 15.5865 11.8882 15.6117C11.8587 15.6356 11.8298 15.6615 11.8015 15.686C11.3658 16.0661 10.984 16.5038 10.6686 16.9873C10.3249 17.5116 10.0594 18.0902 9.88654 18.7056C9.82937 18.9073 9.78271 19.1135 9.74723 19.3223C9.68677 19.6675 9.65588 20.0218 9.65588 20.3838C9.65588 20.8719 9.7124 21.347 9.81952 21.8027C9.83989 21.8913 9.86289 21.9779 9.8872 22.0652C9.90495 22.1279 9.924 22.1906 9.94306 22.2527C10.2697 23.2857 10.8598 24.2043 11.6365 24.9322C11.6464 24.9419 11.6569 24.9516 11.6674 24.9613C11.9678 25.2399 12.295 25.4895 12.6466 25.7047C12.6768 25.7241 12.7064 25.7416 12.7366 25.7597C12.7669 25.7791 12.7971 25.7965 12.8273 25.814C12.8451 25.8237 12.8621 25.834 12.8799 25.8437C13.8098 26.3661 14.8855 26.6654 16.0329 26.6673H16.0618C16.1059 26.6673 16.1499 26.6673 16.1939 26.6654C16.2084 26.6654 16.2235 26.6654 16.2379 26.6641C16.2826 26.6628 16.3273 26.6615 16.3714 26.6589C17.0771 26.6233 17.7534 26.476 18.3803 26.2329C18.7687 26.0829 19.1386 25.8967 19.4856 25.6763C19.5316 25.6478 19.577 25.6181 19.6223 25.5877C19.6703 25.5561 19.7176 25.5237 19.7649 25.4901C19.7951 25.4694 19.8247 25.4474 19.8549 25.4261C19.8622 25.4209 19.8687 25.4164 19.8753 25.4106C19.9128 25.3834 19.9502 25.355 19.9864 25.3266C20.012 25.3072 20.037 25.2871 20.0619 25.2677C20.1861 25.1688 20.3064 25.0647 20.4227 24.9574C20.4694 24.9141 20.5154 24.8702 20.5601 24.8262C20.6606 24.7273 20.7585 24.6245 20.8518 24.5191C20.8532 24.5191 20.8531 24.5178 20.8538 24.5172C20.8768 24.4913 20.9005 24.4642 20.9228 24.4377C20.9268 24.4338 20.93 24.4306 20.932 24.4267C20.9557 24.3995 20.9793 24.3718 21.0017 24.344C21.003 24.344 21.0036 24.3427 21.0036 24.342C21.0247 24.3162 21.045 24.2909 21.0654 24.2644C21.0858 24.2386 21.1062 24.2127 21.1265 24.1862C21.1462 24.161 21.1646 24.1358 21.1837 24.1112C21.2034 24.086 21.2212 24.0608 21.2402 24.0349C21.2442 24.0298 21.2474 24.0253 21.2507 24.0201C21.994 22.9942 22.4316 21.7381 22.4316 20.3825C22.4316 17.1767 19.9916 14.5321 16.8386 14.1468L16.8366 14.15ZM16.0079 25.5923C13.0192 25.5283 10.6916 23.1771 10.756 20.2888C10.8204 17.4192 13.2256 15.123 16.1059 15.1818C19.0427 15.2419 21.3808 17.6183 21.3276 20.4439C21.2744 23.2773 18.9559 25.5832 16.0086 25.5923H16.0079Z" fill="white"/>
<path d="M19.2557 22.6356C19.2419 21.7526 18.9613 20.9736 18.3232 20.3349C17.9381 19.9502 17.4761 19.6871 16.9268 19.5171C18.2641 18.6806 18.0958 17.292 17.4932 16.6107C16.8006 15.8278 15.5605 15.7477 14.7772 16.4562C14.3777 16.8169 14.1654 17.2694 14.1588 17.7976C14.1503 18.5533 14.5216 19.1118 15.1892 19.5087C15.0946 19.5449 15.0328 19.5682 14.9711 19.5908C14.1043 19.9108 13.4892 20.4887 13.1159 21.3233C12.8406 21.9407 12.8491 22.5929 12.855 23.2452C12.8596 23.721 13.0725 23.9324 13.5536 23.9343C14.126 23.9363 14.6977 23.9343 15.2701 23.9343C16.3649 23.9343 17.4591 23.9356 18.5539 23.933C19.0362 23.933 19.2478 23.7229 19.2551 23.2472C19.2583 23.0435 19.2583 22.8392 19.2551 22.635L19.2557 22.6356ZM16.0646 17.0503C16.4996 17.0587 16.844 17.409 16.842 17.8396C16.84 18.2727 16.4943 18.6114 16.0541 18.6114C15.6138 18.6114 15.2622 18.2714 15.2582 17.8422C15.2536 17.4129 15.6322 17.0412 16.0652 17.0503H16.0646ZM18.1123 22.8367H13.9643C13.9275 21.9691 14.1989 21.2638 14.9467 20.8087C15.7084 20.3452 16.4957 20.3685 17.2396 20.854C17.9092 21.291 18.2687 22.145 18.1123 22.8367Z" fill="white"/>
<path d="M19.2557 22.6356C19.2419 21.7526 18.9613 20.9736 18.3232 20.3349C17.9381 19.9502 17.4761 19.6871 16.9268 19.5171C18.2641 18.6806 18.0958 17.292 17.4932 16.6107C16.8006 15.8278 15.5605 15.7477 14.7772 16.4562C14.3777 16.8169 14.1654 17.2694 14.1588 17.7976C14.1503 18.5533 14.5216 19.1118 15.1892 19.5087C15.0946 19.5449 15.0328 19.5682 14.9711 19.5908C14.1043 19.9108 13.4892 20.4887 13.1159 21.3233C12.8406 21.9407 12.8491 22.5929 12.855 23.2452C12.8596 23.721 13.0725 23.9324 13.5536 23.9343C14.126 23.9363 14.6977 23.9343 15.2701 23.9343C16.3649 23.9343 17.4591 23.9356 18.5539 23.933C19.0362 23.933 19.2478 23.7229 19.2551 23.2472C19.2583 23.0435 19.2583 22.8392 19.2551 22.635L19.2557 22.6356ZM16.0646 17.0503C16.4996 17.0587 16.844 17.409 16.842 17.8396C16.84 18.2727 16.4943 18.6114 16.0541 18.6114C15.6138 18.6114 15.2622 18.2714 15.2582 17.8422C15.2536 17.4129 15.6322 17.0412 16.0652 17.0503H16.0646ZM18.1123 22.8367H13.9643C13.9275 21.9691 14.1989 21.2638 14.9467 20.8087C15.7084 20.3452 16.4957 20.3685 17.2396 20.854C17.9092 21.291 18.2687 22.145 18.1123 22.8367Z" fill="white"/>
<path d="M8.4139 24.2627C9.2084 24.0261 9.81035 24.2647 10.34 24.8122C11.1608 25.6597 12.0026 26.4878 12.8405 27.3185C13.8302 28.2998 14.3276 29.4744 14.3092 30.8598C14.3014 31.4532 14.3119 32.046 14.3046 32.6395C14.3027 32.7662 14.3309 32.8302 14.4564 32.8877C15.2726 33.2575 15.686 34.0681 15.5039 34.915C15.3285 35.7315 14.5931 36.3139 13.7073 36.3178C12.0992 36.3243 10.4912 36.3262 8.88311 36.3178C7.77712 36.3113 6.96159 35.5162 6.90244 34.4282C6.86433 33.7255 7.0457 33.1133 7.62728 32.6201C7.46431 32.4559 7.31251 32.2969 7.15413 32.1449C6.47398 31.4894 5.9292 30.7441 5.58747 29.8643C5.32921 29.201 5.1761 28.5164 5.17544 27.8053C5.17281 25.4089 5.16821 23.0119 5.17741 20.6155C5.1807 19.8378 5.79251 19.181 6.55744 19.0827C7.35982 18.9799 8.10438 19.437 8.33175 20.1901C8.38761 20.3763 8.40864 20.5786 8.40996 20.7738C8.41718 21.8418 8.41324 22.9097 8.41324 23.977C8.41324 24.063 8.41324 24.149 8.41324 24.2627H8.4139ZM13.3261 32.6666C13.3261 32.0531 13.3209 31.47 13.3274 30.8863C13.3393 29.7524 12.9417 28.7899 12.1242 27.9863C11.2653 27.1427 10.4195 26.2855 9.56786 25.4341C9.51726 25.3837 9.466 25.3326 9.40949 25.288C9.19066 25.1161 8.89428 25.0941 8.66625 25.2298C8.42376 25.374 8.2897 25.6507 8.37513 25.9228C8.42047 26.0663 8.52036 26.2047 8.62747 26.3146C9.20183 26.9016 9.78801 27.4769 10.3663 28.06C10.6049 28.3005 10.6193 28.5979 10.4163 28.7976C10.2027 29.0064 9.91616 28.9922 9.67038 28.7478C9.05331 28.1356 8.43953 27.5202 7.8264 26.9042C7.58983 26.6663 7.41897 26.3844 7.39399 26.0508C7.37428 25.7787 7.41962 25.5026 7.42028 25.2285C7.42357 23.7255 7.42422 22.2232 7.41962 20.7202C7.41831 20.3071 7.1469 20.0304 6.78021 20.0369C6.41549 20.044 6.15394 20.3284 6.15394 20.7383C6.15197 23.0791 6.14277 25.4205 6.1592 27.7613C6.16709 28.8597 6.51932 29.8623 7.2067 30.7318C7.49651 31.0983 7.84677 31.419 8.16089 31.7681C8.40404 32.0389 8.65573 32.1863 9.0658 32.2096C10.1146 32.2691 11.1575 32.4281 12.2031 32.5457C12.5678 32.5871 12.9325 32.6233 13.3261 32.6653V32.6666ZM11.2949 35.3559C12.0821 35.3559 12.8694 35.3591 13.6567 35.3546C14.1614 35.352 14.5287 35.0275 14.5504 34.5775C14.5734 34.1018 14.2468 33.7514 13.7375 33.6971C13.2506 33.6454 12.7643 33.5859 12.278 33.5316C11.1851 33.41 10.0923 33.2885 8.99877 33.1683C8.63602 33.1282 8.32321 33.2374 8.10438 33.5251C7.80143 33.9233 7.80406 34.3746 7.99595 34.8064C8.17535 35.2098 8.54139 35.3585 8.98102 35.3565C9.75252 35.352 10.5234 35.3552 11.2949 35.3552V35.3559Z" fill="white"/>
<path d="M23.6672 24.2634C23.6672 24.1574 23.6672 24.0733 23.6672 23.9893C23.6672 22.8741 23.6606 21.759 23.6704 20.6432C23.677 19.8778 24.2218 19.2475 24.9821 19.0943C25.7142 18.9469 26.4864 19.3387 26.7722 20.0304C26.8576 20.2373 26.9023 20.4739 26.903 20.6975C26.9122 23.0306 26.9155 25.3643 26.9056 27.6973C26.8984 29.3574 26.2747 30.7764 25.1024 31.9633C24.8908 32.1772 24.6535 32.3667 24.4143 32.58C25.1727 33.2387 25.3035 34.017 25.1116 34.8607C24.9158 35.7198 24.1436 36.31 23.2341 36.3158C21.6103 36.3262 19.9858 36.3242 18.3613 36.3171C17.48 36.3132 16.7401 35.7166 16.5745 34.9027C16.4003 34.0474 16.8189 33.2484 17.6338 32.878C17.6765 32.8586 17.7192 32.8386 17.7731 32.8133C17.7731 32.1585 17.779 31.503 17.7718 30.8475C17.7567 29.4712 18.2496 28.3031 19.2333 27.3276C20.0548 26.5137 20.8841 25.7069 21.6819 24.871C22.23 24.2976 22.8398 24.0074 23.6672 24.2627V24.2634ZM18.747 32.6511C18.8515 32.6511 18.908 32.6563 18.9626 32.6504C20.1441 32.5179 21.3251 32.386 22.506 32.2503C22.8641 32.2089 23.2656 32.2425 23.5666 32.0887C23.8847 31.9258 24.1055 31.5786 24.3703 31.3136C25.4132 30.2696 25.9284 29.0154 25.9278 27.5532C25.9265 25.3151 25.9278 23.0765 25.9258 20.8385C25.9258 20.7208 25.9205 20.5993 25.889 20.4874C25.7753 20.0905 25.314 19.9173 24.9598 20.1332C24.7311 20.2722 24.6568 20.4874 24.6568 20.7409C24.6588 22.2277 24.6568 23.7145 24.6588 25.2014C24.6588 25.3035 24.6759 25.4063 24.6936 25.5071C24.7758 25.9784 24.6857 26.4251 24.3605 26.7716C23.7059 27.4685 23.0238 28.1401 22.339 28.8079C22.0926 29.0484 21.6786 28.9501 21.559 28.6444C21.4677 28.4104 21.5498 28.2184 21.7253 28.0451C22.3042 27.4737 22.8819 26.9009 23.4496 26.3191C23.562 26.204 23.6639 26.0553 23.7072 25.9047C23.7868 25.6287 23.6428 25.3565 23.3964 25.2214C23.1329 25.0773 22.8267 25.1244 22.5842 25.3662C21.6517 26.2945 20.7205 27.2235 19.7959 28.1595C19.345 28.6159 19.0421 29.1615 18.8844 29.7795C18.6439 30.7227 18.8009 31.6814 18.7464 32.6517L18.747 32.6511ZM20.7816 35.3558C21.561 35.3558 22.3404 35.3584 23.1197 35.3552C23.8452 35.352 24.2238 34.9137 24.1955 34.1192C24.1732 33.5089 23.6987 33.1062 23.0383 33.176C21.442 33.3441 19.8458 33.5206 18.2529 33.7164C18.0656 33.7397 17.8625 33.8722 17.7258 34.0106C17.4866 34.2524 17.4623 34.5665 17.6042 34.871C17.756 35.1962 18.0353 35.3533 18.3961 35.3546C19.1913 35.3584 19.9871 35.3558 20.7822 35.3558H20.7816Z" fill="white"/>
</svg>
