<svg width="31" height="51" viewBox="0 0 31 51" fill="none" xmlns="http://www.w3.org/2000/svg">
<rect x="0.632751" y="4.71387" width="29.8181" height="40.9998" rx="2.23635" fill="#32C1FF"/>
<path d="M6.39783 25.9393C6.39783 23.1547 6.39662 20.3707 6.39843 17.586C6.39843 16.8421 6.79157 16.2826 7.45022 16.0994C7.62199 16.0516 7.80707 16.0359 7.9861 16.0347C9.02701 16.0286 10.0685 16.0292 11.1094 16.0347C11.2558 16.0353 11.3332 15.996 11.404 15.8599C11.6695 15.3464 12.105 15.0857 12.6808 15.0706C13.0352 15.0615 13.3902 15.0772 13.7441 15.0627C13.8305 15.0591 13.9424 14.9998 13.9932 14.9303C14.7946 13.8264 16.3575 13.8252 17.1619 14.9272C17.2158 15.001 17.3385 15.0585 17.4317 15.0627C17.7782 15.0784 18.1254 15.0627 18.4726 15.0706C19.0484 15.0851 19.4845 15.344 19.7512 15.8568C19.8207 15.9905 19.8951 16.0359 20.0433 16.0347C21.077 16.028 22.1106 16.0304 23.1443 16.031C24.164 16.0316 24.7586 16.6268 24.7586 17.6496C24.7586 22.3884 24.7598 27.1272 24.7549 31.8654C24.7549 32.0456 24.8015 32.1739 24.9321 32.3003C25.3718 32.7249 25.8085 33.1531 26.2289 33.5964C27.1047 34.52 26.6601 36.0036 25.4233 36.2806C24.8801 36.4022 24.3896 36.2661 23.9807 35.8821C23.8773 35.7847 23.792 35.7435 23.6439 35.7901C23.4963 35.8361 23.3312 35.8415 23.1739 35.8415C18.1115 35.844 13.0491 35.844 7.98671 35.8433C6.99781 35.8433 6.39783 35.2391 6.39783 34.2454C6.39722 31.4759 6.39783 28.707 6.39783 25.9375V25.9393ZM21.8614 23.3954C21.8614 23.2926 21.8614 23.2345 21.8614 23.1765C21.8614 21.9614 21.8614 20.7463 21.8614 19.5318C21.8614 19.0884 21.7048 18.9306 21.2633 18.9306C17.4758 18.9306 13.6878 18.9306 9.90038 18.9306C9.45522 18.9306 9.29676 19.086 9.29676 19.5257C9.29676 23.6385 9.29676 27.7514 9.29676 31.8642C9.29676 32.3118 9.44736 32.4599 9.89675 32.4599C11.4965 32.4599 13.0957 32.4599 14.6954 32.4599H14.9821C13.4755 31.5164 12.5779 30.2251 12.2852 28.5491C11.9919 26.8707 12.3868 25.3423 13.4398 23.9996C15.4134 21.4835 19.2812 21.0203 21.8614 23.3948V23.3954ZM13.1719 27.5663C13.1719 30.21 15.3009 32.3275 17.9591 32.3251C20.5544 32.3233 22.6876 30.1791 22.6882 27.5723C22.6888 24.9244 20.5598 22.8003 17.9095 22.8051C15.2876 22.8099 13.1719 24.9359 13.1719 27.5657V27.5663ZM11.211 17.006C10.1205 17.006 9.04152 17.0048 7.96312 17.006C7.53369 17.006 7.3722 17.1657 7.3722 17.5921C7.3716 23.1547 7.3716 28.7179 7.3722 34.2805C7.3722 34.7087 7.53309 34.8708 7.95888 34.8708C12.8791 34.8714 17.8 34.8708 22.7203 34.8708C22.7814 34.8708 22.8431 34.8605 22.9489 34.8508C22.4693 34.3742 22.0284 33.9303 21.5778 33.496C21.5239 33.444 21.4181 33.4252 21.3358 33.4252C17.5018 33.4222 13.6684 33.424 9.83445 33.4216C8.92479 33.4216 8.33388 32.8253 8.33388 31.9168C8.33267 27.7731 8.33267 23.6295 8.33388 19.4858C8.33388 18.5659 8.92963 17.9713 9.84836 17.9689C10.3304 17.9677 10.8131 17.9689 11.2776 17.9689C11.2552 17.6477 11.234 17.3423 11.2104 17.0066L11.211 17.006ZM15.573 17.9683C16.5154 17.9683 17.4583 17.9695 18.4006 17.9677C18.7683 17.9671 18.9546 17.7814 18.9625 17.4113C18.9679 17.1548 18.9649 16.8984 18.9631 16.6419C18.9601 16.2143 18.7835 16.0347 18.3589 16.0329C17.9065 16.0304 17.4541 16.0286 17.0016 16.0335C16.7452 16.0365 16.5746 15.9312 16.4742 15.6917C16.3097 15.3004 16.0115 15.0772 15.5845 15.0748C15.1581 15.0724 14.8545 15.2895 14.6888 15.6814C14.5842 15.9288 14.41 16.0371 14.1444 16.0335C13.6848 16.0268 13.2245 16.028 12.7648 16.0335C12.3832 16.0371 12.2011 16.2234 12.1957 16.608C12.1921 16.8645 12.1933 17.1209 12.1957 17.3774C12.1999 17.7893 12.379 17.9677 12.7914 17.9677C13.7186 17.9689 14.6465 17.9677 15.5737 17.9677L15.573 17.9683ZM23.7231 31.116C23.74 31.1051 23.7576 31.0942 23.7745 31.0834C23.7781 31.0192 23.7854 30.9551 23.7854 30.891C23.7854 26.4625 23.786 22.0339 23.7854 17.606C23.7854 17.1645 23.6269 17.0066 23.186 17.006C22.1753 17.0048 21.1647 17.0054 20.154 17.006C20.082 17.006 20.0101 17.0139 19.9459 17.0181C19.9224 17.3453 19.9006 17.6502 19.8776 17.9677C20.3197 17.9677 20.7721 17.9677 21.2239 17.9677C22.2564 17.9677 22.8237 18.5314 22.8237 19.5572C22.8237 21.111 22.8279 22.6654 22.8195 24.2192C22.8183 24.4907 22.8618 24.7303 22.9991 24.9704C23.1328 25.2038 23.2332 25.4603 23.3172 25.7167C23.815 27.227 23.7152 28.6997 23.0227 30.1326C22.9919 30.1961 22.9677 30.3116 23.0009 30.3497C23.2326 30.6128 23.4806 30.862 23.7231 31.1154V31.116ZM21.5536 32.0904C21.5536 32.0904 21.5826 32.1243 21.6147 32.1563C22.5957 33.138 23.5773 34.119 24.5571 35.1018C24.744 35.2893 24.9533 35.4061 25.2249 35.3383C25.7402 35.2107 25.8823 34.6186 25.4862 34.2182C24.6908 33.4138 23.8864 32.6184 23.088 31.8164C22.8654 31.5926 22.6519 31.3604 22.4693 31.1692C22.1499 31.491 21.859 31.7831 21.5542 32.0904H21.5536Z" fill="white"/>
<path d="M17.2763 28.1765C17.696 27.7555 18.1 27.3503 18.5041 26.9451C18.8234 26.6251 19.1415 26.3034 19.4639 25.9864C19.7064 25.7475 19.9992 25.7336 20.2018 25.9429C20.3978 26.1455 20.3832 26.431 20.1498 26.665C19.3254 27.4931 18.4992 28.3192 17.6706 29.1424C17.4111 29.4001 17.1577 29.4007 16.9007 29.1479C16.4978 28.7511 16.0987 28.3507 15.7013 27.9485C15.4727 27.7174 15.4569 27.4265 15.6541 27.2269C15.8634 27.014 16.144 27.0298 16.3914 27.2759C16.6847 27.5681 16.972 27.8662 17.2756 28.1759L17.2763 28.1765Z" fill="white"/>
</svg>
