<svg width="31" height="51" viewBox="0 0 31 51" fill="none" xmlns="http://www.w3.org/2000/svg">
<rect x="0.632736" y="4.71387" width="29.8181" height="40.9998" rx="2.23635" fill="#BE54F0"/>
<g clip-path="url(#clip0_6177_8443)">
<path fill-rule="evenodd" clip-rule="evenodd" d="M14.0463 21.0834L13.7227 21.1423L13.7146 21.1342L12.7182 19.6075C11.8825 19.6958 10.3557 19.736 9.72089 18.6432C9.50393 19.8807 8.06554 20.3869 7.2459 20.5878L6.82804 22.3717L6.49603 22.4321C6.50485 22.534 6.4759 22.6366 6.41304 22.7196C6.33481 22.8229 6.21305 22.8838 6.08361 22.8847C5.72144 22.9696 5.49779 23.3097 5.55877 23.6634C5.62991 24.0384 5.97012 24.2753 6.32813 24.2222C6.45273 24.1867 6.55214 24.1507 6.63199 24.1058C6.72972 24.0508 6.84548 24.0375 6.95311 24.069C7.06074 24.1004 7.15115 24.1739 7.20392 24.2728C7.60031 25.0161 8.11617 25.6574 8.75433 26.0682C9.38254 26.4726 10.149 26.6674 11.0921 26.4939L11.0938 26.4936C12.0626 26.3195 12.7187 25.8627 13.1647 25.2637C13.6178 24.655 13.8698 23.8767 13.9766 23.0495C13.9923 22.9274 14.0613 22.8184 14.165 22.752C14.2688 22.6856 14.3965 22.6684 14.5141 22.7051C14.5575 22.7187 14.6197 22.7226 14.6962 22.7014C14.709 22.6978 14.7219 22.6949 14.735 22.6926C15.1568 22.6178 15.3878 22.2469 15.3228 21.9127C15.3167 21.8816 15.3143 21.8501 15.3154 21.819C15.2095 21.49 14.8858 21.2927 14.5503 21.3516C14.5265 21.3558 14.5024 21.3579 14.4782 21.3579H14.438C14.2601 21.3579 14.1051 21.2455 14.0463 21.0834ZM7.51308 17.063C6.01882 18.0681 5.1704 19.8967 5.50983 21.7929C5.53071 21.9139 5.55434 22.0451 5.58299 22.1818C4.98022 22.4675 4.6174 23.1211 4.73838 23.8098L4.73836 23.8098L4.73918 23.8141C4.89276 24.6369 5.66652 25.1848 6.4905 25.04C6.50378 25.0377 6.51694 25.0347 6.52993 25.0311C6.56991 25.02 6.6118 25.0078 6.65492 24.9942C7.07329 25.6911 7.61597 26.3265 8.30325 26.7689C9.10723 27.2865 10.0883 27.5257 11.2422 27.3137C12.4184 27.102 13.2606 26.5303 13.8331 25.7614C14.3196 25.1079 14.5995 24.3286 14.7435 23.5399C14.796 23.5332 14.8481 23.523 14.8995 23.5096C15.6902 23.3599 16.2361 22.6554 16.1607 21.8896C16.1667 21.8459 16.1657 21.8011 16.1575 21.7567C16.0288 21.0678 15.4654 20.5716 14.8017 20.5134C14.7839 20.3784 14.7627 20.2366 14.7337 20.1097C14.3913 18.2424 12.9743 16.8288 11.2276 16.4027C11.2869 16.1402 11.296 15.8609 11.2477 15.5816C11.0468 14.4726 9.97804 13.7253 8.86911 13.9262C7.76018 14.1271 7.01286 15.1959 7.21375 16.3048C7.26196 16.5833 7.36729 16.8368 7.51308 17.063ZM18.5031 19.1031C18.9359 16.5522 21.3545 14.8509 23.9099 15.2912C26.461 15.724 28.1624 18.1429 27.7217 20.6986L27.7197 20.7095C27.7097 20.7596 27.6996 20.8125 27.6891 20.8678C27.6736 20.949 27.6572 21.0352 27.6388 21.124C28.1535 21.4343 28.4462 22.0427 28.3502 22.6972L28.3485 22.7079C28.2055 23.5326 27.4302 24.0933 26.5944 23.9387C26.1853 24.6341 25.65 25.2703 24.9614 25.714C24.1637 26.2281 23.1843 26.4678 22.0182 26.2698L22.0163 26.2695C19.8325 25.8886 18.8455 24.2278 18.51 22.5199C17.701 22.3649 17.1546 21.5989 17.306 20.7732C17.408 20.1554 17.8758 19.6991 18.4388 19.5621C18.4561 19.4013 18.4782 19.2478 18.5031 19.1031ZM27.1108 21.7899C27.0519 21.7843 26.9935 21.7661 26.9399 21.7347C26.7763 21.6389 26.698 21.4448 26.7493 21.2623C26.7991 21.0851 26.8311 20.9177 26.8658 20.7355L26.8658 20.7354C26.8772 20.676 26.8888 20.615 26.9014 20.5517C27.0366 19.7611 26.9232 18.9877 26.6179 18.3115L20.3432 17.2251C19.8253 17.7603 19.4587 18.4522 19.3246 19.243L19.3244 19.2441C19.2866 19.4634 19.2564 19.705 19.2414 19.9612C19.2281 20.1863 19.0382 20.36 18.8128 20.3532C18.482 20.3431 18.1813 20.5807 18.1278 20.9113L18.1261 20.9212C18.0573 21.2898 18.2999 21.638 18.6796 21.7038L18.683 21.7044L18.683 21.7044C18.7024 21.708 18.7285 21.7107 18.762 21.7122C18.7954 21.7137 18.8286 21.7138 18.8656 21.7138C19.072 21.7138 19.2473 21.8649 19.2777 22.0691C19.5214 23.706 20.3364 25.1301 22.1585 25.4484C23.1214 25.6117 23.8895 25.4135 24.51 25.0136C25.1402 24.6074 25.6419 23.977 26.0263 23.2463C26.1291 23.0509 26.3665 22.9696 26.5675 23.0609C26.631 23.0898 26.6945 23.1099 26.7428 23.1187L26.7447 23.1191C27.1116 23.1875 27.4583 22.9475 27.5264 22.5708C27.5793 22.1946 27.3847 21.898 27.1108 21.7899ZM12.5801 29.4015C12.9615 26.8302 15.3334 25.0761 17.89 25.455C20.4629 25.834 22.2192 28.2057 21.8417 30.7628C21.8242 30.893 21.8004 31.0246 21.7742 31.1549C22.3768 31.4236 22.7524 32.0681 22.6533 32.7791L22.6528 32.7829C22.5307 33.6044 21.7592 34.1763 20.9336 34.059C20.8796 34.0527 20.8278 34.0428 20.7783 34.0303C20.3872 34.7314 19.8728 35.3803 19.2029 35.8429C18.4142 36.3875 17.4337 36.6568 16.2494 36.4767C15.0795 36.3085 14.2254 35.7672 13.6307 35.019C13.1231 34.3804 12.816 33.6067 12.6439 32.8174C12.5947 32.8151 12.5476 32.8112 12.5036 32.8063L12.4883 32.8043C11.6645 32.6819 11.0918 31.9063 11.2132 31.0782L11.2134 31.0774C11.3153 30.3914 11.8701 29.8795 12.5311 29.7975C12.5428 29.6644 12.5581 29.5304 12.5801 29.4015ZM21.2821 31.8687C21.1568 31.868 21.0384 31.8109 20.9598 31.7133C20.9105 31.652 20.8801 31.5788 20.8708 31.5026L20.5531 31.452L20.1192 29.7806C19.1549 29.2904 19.0987 28.2377 19.0987 28.2377C17.5719 29.2181 15.3219 29.0895 14.5183 29.0011L13.6424 30.4234L13.306 30.3699C13.2441 30.5238 13.0936 30.6312 12.9192 30.6312H12.8791C12.8588 30.6312 12.8386 30.6297 12.8186 30.6268C12.4416 30.5715 12.0922 30.8342 12.0377 31.1995C11.983 31.5741 12.2421 31.9212 12.6037 31.979C12.7208 31.9913 12.8228 31.9868 12.8825 31.9719C12.9953 31.9437 13.1149 31.9639 13.2121 32.0278C13.3094 32.0916 13.3755 32.1932 13.3946 32.3079C13.532 33.136 13.8117 33.9075 14.283 34.5005C14.7467 35.0837 15.4108 35.5146 16.3695 35.6521L16.3731 35.6526C17.3495 35.8014 18.1162 35.5806 18.7293 35.1571C19.353 34.7265 19.8411 34.0694 20.2115 33.3171C20.2621 33.2144 20.3527 33.137 20.462 33.1031C20.5713 33.0692 20.6898 33.0819 20.7896 33.138C20.8974 33.1986 20.969 33.2245 21.0331 33.2317L21.0476 33.2335C21.4241 33.2887 21.773 33.0267 21.8282 32.6622C21.8832 32.2603 21.6315 31.9347 21.2821 31.8687Z" fill="white"/>
</g>
<defs>
<clipPath id="clip0_6177_8443">
<rect width="25" height="25" fill="white" transform="translate(4.04175 12.7129)"/>
</clipPath>
</defs>
</svg>
