<svg width="31" height="51" viewBox="0 0 31 51" fill="none" xmlns="http://www.w3.org/2000/svg">
<rect x="0.632736" y="4.71387" width="29.8181" height="40.9998" rx="2.23635" fill="#3277FF"/>
<path fill-rule="evenodd" clip-rule="evenodd" d="M9.29301 15.9626C9.29171 15.9657 9.29016 15.971 9.29016 15.9794V25.0563H10.0879C10.5703 25.0563 10.954 25.44 10.954 25.9224V34.8955C10.954 35.1256 10.7675 35.3122 10.5374 35.3122C10.3072 35.3122 10.1207 35.1256 10.1207 34.8955V25.9224C10.1207 25.914 10.1191 25.9088 10.1178 25.9056C10.1165 25.9023 10.1146 25.8997 10.1126 25.8977C10.1106 25.8957 10.108 25.8939 10.1047 25.8925C10.1016 25.8912 10.0963 25.8896 10.0879 25.8896H6.09025C6.08187 25.8896 6.07658 25.8912 6.07346 25.8925C6.07013 25.8939 6.06755 25.8957 6.06553 25.8977C6.06351 25.8997 6.0617 25.9023 6.06032 25.9056C6.05902 25.9088 6.05747 25.914 6.05747 25.9224V34.8955C6.05747 35.1256 5.87092 35.3122 5.6408 35.3122C5.41068 35.3122 5.22414 35.1256 5.22414 34.8955V25.9224C5.22414 25.44 5.60782 25.0563 6.09025 25.0563H8.45683V15.9794C8.45683 15.497 8.84046 15.1133 9.32292 15.1133H15.0001C15.4825 15.1133 15.8662 15.4969 15.8662 15.9794V25.2691H17.4149L18.5523 20.2943L18.5551 20.2826C18.6554 19.8959 18.9871 19.6156 19.4079 19.6156H21.458C21.9404 19.6156 22.3241 19.9993 22.3241 20.4818V20.7656C22.3241 20.774 22.3257 20.7793 22.327 20.7824C22.3283 20.7857 22.3302 20.7883 22.3322 20.7903C22.3342 20.7923 22.3368 20.7942 22.3401 20.7955C22.3432 20.7968 22.3485 20.7984 22.3569 20.7984H26.9932C27.4757 20.7984 27.8593 21.182 27.8593 21.6645V34.8718C27.8593 35.1019 27.6728 35.2885 27.4427 35.2885C27.2126 35.2885 27.026 35.1019 27.026 34.8718V21.6645C27.026 21.6561 27.0245 21.6508 27.0232 21.6477C27.0218 21.6444 27.02 21.6418 27.0179 21.6398C27.0159 21.6378 27.0134 21.6359 27.01 21.6346C27.0069 21.6333 27.0016 21.6317 26.9932 21.6317H22.3569C21.8744 21.6317 21.4908 21.248 21.4908 20.7656V20.4818C21.4908 20.4734 21.4892 20.4681 21.4879 20.465C21.4866 20.4616 21.4847 20.4591 21.4827 20.457C21.4807 20.455 21.4781 20.4532 21.4748 20.4518C21.4717 20.4505 21.4664 20.449 21.458 20.449H19.4079C19.3977 20.449 19.3915 20.4506 19.3883 20.4517C19.3851 20.4528 19.3828 20.4541 19.3809 20.4557C19.3781 20.4579 19.3692 20.4661 19.3628 20.4879L18.2698 25.2691H23.784C24.2664 25.2691 24.6501 25.6528 24.6501 26.1352V34.8954C24.6501 35.1255 24.4636 35.3121 24.2334 35.3121C24.0033 35.3121 23.8168 35.1255 23.8168 34.8954V26.1352C23.8168 26.1269 23.8152 26.1216 23.8139 26.1184C23.8125 26.1151 23.8107 26.1125 23.8087 26.1105C23.8067 26.1085 23.8041 26.1067 23.8008 26.1053C23.7976 26.104 23.7924 26.1025 23.784 26.1025H13.502C13.4936 26.1025 13.4884 26.104 13.4852 26.1053C13.4819 26.1067 13.4793 26.1085 13.4773 26.1105C13.4753 26.1125 13.4735 26.1151 13.4721 26.1184C13.4708 26.1216 13.4692 26.1269 13.4692 26.1352V34.8954C13.4692 35.1255 13.2827 35.3121 13.0526 35.3121C12.8225 35.3121 12.6359 35.1255 12.6359 34.8954V26.1352C12.6359 25.6528 13.0196 25.2691 13.502 25.2691H15.0329V15.9794C15.0329 15.971 15.0313 15.9657 15.03 15.9626C15.0286 15.9593 15.0268 15.9567 15.0248 15.9547C15.0228 15.9527 15.0202 15.9508 15.0169 15.9495C15.0138 15.9482 15.0085 15.9466 15.0001 15.9466H9.32292C9.31454 15.9466 9.30926 15.9482 9.30614 15.9495C9.30281 15.9508 9.30024 15.9527 9.29822 15.9547C9.29621 15.9567 9.2944 15.9593 9.29301 15.9626ZM15.1185 29.4389H16.5457C16.6166 29.4389 16.6166 29.3679 16.6166 29.3679V27.9329C16.6166 27.8934 16.5457 27.8619 16.5457 27.8619H15.1185C15.0791 27.8619 15.0475 27.9329 15.0475 27.9329V29.3679C15.0475 29.4073 15.1185 29.4389 15.1185 29.4389ZM19.2107 29.4389H17.7835C17.7835 29.4389 17.7125 29.4073 17.7125 29.3679V27.9329C17.7125 27.9329 17.7441 27.8619 17.7835 27.8619H19.2107C19.2107 27.8619 19.2816 27.8934 19.2816 27.9329V29.3679C19.2816 29.3679 19.2816 29.4389 19.2107 29.4389ZM20.4408 29.4389H21.8679C21.9389 29.4389 21.9389 29.3679 21.9389 29.3679V27.9329C21.9389 27.8934 21.8679 27.8619 21.8679 27.8619H20.4408C20.4013 27.8619 20.3698 27.9329 20.3698 27.9329V29.3679C20.3698 29.4073 20.4408 29.4389 20.4408 29.4389ZM16.5457 32.2066H15.1185C15.1185 32.2066 15.0475 32.1751 15.0475 32.1357V30.7006C15.0475 30.7006 15.0791 30.6296 15.1185 30.6296H16.5457C16.5457 30.6296 16.6166 30.6612 16.6166 30.7006V32.1357C16.6166 32.1357 16.6166 32.2066 16.5457 32.2066ZM17.7835 32.2066H19.2107C19.2816 32.2066 19.2816 32.1357 19.2816 32.1357V30.7006C19.2816 30.6612 19.2107 30.6296 19.2107 30.6296H17.7835C17.7441 30.6296 17.7125 30.7006 17.7125 30.7006V32.1357C17.7125 32.1751 17.7835 32.2066 17.7835 32.2066ZM21.8679 32.2066H20.4408C20.4408 32.2066 20.3698 32.1751 20.3698 32.1357V30.7006C20.3698 30.7006 20.4013 30.6296 20.4408 30.6296H21.8679C21.8679 30.6296 21.9389 30.6612 21.9389 30.7006V32.1357C21.9389 32.1357 21.9389 32.2066 21.8679 32.2066ZM15.1185 34.9744H16.5457C16.6166 34.9744 16.6166 34.9034 16.6166 34.9034V33.4683C16.6166 33.4289 16.5457 33.3974 16.5457 33.3974H15.1185C15.0791 33.3974 15.0475 33.4683 15.0475 33.4683V34.9034C15.0475 34.9428 15.1185 34.9744 15.1185 34.9744ZM8.71595 34.9744H7.28878C7.28878 34.9744 7.21782 34.9428 7.21782 34.9034V33.4683C7.21782 33.4683 7.24935 33.3974 7.28878 33.3974H8.71595C8.71595 33.3974 8.78691 33.4289 8.78691 33.4683V34.9034C8.78691 34.9034 8.78692 34.9744 8.71595 34.9744ZM7.28878 32.2066H8.71595C8.78692 32.2066 8.78691 32.1357 8.78691 32.1357V30.7006C8.78691 30.6612 8.71595 30.6296 8.71595 30.6296H7.28878C7.24935 30.6296 7.21782 30.7006 7.21782 30.7006V32.1357C7.21782 32.1751 7.28878 32.2066 7.28878 32.2066ZM8.71595 29.4389H7.28878C7.28878 29.4389 7.21782 29.4073 7.21782 29.3679V27.9329C7.21782 27.9329 7.24935 27.8619 7.28878 27.8619H8.71595C8.71595 27.8619 8.78691 27.8934 8.78691 27.9329V29.3679C8.78691 29.3679 8.78692 29.4389 8.71595 29.4389ZM11.3653 25.3544H12.8004C12.8398 25.3544 12.8713 25.2835 12.8713 25.2835V23.8484C12.8713 23.809 12.8004 23.7774 12.8004 23.7774H11.3653C11.3259 23.7774 11.2944 23.8484 11.2944 23.8484V25.2835C11.2944 25.3229 11.3653 25.3544 11.3653 25.3544ZM12.8004 22.2321H11.3653C11.3653 22.2321 11.2944 22.2006 11.2944 22.1612V20.7261C11.2944 20.7261 11.3259 20.6551 11.3653 20.6551H12.8004C12.8004 20.6551 12.8713 20.6867 12.8713 20.7261V22.1612C12.8713 22.1612 12.8398 22.2321 12.8004 22.2321ZM11.3653 19.0861H12.8004C12.8398 19.0861 12.8713 19.0151 12.8713 19.0151V17.5801C12.8713 17.5407 12.8004 17.5091 12.8004 17.5091H11.3653C11.3259 17.5091 11.2944 17.5801 11.2944 17.5801V19.0151C11.2944 19.0546 11.3653 19.0861 11.3653 19.0861ZM19.2107 34.9744H17.7835C17.7835 34.9744 17.7125 34.9428 17.7125 34.9034V33.4683C17.7125 33.4683 17.7441 33.3974 17.7835 33.3974H19.2107C19.2107 33.3974 19.2816 33.4289 19.2816 33.4683V34.9034C19.2816 34.9034 19.2816 34.9744 19.2107 34.9744ZM20.4408 34.9744H21.8679C21.9389 34.9744 21.9389 34.9034 21.9389 34.9034V33.4683C21.9389 33.4289 21.8679 33.3974 21.8679 33.3974H20.4408C20.4013 33.3974 20.3698 33.4683 20.3698 33.4683V34.9034C20.3698 34.9428 20.4408 34.9744 20.4408 34.9744Z" fill="white"/>
</svg>
