<svg width="31" height="50" viewBox="0 0 31 50" fill="none" xmlns="http://www.w3.org/2000/svg">
<g clip-path="url(#clip0_6177_8534)">
<rect x="1.37814" y="7.29623" width="28.3272" height="39.5089" rx="1.4909" fill="white"/>
<rect x="1.37814" y="7.29623" width="28.3272" height="39.5089" rx="1.4909" stroke="#F67600" stroke-width="1.4909"/>
<rect width="26.0908" height="40.9998" rx="2.23635" transform="matrix(0.983255 -0.182236 0 1 0.63269 6.55078)" fill="#F67600"/>
</g>
<g clip-path="url(#clip1_6177_8534)">
<path d="M6.39528 26.3444C7.08972 25.9777 7.61194 26.0999 8.07305 26.5332C8.78972 27.1999 9.52306 27.8499 10.2508 28.4944C11.1119 29.261 11.5453 30.2999 11.5286 31.6332C11.523 32.2055 11.5286 32.7721 11.5286 33.3388C11.5286 33.461 11.5508 33.5166 11.662 33.5499C12.3731 33.761 12.7342 34.4666 12.5731 35.311C12.4175 36.1277 11.7786 36.811 11.0064 36.9721C9.60638 37.261 8.20084 37.5444 6.80084 37.8221C5.83417 38.011 5.12305 37.3944 5.07305 36.361C5.03972 35.6944 5.19528 35.0721 5.70639 34.4999C5.56195 34.3721 5.43416 34.2444 5.29527 34.1277C4.70083 33.6166 4.22861 32.9999 3.92861 32.2166C3.70083 31.6277 3.5675 30.9944 3.5675 30.3166C3.5675 28.0166 3.56195 25.7221 3.5675 23.4166C3.5675 22.6721 4.1064 21.9332 4.77306 21.7055C5.47306 21.4666 6.12306 21.7721 6.31751 22.4555C6.36751 22.6221 6.38417 22.8166 6.38417 22.9999C6.38973 24.0221 6.38417 25.0499 6.38417 26.0721V26.3444H6.39528ZM10.6786 33.5444C10.6786 32.9555 10.6786 32.3999 10.6786 31.8388C10.6897 30.7499 10.3397 29.8944 9.62861 29.2666C8.87861 28.611 8.14528 27.9332 7.40083 27.2666C7.35639 27.2277 7.31194 27.1888 7.26194 27.1555C7.07305 27.0277 6.81195 27.061 6.61195 27.2332C6.40084 27.4166 6.28416 27.7055 6.35638 27.9499C6.39527 28.0777 6.48418 28.1944 6.57862 28.2832C7.07862 28.7444 7.58972 29.1944 8.09528 29.6499C8.30083 29.8388 8.31751 30.1221 8.13973 30.3499C7.95084 30.5888 7.70639 30.6221 7.48972 30.4332C6.95083 29.9555 6.41751 29.4721 5.88418 28.9888C5.67862 28.7999 5.52861 28.561 5.50639 28.2444C5.48972 27.9888 5.52861 27.7166 5.52861 27.4499C5.52861 26.0055 5.52861 24.5666 5.52861 23.1277C5.52861 22.7332 5.28972 22.5166 4.97306 22.5832C4.65639 22.6555 4.42861 22.9721 4.42861 23.3666C4.42861 25.611 4.4175 27.861 4.42861 30.1055C4.43416 31.1555 4.74528 32.0555 5.33973 32.7721C5.58973 33.0721 5.89528 33.3166 6.17306 33.5999C6.38417 33.8166 6.60638 33.9166 6.96194 33.8666C7.8786 33.7388 8.78417 33.7055 9.69528 33.6388C10.0119 33.6166 10.3286 33.5832 10.6731 33.5555L10.6786 33.5444ZM8.90638 36.4777C9.59527 36.3388 10.2786 36.2055 10.9675 36.061C11.4064 35.9721 11.7286 35.5944 11.7453 35.1555C11.7675 34.6944 11.4786 34.4166 11.0342 34.4555C10.6119 34.4944 10.1842 34.5221 9.76194 34.5555C8.81194 34.6332 7.85639 34.7055 6.90084 34.7832C6.58417 34.811 6.31195 34.9666 6.12306 35.2832C5.85639 35.7166 5.86194 36.1499 6.02861 36.5332C6.18416 36.8888 6.5064 36.9666 6.88973 36.8888C7.56195 36.7499 8.23416 36.6166 8.90638 36.4777Z" fill="white"/>
<path d="M19.6898 23.6606V23.3995C19.6898 22.3273 19.6842 21.2606 19.6898 20.1884C19.6954 19.4551 20.1731 18.7551 20.8342 18.4718C21.4731 18.1995 22.1454 18.4384 22.3954 19.0551C22.4676 19.2384 22.5065 19.4551 22.512 19.6718C22.5176 21.9106 22.5231 24.144 22.512 26.3884C22.5065 27.9829 21.962 29.4551 20.9398 30.7995C20.7565 31.044 20.5509 31.2662 20.3398 31.5106C21.0009 32.0106 21.1176 32.7329 20.9454 33.5773C20.7731 34.4384 20.1009 35.1384 19.3065 35.3051C17.8898 35.5995 16.4731 35.8829 15.0565 36.1662C14.2898 36.3162 13.6454 35.8773 13.5009 35.1218C13.3509 34.3329 13.712 33.494 14.4231 32.994C14.462 32.9662 14.4954 32.9384 14.5454 32.9051C14.5454 32.2773 14.5454 31.6495 14.5454 31.0218C14.5343 29.7051 14.962 28.494 15.8176 27.3884C16.5342 26.4606 17.2565 25.544 17.9509 24.5995C18.4287 23.9551 18.962 23.5662 19.6843 23.6662L19.6898 23.6606ZM15.4009 32.5718C15.4898 32.5551 15.5398 32.5495 15.5898 32.5329C16.6176 32.1995 17.6509 31.8606 18.6787 31.5273C18.9898 31.4218 19.3398 31.3884 19.6009 31.1829C19.8787 30.9718 20.0731 30.5995 20.3009 30.2995C21.212 29.1162 21.6565 27.8218 21.6565 26.4162C21.6565 24.2718 21.6565 22.1218 21.6565 19.9773C21.6565 19.8662 21.6565 19.7495 21.6231 19.6495C21.5231 19.2884 21.1231 19.2051 20.812 19.4718C20.612 19.644 20.5454 19.8662 20.5454 20.1106C20.5454 21.5384 20.5454 22.9606 20.5454 24.3884C20.5454 24.4884 20.562 24.5829 20.5731 24.6773C20.6454 25.1162 20.5676 25.5606 20.2842 25.9495C19.712 26.7329 19.1176 27.4995 18.5231 28.2606C18.3065 28.5329 17.9454 28.5162 17.8454 28.2384C17.7676 28.0273 17.8398 27.8329 17.9898 27.6329C18.4954 26.9829 18.9954 26.3329 19.4954 25.6718C19.5954 25.544 19.6843 25.3829 19.7176 25.2273C19.7843 24.9495 19.662 24.7106 19.4454 24.6273C19.2176 24.5329 18.9509 24.6329 18.7398 24.9106C17.9287 25.9662 17.1176 27.0218 16.3065 28.0829C15.912 28.5995 15.6509 29.1773 15.512 29.7995C15.3009 30.744 15.4398 31.6384 15.3898 32.5773L15.4009 32.5718ZM17.1731 34.8106C17.8509 34.6718 18.5343 34.5384 19.212 34.3995C19.8454 34.2662 20.1731 33.7829 20.1509 33.0217C20.1287 32.4384 19.7176 32.1384 19.1398 32.3218C17.7509 32.7662 16.3565 33.2162 14.9676 33.6829C14.8065 33.7384 14.6287 33.8995 14.5065 34.0606C14.2954 34.3329 14.2787 34.6384 14.4009 34.9051C14.5343 35.1884 14.7787 35.294 15.0898 35.2273C15.7842 35.0884 16.4787 34.9495 17.1676 34.8106H17.1731Z" fill="white"/>
<path d="M7.14523 21.6607C7.14523 20.8218 7.28412 19.9885 7.69523 19.1773C8.22301 18.1329 9.07857 17.5662 10.1008 17.544C11.1563 17.5273 12.0452 17.8773 12.8119 18.5273C13.023 18.7051 13.0452 18.7051 13.2563 18.4385C14.1008 17.3829 15.0786 16.6162 16.2563 16.2662C17.3119 15.9551 18.173 16.3662 18.5897 17.4329C19.1452 18.8607 19.0175 20.4162 18.373 22.0162C17.3175 24.6329 15.5897 26.6273 13.4008 28.1551C13.1675 28.3162 12.923 28.3773 12.6952 28.3107C10.423 27.644 8.65635 26.2829 7.60079 23.9718C7.28413 23.2773 7.14524 22.494 7.15079 21.6551L7.14523 21.6607ZM18.1897 19.6885C18.1897 18.7385 18.0841 18.0885 17.7452 17.5607C17.4174 17.0496 16.9452 16.8773 16.323 17.0607C15.3286 17.3551 14.4952 17.9996 13.7841 18.894C13.2619 19.5496 12.8008 19.644 12.2786 19.194C11.7008 18.6996 11.0341 18.4107 10.2563 18.3662C9.15079 18.3051 8.43412 18.844 8.08412 20.0496C7.71746 21.3162 7.80634 22.4885 8.27301 23.5273C9.22301 25.6384 10.8397 26.8773 12.9063 27.494C12.9897 27.5162 13.1175 27.4773 13.2063 27.4162C14.7786 26.3107 16.0952 24.9051 17.0841 23.1384C17.7452 21.9607 18.2119 20.7385 18.1897 19.6829V19.6885Z" fill="white"/>
<path d="M13.3952 13.5056C13.3952 14.0167 13.3952 14.5222 13.3952 15.0333C13.3952 15.3333 13.2619 15.5333 13.0396 15.5833C12.8063 15.6333 12.6674 15.4833 12.6674 15.1722C12.6674 14.1611 12.6674 13.1556 12.6674 12.1444C12.6674 11.8333 12.8063 11.6167 13.0341 11.5778C13.2619 11.5333 13.3952 11.6889 13.3952 12.0056C13.3952 12.5056 13.3952 13.0056 13.3952 13.5056Z" fill="white"/>
<path d="M11.1731 15.6171C11.0731 15.7449 10.9897 15.906 10.8731 15.9949C10.7175 16.1116 10.5564 16.0671 10.462 15.9116C10.3786 15.7727 10.3175 15.6116 10.2453 15.4616C10.0175 14.9671 9.78417 14.4671 9.55639 13.9727C9.43973 13.7116 9.48973 13.4727 9.69528 13.3282C9.90639 13.1782 10.0897 13.2393 10.2119 13.506C10.4953 14.1116 10.7786 14.7171 11.0564 15.3227C11.0897 15.3949 11.1064 15.4838 11.1342 15.5616C11.1453 15.5782 11.1564 15.5949 11.1675 15.6116L11.1731 15.6171Z" fill="white"/>
<path d="M16.123 12.0001C16.4897 11.9224 16.6508 12.1835 16.523 12.5279C16.3119 13.0835 16.0897 13.639 15.873 14.2001C15.7952 14.4057 15.7175 14.6112 15.6341 14.8112C15.523 15.0668 15.3341 15.1835 15.1452 15.1279C14.9564 15.0668 14.8786 14.8668 14.9786 14.6112C15.273 13.839 15.5675 13.0668 15.8786 12.3057C15.9341 12.1724 16.073 12.0668 16.123 12.0057V12.0001Z" fill="white"/>
<path d="M11.8397 24.5781C10.8508 24.6504 10.4175 24.3448 10.4064 23.5837C10.4064 23.167 10.5564 22.7948 10.8453 22.467C11.1342 22.1448 11.4786 22.0448 11.8509 21.9837C11.8342 21.4559 11.9231 20.967 12.3175 20.5559C12.5508 20.3115 12.812 20.1781 13.1064 20.1337C13.7731 20.0337 14.1175 20.4448 14.2286 21.5059C14.6897 21.367 15.1342 21.3726 15.4064 21.7726C15.5453 21.9781 15.6342 22.2615 15.6508 22.5337C15.6786 22.9281 15.4953 23.3004 15.2009 23.617C14.9175 23.9226 14.5786 24.0226 14.212 24.0781C14.2286 24.6115 14.1397 25.1004 13.7453 25.5115C13.512 25.7559 13.2508 25.8892 12.9564 25.9337C12.2953 26.0337 11.9453 25.617 11.8342 24.5781H11.8397ZM12.5842 23.6004V23.9004C12.5842 24.1781 12.5731 24.4559 12.5842 24.7281C12.6009 25.0115 12.7842 25.1615 13.0231 25.1115C13.262 25.0615 13.4453 24.8392 13.4675 24.5504C13.4786 24.4226 13.4675 24.3004 13.4675 24.1726V23.417C13.8009 23.3504 14.0953 23.2892 14.3897 23.2281C14.712 23.1615 14.9175 22.9337 14.9175 22.6392C14.9175 22.3448 14.7175 22.2004 14.3897 22.2615C14.0897 22.3226 13.7897 22.3837 13.462 22.4504V22.1504C13.462 21.8726 13.4731 21.5948 13.462 21.3226C13.4453 21.0392 13.262 20.8892 13.0231 20.9392C12.7842 20.9892 12.6008 21.2115 12.5786 21.5004C12.5675 21.6281 12.5786 21.7504 12.5786 21.8781V22.6337C12.2342 22.7004 11.9342 22.7615 11.6286 22.8281C11.3231 22.8948 11.1231 23.1281 11.1231 23.4115C11.1231 23.6948 11.3231 23.8504 11.6231 23.7892C11.9286 23.7337 12.2286 23.667 12.5731 23.6004H12.5842Z" fill="white"/>
</g>
<defs>
<clipPath id="clip0_6177_8534">
<rect width="29.8181" height="46.5907" fill="white" transform="translate(0.63269 1.70508)"/>
</clipPath>
<clipPath id="clip1_6177_8534">
<rect width="25" height="25" fill="white" transform="translate(0.541748 12.2129)"/>
</clipPath>
</defs>
</svg>
