<svg width="31" height="51" viewBox="0 0 31 51" fill="none" xmlns="http://www.w3.org/2000/svg">
<g clip-path="url(#clip0_6177_8437)">
<rect x="1.37814" y="7.50912" width="28.3272" height="39.5089" rx="1.4909" fill="white"/>
<rect x="1.37814" y="7.50912" width="28.3272" height="39.5089" rx="1.4909" stroke="#FFB800" stroke-width="1.4909"/>
<rect width="26.0908" height="40.9998" rx="2.23635" transform="matrix(0.983255 -0.182236 0 1 0.63269 6.76367)" fill="#FFB800"/>
</g>
<path d="M13.762 13.0949C13.5231 13.1116 13.2842 13.1449 13.0398 13.1949C12.762 13.2505 12.4898 13.3283 12.2231 13.4227C11.4398 13.7005 10.712 14.1338 10.062 14.6894C10.0509 14.7005 10.0342 14.7116 10.0231 14.7227C9.78978 14.9283 9.562 15.1449 9.35089 15.3783C9.32311 15.406 9.29533 15.4394 9.26756 15.4727C9.23978 15.5005 9.212 15.5338 9.18978 15.5616C8.79533 16.0227 8.44533 16.5283 8.162 17.0727C7.85089 17.6616 7.60644 18.2894 7.45089 18.9338C7.40089 19.1449 7.35644 19.3616 7.32311 19.5783C7.26756 19.9338 7.23978 20.2949 7.23978 20.656C7.23978 21.1449 7.28977 21.6116 7.38977 22.0449C7.40644 22.1283 7.42866 22.2116 7.45089 22.2949C7.46755 22.356 7.48422 22.4116 7.50089 22.4727C7.79533 23.4449 8.33422 24.256 9.03978 24.8394C9.05089 24.8449 9.05644 24.856 9.06755 24.8616C9.33978 25.0838 9.63978 25.2727 9.95644 25.4227C9.98422 25.4338 10.012 25.4505 10.0398 25.4616C10.0676 25.4727 10.0953 25.4894 10.1231 25.5005C10.1398 25.506 10.1564 25.5116 10.1731 25.5227C11.0176 25.8727 11.9953 25.9783 13.0398 25.7672H13.0676C13.1064 25.756 13.1453 25.7449 13.1898 25.7338C13.2009 25.7338 13.2176 25.7338 13.2287 25.7227C13.2676 25.7116 13.312 25.706 13.3509 25.6949C13.9898 25.5283 14.6064 25.256 15.1787 24.9005C15.5342 24.6783 15.8676 24.4227 16.1842 24.1394C16.2287 24.1005 16.2676 24.0672 16.3064 24.0283C16.3509 23.9894 16.3953 23.9449 16.4342 23.906C16.462 23.8783 16.4898 23.8505 16.5176 23.8283C16.5231 23.8227 16.5287 23.8172 16.5342 23.8116C16.5676 23.7783 16.6009 23.7449 16.6342 23.706C16.6564 23.6838 16.6787 23.656 16.7009 23.6338C16.812 23.5116 16.9231 23.3838 17.0287 23.256C17.0731 23.206 17.112 23.1505 17.1509 23.1005C17.2398 22.9838 17.3287 22.8616 17.4176 22.7394C17.4398 22.7116 17.462 22.6783 17.4787 22.6449C17.4787 22.6449 17.4842 22.6338 17.4898 22.6338C17.512 22.6005 17.5342 22.5727 17.5509 22.5394C17.5676 22.5116 17.5898 22.4783 17.6064 22.4505C17.6231 22.4227 17.6453 22.3894 17.662 22.3616C17.6787 22.3338 17.6953 22.306 17.712 22.2783C17.7287 22.2505 17.7453 22.2227 17.762 22.1894C17.762 22.1838 17.7676 22.1783 17.7731 22.1727C18.4509 21.0116 18.8453 19.6727 18.8453 18.3172C18.8453 15.1116 16.6287 12.9172 13.762 13.106V13.0949ZM13.0064 24.6894C10.2898 25.1727 8.17311 23.2505 8.23422 20.3505C8.29533 17.4672 10.4787 14.7338 13.0953 14.2616C15.762 13.7838 17.8898 15.7283 17.8398 18.5672C17.7898 21.4116 15.6842 24.1394 13.0064 24.6949V24.6894Z" fill="white"/>
<path d="M15.962 21.1398C15.9509 20.262 15.6953 19.5342 15.112 19.012C14.762 18.7009 14.3398 18.5175 13.8453 18.4509C15.062 17.3675 14.9065 16.012 14.362 15.4398C13.7342 14.7842 12.6065 14.9342 11.8953 15.7842C11.5342 16.2175 11.3398 16.712 11.3342 17.2398C11.3287 17.9953 11.662 18.4898 12.2731 18.762C12.1898 18.8175 12.1287 18.8509 12.0731 18.8842C11.2842 19.362 10.7287 20.0564 10.3898 20.9564C10.1398 21.6231 10.1453 22.2731 10.1509 22.9286C10.1509 23.4009 10.3509 23.5731 10.7842 23.4898C11.3065 23.3842 11.8231 23.2786 12.3453 23.1731C13.3398 22.9731 14.3342 22.7731 15.3287 22.5675C15.7676 22.4786 15.962 22.2286 15.9676 21.7509C15.9676 21.5453 15.9676 21.3398 15.9676 21.1398H15.962ZM13.062 16.1398C13.4565 16.0675 13.7676 16.3564 13.7676 16.7842C13.7676 17.2175 13.4509 17.6175 13.0509 17.7009C12.6509 17.7842 12.3287 17.5064 12.3287 17.0786C12.3287 16.6509 12.6676 16.2064 13.062 16.1398ZM14.9176 21.5509L11.1453 22.312C11.112 21.4509 11.3565 20.6953 12.0398 20.1009C12.7342 19.4953 13.4453 19.3786 14.1231 19.7231C14.7342 20.0398 15.0565 20.8231 14.9176 21.5453V21.5509Z" fill="white"/>
<path d="M15.962 21.1398C15.9509 20.262 15.6953 19.5342 15.112 19.012C14.762 18.7009 14.3398 18.5175 13.8453 18.4509C15.062 17.3675 14.9065 16.012 14.362 15.4398C13.7342 14.7842 12.6065 14.9342 11.8953 15.7842C11.5342 16.2175 11.3398 16.712 11.3342 17.2398C11.3287 17.9953 11.662 18.4898 12.2731 18.762C12.1898 18.8175 12.1287 18.8509 12.0731 18.8842C11.2842 19.362 10.7287 20.0564 10.3898 20.9564C10.1398 21.6231 10.1453 22.2731 10.1509 22.9286C10.1509 23.4009 10.3509 23.5731 10.7842 23.4898C11.3065 23.3842 11.8231 23.2786 12.3453 23.1731C13.3398 22.9731 14.3342 22.7731 15.3287 22.5675C15.7676 22.4786 15.962 22.2286 15.9676 21.7509C15.9676 21.5453 15.9676 21.3398 15.9676 21.1398H15.962ZM13.062 16.1398C13.4565 16.0675 13.7676 16.3564 13.7676 16.7842C13.7676 17.2175 13.4509 17.6175 13.0509 17.7009C12.6509 17.7842 12.3287 17.5064 12.3287 17.0786C12.3287 16.6509 12.6676 16.2064 13.062 16.1398ZM14.9176 21.5509L11.1453 22.312C11.112 21.4509 11.3565 20.6953 12.0398 20.1009C12.7342 19.4953 13.4453 19.3786 14.1231 19.7231C14.7342 20.0398 15.0565 20.8231 14.9176 21.5453V21.5509Z" fill="white"/>
<path d="M6.10643 24.7565C6.82865 24.3732 7.37309 24.501 7.85643 24.951C8.60087 25.6454 9.36754 26.3232 10.1286 26.9954C11.0286 27.7954 11.4786 28.8787 11.462 30.2676C11.4564 30.8621 11.462 31.451 11.462 32.051C11.462 32.1787 11.4842 32.2343 11.6009 32.2732C12.3453 32.4954 12.7175 33.2287 12.5509 34.1065C12.3898 34.9565 11.7231 35.6732 10.9175 35.8398C9.45642 36.1398 7.99531 36.4398 6.5342 36.7232C5.52865 36.9176 4.78976 36.2732 4.7342 35.1954C4.70087 34.501 4.86198 33.8565 5.39532 33.2565C5.24532 33.1232 5.11198 32.9898 4.96754 32.8676C4.35087 32.3343 3.85643 31.6898 3.54531 30.8732C3.31198 30.2565 3.17309 29.601 3.17309 28.8898C3.17309 26.4954 3.16754 24.0954 3.17309 21.701C3.17309 20.9232 3.73421 20.151 4.42865 19.9121C5.15643 19.6621 5.8342 19.9843 6.03976 20.6954C6.08976 20.8732 6.11198 21.0676 6.11198 21.2621C6.11754 22.3287 6.11198 23.3954 6.11198 24.4621V24.7454L6.10643 24.7565ZM10.5731 32.2565C10.5731 31.6454 10.5731 31.0621 10.5731 30.4732C10.5842 29.3398 10.2231 28.4454 9.47865 27.7954C8.69531 27.1121 7.92865 26.4065 7.15643 25.7121C7.11198 25.6732 7.06198 25.6287 7.01198 25.5954C6.81198 25.4621 6.54531 25.4954 6.3342 25.6732C6.11198 25.8621 5.98976 26.1621 6.06754 26.4176C6.10643 26.551 6.20087 26.6732 6.29531 26.7621C6.81753 27.2454 7.35087 27.7121 7.87309 28.1898C8.08976 28.3843 8.10087 28.6787 7.91754 28.9176C7.72309 29.1676 7.46198 29.2065 7.23976 29.0065C6.67865 28.5065 6.12309 28.0065 5.56198 27.501C5.34531 27.3065 5.18976 27.0565 5.16754 26.7287C5.15087 26.4621 5.18976 26.1732 5.18976 25.901C5.18976 24.3954 5.18976 22.8954 5.18976 21.3954C5.18976 20.9843 4.93976 20.7565 4.60643 20.8287C4.27309 20.901 4.03976 21.2343 4.03976 21.6454C4.03976 23.9843 4.02865 26.3287 4.03976 28.6676C4.04531 29.7621 4.36754 30.701 4.98976 31.4454C5.25087 31.7565 5.57309 32.0176 5.85643 32.3065C6.07865 32.5343 6.30643 32.6343 6.67865 32.5843C7.6342 32.451 8.57865 32.4176 9.52865 32.3454C9.86198 32.3176 10.1898 32.2898 10.5509 32.2565H10.5731ZM8.72309 35.3232C9.43976 35.1787 10.1564 35.0398 10.8675 34.8898C11.3286 34.7954 11.662 34.4009 11.6786 33.9509C11.7009 33.4732 11.4009 33.1787 10.9398 33.2176C10.4953 33.2565 10.0564 33.2843 9.61198 33.3176C8.61754 33.3954 7.62309 33.4787 6.6342 33.5565C6.30642 33.5843 6.01754 33.751 5.82309 34.0787C5.54531 34.5343 5.55087 34.9843 5.72309 35.3787C5.8842 35.751 6.21754 35.8287 6.61754 35.7454C7.31754 35.601 8.01754 35.4621 8.71754 35.3176L8.72309 35.3232Z" fill="white"/>
<path d="M19.9676 21.9559V21.6837C19.9676 20.567 19.962 19.4559 19.9676 18.3392C19.9731 17.5725 20.4676 16.8448 21.162 16.5503C21.8287 16.267 22.5287 16.517 22.7898 17.1559C22.8676 17.3448 22.9065 17.5781 22.9065 17.8003C22.912 20.1337 22.9176 22.467 22.9065 24.8003C22.9009 26.4614 22.3343 27.9948 21.2676 29.3948C21.0731 29.6503 20.862 29.8781 20.6398 30.1392C21.3287 30.6559 21.4454 31.4114 21.2731 32.2892C21.0954 33.1837 20.3954 33.917 19.5676 34.0892C18.0898 34.4003 16.6176 34.6948 15.1398 34.9837C14.3398 35.1392 13.6676 34.6781 13.5176 33.8948C13.362 33.0725 13.7398 32.1948 14.4787 31.6781C14.5176 31.6503 14.5565 31.6225 14.6065 31.5892C14.6065 30.9337 14.6065 30.2781 14.6065 29.6225C14.5954 28.2503 15.0398 26.9892 15.9343 25.8337C16.6787 24.867 17.4343 23.9114 18.162 22.9281C18.662 22.2559 19.212 21.8503 19.9676 21.9559ZM15.4954 31.2448C15.5898 31.2281 15.6398 31.2225 15.6898 31.2059C16.762 30.8559 17.8343 30.5059 18.912 30.1559C19.2398 30.0503 19.6009 30.0059 19.8731 29.8003C20.162 29.5781 20.362 29.1892 20.6009 28.8781C21.5509 27.6448 22.0176 26.2948 22.0176 24.8337C22.0176 22.5948 22.0176 20.3559 22.0176 18.117C22.0176 18.0003 22.0176 17.8781 21.9843 17.7725C21.8787 17.3948 21.462 17.3059 21.1398 17.5892C20.9343 17.7725 20.862 18.0003 20.862 18.2503C20.862 19.7392 20.862 21.2225 20.862 22.7114C20.862 22.8114 20.8787 22.9114 20.8954 23.0114C20.9676 23.467 20.8898 23.9281 20.5954 24.3392C20.0009 25.1559 19.3787 25.9559 18.7565 26.7448C18.5343 27.0281 18.1565 27.0059 18.0454 26.7225C17.962 26.5059 18.0398 26.3003 18.1954 26.0948C18.7231 25.417 19.2454 24.7392 19.762 24.0503C19.862 23.917 19.9565 23.7448 19.9954 23.5892C20.0676 23.3003 19.9343 23.0503 19.712 22.9614C19.4731 22.867 19.1954 22.967 18.9731 23.2559C18.1231 24.3559 17.2787 25.4559 16.4398 26.5614C16.0287 27.1003 15.7565 27.7003 15.612 28.3503C15.3954 29.3392 15.5343 30.267 15.4843 31.2503L15.4954 31.2448ZM17.3454 33.5781C18.0509 33.4337 18.762 33.2948 19.4676 33.1503C20.1287 33.0114 20.4731 32.5059 20.4454 31.717C20.4231 31.1114 19.9954 30.7948 19.3954 30.9837C17.9454 31.4448 16.4954 31.917 15.0454 32.4003C14.8731 32.4559 14.6898 32.6281 14.5676 32.7892C14.3509 33.0725 14.3287 33.3948 14.4565 33.6725C14.5954 33.9725 14.8509 34.0781 15.1787 34.0114C15.9009 33.867 16.6231 33.7225 17.3454 33.5725V33.5781Z" fill="white"/>
<defs>
<clipPath id="clip0_6177_8437">
<rect width="29.8181" height="46.5907" fill="white" transform="translate(0.63269 1.91797)"/>
</clipPath>
</defs>
</svg>
