<svg width="31" height="50" viewBox="0 0 31 50" fill="none" xmlns="http://www.w3.org/2000/svg">
<g clip-path="url(#clip0_6177_8630)">
<rect x="1.37814" y="7.29623" width="28.3272" height="39.5089" rx="1.4909" fill="white"/>
<rect x="1.37814" y="7.29623" width="28.3272" height="39.5089" rx="1.4909" stroke="#BE54F0" stroke-width="1.4909"/>
<rect width="26.0908" height="40.9998" rx="2.23635" transform="matrix(0.983255 -0.182236 0 1 0.63269 6.55078)" fill="#BE54F0"/>
</g>
<path fill-rule="evenodd" clip-rule="evenodd" d="M10.7746 21.0229L10.4801 21.1396H10.4746L9.56905 19.7896C8.80793 20.034 7.42459 20.3507 6.84681 19.3785C6.65236 20.6563 5.34126 21.4285 4.59682 21.7785L4.21904 23.6396L3.91902 23.7618C3.92458 23.8618 3.90238 23.9674 3.84127 24.0674C3.76905 24.184 3.65791 24.2674 3.54125 24.2952C3.21347 24.4452 3.00792 24.8285 3.06348 25.1729C3.13014 25.534 3.4357 25.7118 3.76348 25.5896C3.87459 25.534 3.96904 25.4785 4.04126 25.4174C4.13015 25.3452 4.23569 25.3118 4.33569 25.3229C4.43569 25.334 4.51348 25.3896 4.56348 25.4785C4.92459 26.1507 5.39125 26.6952 5.97458 26.9896C6.5468 27.2785 7.24125 27.334 8.09681 26.9896C8.97459 26.6396 9.5746 26.0618 9.98015 25.3785C10.3913 24.684 10.619 23.8618 10.719 23.0174C10.7357 22.8896 10.7968 22.7729 10.8913 22.684C10.9857 22.6007 11.1024 22.5563 11.2079 22.5729C11.2468 22.5785 11.3024 22.5729 11.3746 22.534C11.3857 22.5285 11.3968 22.5229 11.4079 22.5174C11.7913 22.3674 12.0024 21.9507 11.9412 21.6285C11.9412 21.6007 11.9357 21.5674 11.9357 21.534C11.8413 21.2229 11.5468 21.0841 11.2413 21.2063C11.2191 21.2174 11.1968 21.2229 11.1746 21.2285H11.1357C10.9746 21.2674 10.8357 21.1841 10.7802 21.0341L10.7746 21.0229ZM4.8357 18.2007C3.48014 19.4785 2.70792 21.4674 3.01348 23.3007C3.03015 23.4174 3.05238 23.5452 3.08016 23.6785C2.53016 24.0729 2.20236 24.7952 2.31347 25.4618C2.45236 26.2563 3.15793 26.6618 3.90237 26.3674C3.91348 26.3674 3.92459 26.3563 3.9357 26.3507C3.97459 26.3341 4.00793 26.3118 4.04682 26.2896C4.4246 26.9118 4.91905 27.4452 5.54683 27.7618C6.28016 28.134 7.16905 28.1896 8.21905 27.7618C9.28572 27.334 10.0524 26.6063 10.5746 25.734C11.019 24.9896 11.269 24.1618 11.4024 23.3452C11.4524 23.3285 11.4968 23.3063 11.5468 23.284C12.2635 22.9896 12.7635 22.184 12.6913 21.434C12.6913 21.3896 12.6913 21.3452 12.6913 21.3007C12.5746 20.634 12.0635 20.2452 11.4579 20.3063C11.4412 20.1729 11.4246 20.034 11.3968 19.9174C11.0857 18.1118 9.79682 16.9618 8.20793 16.8563C8.26348 16.584 8.26902 16.3007 8.22458 16.034C8.04124 14.9618 7.06905 14.4118 6.06349 14.8174C5.05793 15.2229 4.37459 16.4285 4.55792 17.5007C4.60237 17.7729 4.69681 18.0063 4.83014 18.2063L4.8357 18.2007ZM14.8246 18.2229C15.219 15.5952 17.4135 13.4452 19.7357 13.4174C22.0524 13.384 23.6024 15.4896 23.2024 18.1229V18.134C23.1913 18.184 23.1802 18.2396 23.1746 18.2952C23.1579 18.3785 23.1468 18.4674 23.1301 18.5618C23.5968 18.7785 23.8635 19.334 23.7746 20.0063V20.0174C23.6413 20.8674 22.9412 21.5729 22.1801 21.5729C21.8079 22.3452 21.3246 23.0785 20.6968 23.6507C19.9746 24.3118 19.0801 24.7285 18.0246 24.7452C16.0413 24.7674 15.1413 23.284 14.8357 21.6396C14.1024 21.634 13.6024 20.9674 13.7413 20.1118C13.8357 19.4729 14.2579 18.934 14.769 18.6952C14.7857 18.5285 14.8024 18.3729 14.8301 18.2229H14.8246ZM22.6468 19.3285C22.5913 19.3285 22.5413 19.3285 22.4913 19.3063C22.3413 19.2396 22.269 19.0618 22.319 18.8674C22.3635 18.6785 22.3912 18.5063 22.4246 18.3174C22.4357 18.2563 22.4468 18.1952 22.4579 18.1285C22.5801 17.3118 22.4802 16.5618 22.2024 15.9396L16.5024 16.0063C16.0301 16.634 15.6968 17.3952 15.5746 18.2118C15.5413 18.4396 15.5135 18.684 15.4968 18.9452C15.4857 19.1729 15.3135 19.384 15.1079 19.4174C14.8079 19.4674 14.5357 19.7618 14.4857 20.1007V20.1118C14.419 20.4952 14.6413 20.7952 14.9857 20.7952C14.9857 20.7952 15.0246 20.7952 15.0579 20.7896C15.0913 20.784 15.119 20.7785 15.1524 20.7729C15.3413 20.734 15.4968 20.8563 15.5246 21.0507C15.7468 22.6452 16.4857 23.9174 18.1413 23.9007C19.019 23.8896 19.7135 23.5452 20.2801 23.034C20.8524 22.5118 21.3079 21.7896 21.6579 20.9896C21.7524 20.7729 21.969 20.6507 22.1524 20.7063C22.2079 20.7229 22.269 20.734 22.3135 20.734C22.6468 20.734 22.9635 20.434 23.0246 20.0396C23.0746 19.6563 22.8968 19.3952 22.6468 19.334V19.3285ZM9.44124 29.6063C9.78569 26.9674 11.9412 24.7729 14.269 24.684C16.6079 24.5896 18.2024 26.6396 17.8579 29.2674C17.8413 29.4007 17.819 29.534 17.7968 29.6729C18.3468 29.8285 18.6857 30.4063 18.5968 31.1341C18.4857 31.9841 17.7857 32.6952 17.0357 32.7285C16.9857 32.7285 16.9413 32.7285 16.8968 32.7285C16.5413 33.5007 16.0746 34.2452 15.4635 34.8285C14.7468 35.5174 13.8579 35.9674 12.7801 36.0063C11.719 36.0507 10.9413 35.6674 10.4024 35.0285C9.94127 34.4841 9.66346 33.7674 9.50791 33.0063C9.46346 33.0118 9.41903 33.0174 9.38014 33.0229C9.38014 33.0229 9.38014 33.0229 9.37458 33.0229C9.37458 33.0229 9.37458 33.0229 9.36902 33.0229C8.61902 33.0507 8.10237 32.3841 8.20793 31.5285C8.30237 30.8229 8.80236 30.2118 9.40791 30.0063C9.41902 29.8729 9.43014 29.734 9.45237 29.6007L9.44124 29.6063ZM17.3524 30.4785C17.2357 30.5007 17.1301 30.4674 17.0579 30.384C17.0135 30.334 16.9857 30.2618 16.9746 30.1896H16.6857L16.2913 28.6063C15.4135 28.2952 15.3635 27.2507 15.3635 27.2507C13.9746 28.5118 11.9302 28.7952 11.2024 28.8563L10.4079 30.4396H10.1024C10.0468 30.6118 9.90791 30.7507 9.75235 30.7785H9.7135C9.7135 30.7785 9.67459 30.7896 9.65792 30.7952C9.31347 30.8118 8.99683 31.1341 8.94683 31.5118C8.89683 31.8952 9.13016 32.1952 9.46349 32.1896C9.56904 32.1785 9.66347 32.1563 9.71902 32.1341C9.81902 32.0841 9.93015 32.0841 10.019 32.1341C10.1079 32.1785 10.169 32.2674 10.1857 32.3785C10.3079 33.184 10.5635 33.9007 10.9913 34.4063C11.4135 34.9063 12.0135 35.2118 12.8857 35.1729C13.7746 35.1396 14.469 34.7785 15.0246 34.2452C15.5913 33.7007 16.0357 32.9507 16.369 32.1341C16.4135 32.0229 16.4968 31.9285 16.5968 31.8729C16.6968 31.8174 16.8024 31.8118 16.8968 31.8452C16.9968 31.8841 17.0579 31.9007 17.119 31.8952C17.119 31.8952 17.119 31.8952 17.1246 31.8952C17.469 31.8785 17.7857 31.5563 17.8357 31.1785C17.8857 30.7674 17.6579 30.4896 17.3413 30.484L17.3524 30.4785Z" fill="white"/>
<defs>
<clipPath id="clip0_6177_8630">
<rect width="29.8181" height="46.5907" fill="white" transform="translate(0.63269 1.70508)"/>
</clipPath>
</defs>
</svg>
