<svg width="31" height="51" viewBox="0 0 31 51" fill="none" xmlns="http://www.w3.org/2000/svg">
<rect x="0.632751" y="4.71387" width="29.8181" height="40.9998" rx="2.23635" fill="#BACB37"/>
<g clip-path="url(#clip0_6177_8439)">
<path fill-rule="evenodd" clip-rule="evenodd" d="M10.6736 16.028C10.7674 15.7605 11.0475 15.6066 11.3236 15.6707C13.5827 16.1956 15.1442 17.066 16.1974 18.1131C17.2527 19.1624 17.7656 20.3576 17.978 21.4756C18.1891 22.587 18.1035 23.6205 17.9689 24.3694C17.9013 24.7455 17.8206 25.0544 17.7559 25.2715C17.7236 25.3802 17.6951 25.4662 17.6742 25.5265C17.6637 25.5567 17.6551 25.5804 17.6489 25.5974L17.6412 25.6178L17.6388 25.6241L17.638 25.6263L17.6377 25.6271C17.6375 25.6274 17.6374 25.6277 17.2484 25.4758C17.2484 25.4758 17.2484 25.4758 17.2484 25.4758L17.6374 25.6278C17.5461 25.8616 17.3092 26.0052 17.0596 25.9779C14.7663 25.7276 13.1712 24.9952 12.0948 23.985C11.0183 22.9748 10.5097 21.7328 10.3051 20.5527C10.1015 19.3781 10.1956 18.2489 10.3355 17.4234C10.4059 17.0084 10.4887 16.6644 10.5546 16.4224C10.5876 16.3012 10.6164 16.2053 10.6375 16.1384C10.648 16.1049 10.6565 16.0786 10.6627 16.0601L10.6701 16.0381L10.6724 16.0315L10.6731 16.0294L10.6734 16.0286C10.6735 16.0283 10.6736 16.028 11.1978 16.2119L10.6736 16.028ZM16.8614 24.2479C16.8661 24.2232 16.8707 24.1983 16.8753 24.1729C16.9942 23.5111 17.0647 22.6214 16.8864 21.6829C16.7094 20.7509 16.2873 19.7694 15.4139 18.901C14.6113 18.103 13.4008 17.3741 11.5831 16.8814C11.5341 17.0771 11.4793 17.324 11.431 17.609C11.3037 18.3606 11.2251 19.3544 11.3999 20.3629C11.5738 21.366 11.9946 22.3673 12.8551 23.1748C13.5134 23.7926 14.4578 24.3241 15.8122 24.6431C15.3431 23.7858 14.7443 22.8989 14.2037 22.1559C13.8466 21.6649 13.5205 21.2443 13.2839 20.9466C13.1656 20.7979 13.0699 20.6801 13.0041 20.5999C12.9711 20.5597 12.9457 20.529 12.9287 20.5086L12.9096 20.4856L12.9049 20.4801L12.9039 20.4789C12.7063 20.2442 12.7361 19.8935 12.9707 19.6959C13.2054 19.4982 13.5558 19.5282 13.7535 19.7629C13.7535 19.7628 13.7535 19.7629 13.3286 20.1208L13.7535 19.7629L13.7558 19.7656L13.7615 19.7724L13.7829 19.798C13.8014 19.8203 13.8284 19.8529 13.863 19.895C13.9321 19.9792 14.0315 20.1015 14.1536 20.2552C14.3978 20.5623 14.7338 20.9958 15.1023 21.5023C15.6768 22.2921 16.344 23.2783 16.8614 24.2479ZM27.8328 21.4401C27.8331 21.4401 27.8334 21.4401 27.796 21.9944L27.8334 21.4401C28.1161 21.4592 28.3391 21.6879 28.3511 21.9709C28.4775 24.9556 27.9358 27.1782 27.0118 28.8255C26.0863 30.4755 24.799 31.5092 23.502 32.1491C22.2109 32.7861 20.9122 33.0326 19.9437 33.1218C19.4579 33.1666 19.0505 33.1722 18.7622 33.1665C18.6179 33.1636 18.5031 33.1578 18.4228 33.1526C18.3827 33.15 18.3511 33.1476 18.3288 33.1457L18.3022 33.1433L18.2943 33.1426L18.2907 33.1422C18.2904 33.1422 18.2902 33.1422 18.3095 32.9542L18.3094 32.9542L18.29 33.1421C18.0408 33.1164 17.8397 32.9271 17.799 32.6799C17.316 29.7518 17.6741 27.5415 18.5408 25.8844C19.4076 24.2271 20.7517 23.1831 22.1313 22.5301C23.5058 21.8796 24.93 21.6096 25.9995 21.4999C26.5365 21.4448 26.9898 21.4296 27.3108 21.4282C27.4714 21.4276 27.5993 21.4304 27.6883 21.4334C27.7328 21.4349 27.7677 21.4365 27.7921 21.4378L27.8209 21.4394L27.8292 21.4399L27.8318 21.44L27.8328 21.4401ZM19.242 32.0526C19.2905 32.0511 19.3406 32.0491 19.3924 32.0467C19.5312 32.0402 19.6816 32.0302 19.8418 32.0154C20.7219 31.9343 21.8777 31.7115 23.0104 31.1527C24.1371 30.5968 25.2428 29.7081 26.0428 28.2819C26.7941 26.9424 27.2949 25.0945 27.2561 22.5398C26.9691 22.5426 26.5752 22.5578 26.1128 22.6052C25.1179 22.7072 23.8285 22.9561 22.6066 23.5344C21.3898 24.1104 20.2546 25.0051 19.5254 26.3994C18.9553 27.4893 18.6141 28.9212 18.7091 30.8087C18.9487 30.4385 19.2379 30.0132 19.5705 29.5622C20.6024 28.1631 22.0868 26.4694 23.8407 25.4389C24.1052 25.2834 24.4457 25.3719 24.6011 25.6364C24.7565 25.9009 24.6681 26.2414 24.4036 26.3968C24.0811 26.5863 23.7664 26.8029 23.4613 27.0392C22.2903 27.9461 21.2593 29.1444 20.4647 30.2217C19.9681 30.895 19.5724 31.5093 19.3013 31.9547C19.2808 31.9883 19.261 32.021 19.242 32.0526ZM16.3826 34.0317L16.3823 34.036C16.376 34.3013 16.1809 34.5289 15.9134 34.5711C12.9814 35.0332 10.7726 34.659 9.1202 33.7801C7.46772 32.9011 6.43132 31.5491 5.78627 30.1643C5.14358 28.7846 4.88176 27.358 4.77827 26.2872C4.72631 25.7495 4.71374 25.2958 4.71425 24.9747C4.7145 24.814 4.71804 24.6861 4.72161 24.5971C4.72339 24.5525 4.72518 24.5177 4.72658 24.4933L4.72834 24.4645L4.7289 24.4562L4.72908 24.4536L4.72915 24.4526C4.72917 24.4523 4.7292 24.452 5.28326 24.4926L4.7292 24.452C4.74993 24.1692 4.98026 23.9474 5.26361 23.9374C8.24839 23.8317 10.4669 24.3894 12.1077 25.3255C13.7513 26.2632 14.7764 27.5585 15.4083 28.8606C16.0373 30.1567 16.2764 31.4578 16.3613 32.4269C16.4039 32.9132 16.408 33.3204 16.4018 33.6079C16.3987 33.7518 16.3931 33.8656 16.3883 33.9441C16.3863 33.9788 16.3844 34.0066 16.3831 34.0252L16.3831 34.0255L16.383 34.026L16.3826 34.0317ZM5.88423 26.1803C5.8395 25.7175 5.82658 25.3235 5.82543 25.0363C8.37917 25.0154 10.2229 25.5294 11.5571 26.2906C12.9779 27.1011 13.8594 28.2139 14.4087 29.3457C14.9608 30.4834 15.1772 31.6419 15.2544 32.5239C15.276 32.7705 15.2866 32.9941 15.2908 33.1878C13.6877 31.6534 12.2236 30.3829 11.1561 29.4929C10.6162 29.0428 10.1775 28.6897 9.87304 28.4486C9.72081 28.3281 9.60214 28.2355 9.52118 28.1728C9.4807 28.1415 9.44964 28.1176 9.42853 28.1015L9.40438 28.083L9.39554 28.0763C9.15105 27.8909 8.80257 27.9388 8.61719 28.1833C8.43181 28.4278 8.47997 28.7764 8.72443 28.9618L8.73091 28.9667L8.75286 28.9835C8.7725 28.9986 8.80205 29.0213 8.841 29.0514C8.9189 29.1117 9.03437 29.2018 9.18328 29.3197C9.48111 29.5555 9.91256 29.9027 10.4445 30.3463C11.4153 31.1556 12.7195 32.2847 14.1565 33.6425C12.2142 33.7423 10.7499 33.3884 9.642 32.7991C8.25124 32.0594 7.3626 30.9169 6.79347 29.6952C6.22199 28.4683 5.9805 27.1764 5.88423 26.1803Z" fill="white"/>
</g>
<defs>
<clipPath id="clip0_6177_8439">
<rect width="25" height="25" fill="white" transform="translate(4.04175 12.7129)"/>
</clipPath>
</defs>
</svg>
