<svg width="31" height="51" viewBox="0 0 31 51" fill="none" xmlns="http://www.w3.org/2000/svg">
<rect x="0.632736" y="4.71387" width="29.8181" height="40.9998" rx="2.23635" fill="#D1A637"/>
<path d="M24.6416 28.373C24.2191 28.9006 23.7997 29.4168 23.3917 29.9415C23.3394 30.0082 23.3279 30.1205 23.3273 30.2119C23.3237 32.0784 23.3249 33.9449 23.3243 35.8115C23.3243 36.2465 23.248 36.3235 22.8165 36.3235C22.1417 36.3235 21.4674 36.3235 20.7926 36.3235C20.3978 36.3235 20.3148 36.2423 20.3148 35.8559C20.3148 34.7015 20.3148 33.5471 20.3148 32.3927V32.1379C19.8809 32.2821 19.4693 32.4119 19.0655 32.5628C19.0174 32.5808 18.9892 32.7112 18.9886 32.7899C18.9837 33.8091 18.9855 34.8289 18.9849 35.8481C18.9849 36.2423 18.9038 36.3235 18.5138 36.3235C17.8089 36.3235 17.1046 36.3241 16.3997 36.3235C16.083 36.3235 15.9802 36.2243 15.979 35.9082C15.9766 34.9713 15.9736 34.0339 15.9814 33.097C15.9826 32.9221 15.928 32.8699 15.7549 32.8572C15.3973 32.8308 15.0422 32.7755 14.654 32.7274V32.9666C14.654 33.9413 14.654 34.9155 14.654 35.8902C14.654 36.2219 14.5548 36.3229 14.2303 36.3235C13.5104 36.3247 12.791 36.3247 12.0711 36.3235C11.7466 36.3235 11.6438 36.2195 11.6432 35.8908C11.642 34.5038 11.6402 33.1174 11.6462 31.7305C11.6468 31.5778 11.6012 31.4907 11.4702 31.4084C10.826 31.0045 10.243 30.522 9.72564 29.9655C9.62408 29.8561 9.54535 29.8321 9.40053 29.888C7.93122 30.4547 6.32551 29.8002 5.68791 28.3838C5.05031 26.968 5.62661 25.3262 7.02981 24.6117C7.22151 24.5144 7.18786 24.39 7.17704 24.2469C7.02621 22.3083 7.41982 20.485 8.40777 18.8126C9.8909 16.3031 12.0777 14.7551 14.9508 14.2449C19.932 13.3603 24.748 16.6625 25.7516 21.6214C25.9198 22.4543 25.9895 23.2975 25.9132 24.1478C25.9102 24.1844 25.9132 24.2211 25.9132 24.2938C26.1133 24.2938 26.305 24.2938 26.4967 24.2938C26.7665 24.2938 27.0364 24.289 27.3062 24.2962C27.54 24.3028 27.6433 24.414 27.6535 24.6466C27.6553 24.6916 27.6535 24.7367 27.6535 24.7818C27.6535 28.4626 27.6535 32.1433 27.6535 35.8235C27.6535 36.2453 27.576 36.3241 27.1602 36.3241C26.4631 36.3241 25.766 36.3247 25.0689 36.3241C24.745 36.3241 24.6428 36.2201 24.6428 35.8908C24.6422 33.4618 24.6428 31.0334 24.6428 28.6044V28.3736L24.6416 28.373ZM27.0051 35.6823V24.941H25.2828V35.6823H27.0051ZM11.6535 23.1779C11.6913 21.5896 11.9167 20.056 12.4155 18.5873C11.5693 18.312 10.7484 18.0452 9.90832 17.7718C8.59346 19.3156 7.87474 21.1148 7.78099 23.1779H11.6541H11.6535ZM21.4314 23.1749H25.3038C25.2065 21.107 24.4878 19.306 23.1753 17.7712C22.3256 18.0482 21.5053 18.3156 20.6688 18.5885C21.1712 20.0662 21.3917 21.6016 21.4314 23.1749ZM12.2856 23.8275C12.3241 25.3893 12.5453 26.8923 13.0518 28.3153C14.1215 28.2114 15.1684 28.1098 16.2104 28.0088V23.8281H12.2862L12.2856 23.8275ZM16.2182 19.0272C15.1569 18.9244 14.1029 18.8222 13.0374 18.7189C12.5404 20.1515 12.3157 21.6419 12.2881 23.1737H16.2182V19.0272ZM16.8744 19.026V23.1707H20.7986C20.7619 21.6286 20.545 20.1353 20.045 18.7201C18.9705 18.8234 17.9225 18.9244 16.8744 19.0254V19.026ZM20.8395 23.8305H16.8714V28.0551C17.9339 28.0617 18.9819 28.102 19.9939 28.376C20.2601 27.7961 20.3635 27.23 20.316 26.6363C20.3016 26.4542 20.3299 26.2931 20.5228 26.2048C20.5576 26.1886 20.5871 26.1267 20.5919 26.0828C20.676 25.3407 20.7559 24.5979 20.8395 23.8299V23.8305ZM20.9536 35.6799H22.6777V26.8412H20.9536V35.6799ZM16.6263 28.7288V35.6787H18.3389V28.7288H16.6263ZM8.33746 24.9254C7.08269 24.923 6.06109 25.9428 6.0623 27.197C6.0635 28.4475 7.09652 29.4763 8.34167 29.4679C9.58862 29.4589 10.6018 28.4457 10.6054 27.2042C10.6084 25.9476 9.59403 24.9284 8.33746 24.926V24.9254ZM21.2481 26.197C21.7925 26.197 22.3382 26.197 22.8839 26.197C23.227 26.197 23.3237 26.2925 23.3243 26.6363C23.3255 27.3478 23.3243 28.0593 23.3249 28.7702C23.3249 28.8411 23.331 28.9121 23.3364 29.025C23.4103 28.9385 23.4662 28.8898 23.5028 28.8291C23.8502 28.254 24.2029 27.6819 24.5322 27.0966C24.611 26.956 24.6332 26.7697 24.6368 26.6038C24.6488 26.0053 24.6416 25.4056 24.6416 24.807C24.6416 24.3671 24.6963 24.3118 25.144 24.2926C25.1807 24.2908 25.2167 24.283 25.2684 24.2758C25.2798 24.1274 25.2906 23.9825 25.302 23.8287H21.456C21.3869 24.6153 21.319 25.3893 21.2481 26.197ZM14.0182 30.6325H12.2862V35.6787H14.0182V30.6325ZM7.81765 24.3281C9.11688 24.1802 10.1487 24.6027 10.8145 25.7078C11.4834 26.8178 11.3542 27.9295 10.6228 28.9992C11.2412 28.8171 11.8325 28.6434 12.3878 28.48C12.2117 27.706 12.0026 26.947 11.874 26.1748C11.7454 25.4026 11.6973 24.6171 11.6126 23.8293H7.77558C7.7894 23.9976 7.80262 24.1514 7.81705 24.3275L7.81765 24.3281ZM16.2212 15.0928C15.1882 15.1313 13.4857 16.8968 13.3265 18.0843C14.2826 18.2483 15.2441 18.3463 16.2212 18.3451V15.0928ZM16.8726 15.0381V18.3493C17.8588 18.3361 18.8215 18.255 19.8413 18.0639C19.5432 17.5525 19.2878 17.0705 18.991 16.6162C18.6436 16.0844 18.2043 15.6312 17.6328 15.335C17.3991 15.2142 17.1413 15.1403 16.8726 15.0375V15.0381ZM13.2862 28.9271C13.38 29.1272 13.4479 29.2834 13.5254 29.4349C13.6065 29.5947 13.6882 29.7558 13.7874 29.9042C13.8193 29.9523 13.9076 29.9829 13.9713 29.9859C14.6552 30.0172 14.672 30.0154 14.6473 30.7035C14.6371 30.9937 14.7363 31.1788 14.9586 31.3411C15.2651 31.5652 15.5752 31.7731 15.955 31.8657V28.6573C15.0584 28.748 14.1894 28.8351 13.2862 28.9265V28.9271ZM22.6699 17.2646C21.8202 16.2376 19.1634 14.8506 18.2446 14.9335C18.4772 15.1427 18.7265 15.3446 18.9489 15.573C19.5612 16.2033 19.9957 16.9515 20.3389 17.755C20.4038 17.907 20.4747 17.9581 20.6387 17.9082C20.9957 17.7994 21.3611 17.7165 21.7168 17.6047C22.0347 17.505 22.3454 17.3818 22.6699 17.2646ZM10.4011 17.2472C10.5369 17.3025 10.6373 17.3523 10.7424 17.3848C11.3067 17.5585 11.8752 17.7195 12.4365 17.9028C12.6192 17.9623 12.6841 17.8998 12.7508 17.7436C13.0975 16.9317 13.541 16.1787 14.1624 15.5441C14.3781 15.3236 14.6221 15.1307 14.8925 14.8897C13.1462 15.2418 11.6829 16.0201 10.4005 17.2478L10.4011 17.2472ZM12.6528 29.0623C12.1096 29.2227 11.5801 29.3742 11.0537 29.537C10.8488 29.6001 10.6505 29.6879 10.3945 29.7852C10.8163 30.129 11.2046 30.4451 11.633 30.7942C11.639 30.677 11.6426 30.6271 11.6432 30.5779C11.6505 30.0328 11.6931 29.9901 12.2322 29.9901C12.5098 29.9901 12.7874 29.9901 13.0891 29.9901C12.9371 29.6674 12.8043 29.3856 12.6522 29.0635L12.6528 29.0623ZM19.0114 31.939C19.4236 31.7761 19.813 31.6283 20.1952 31.4631C20.2535 31.4378 20.3082 31.3308 20.31 31.2605C20.3196 30.7521 20.3154 30.2437 20.3154 29.7347C20.3154 29.6356 20.3154 29.537 20.3154 29.4379C20.2403 29.492 20.2145 29.5527 20.1796 29.6079C19.8575 30.1187 19.5612 30.6494 19.1989 31.1295C19.0114 31.3777 18.9537 31.6037 19.012 31.9378L19.0114 31.939ZM18.9982 30.2942C19.0192 30.3056 19.0402 30.3171 19.0613 30.3285C19.3052 29.8808 19.5486 29.4331 19.807 28.9583C19.5108 28.9145 19.2626 28.8784 18.9982 28.8393V30.2948V30.2942Z" fill="white"/>
<path d="M8.34353 30.5195C9.94263 30.5225 11.2377 31.826 11.2353 33.4305C11.2329 35.0272 9.9246 36.3276 8.3243 36.3234C6.7282 36.3198 5.42956 35.0122 5.43196 33.4113C5.43437 31.8134 6.74021 30.5171 8.34413 30.5201L8.34353 30.5195ZM10.6049 33.4383C10.6115 32.1829 9.6013 31.1571 8.35134 31.1499C7.09657 31.1427 6.07016 32.1535 6.06235 33.4034C6.05454 34.6552 7.06893 35.6852 8.31709 35.693C9.56885 35.7009 10.5989 34.6865 10.6055 33.4383H10.6049Z" fill="white"/>
<path d="M8.01835 34.5596H7.82725C7.69564 34.5596 7.58928 34.52 7.50995 34.44C7.43063 34.3607 7.39037 34.2562 7.39037 34.1263V32.6054C7.39037 32.4756 7.43003 32.371 7.50995 32.2917C7.58928 32.2123 7.69504 32.1721 7.82725 32.1721H8.01835V31.9678C8.01835 31.8951 8.04058 31.8362 8.08505 31.7923C8.12952 31.7484 8.18782 31.7256 8.26053 31.7256C8.33805 31.7256 8.39875 31.7478 8.44322 31.7923C8.48769 31.8368 8.50992 31.8951 8.50992 31.9678V32.1721H8.52014C8.7521 32.1721 8.93358 32.2232 9.06399 32.3253C9.19499 32.4275 9.2599 32.5711 9.2599 32.755C9.2599 32.8229 9.24968 32.8896 9.22925 32.9545C9.20881 33.0194 9.17997 33.0777 9.14211 33.13C9.10485 33.1823 9.05858 33.2261 9.00389 33.2616C8.94921 33.297 8.88671 33.3199 8.8164 33.3313C8.89813 33.3361 8.97325 33.3541 9.04175 33.386C9.11026 33.4178 9.16795 33.4599 9.21603 33.5122C9.2635 33.5645 9.30136 33.6264 9.3284 33.6979C9.35544 33.7694 9.36927 33.8463 9.36927 33.928C9.36927 34.0284 9.34944 34.1173 9.30977 34.1961C9.27011 34.2748 9.21422 34.3403 9.14271 34.3938C9.0712 34.4473 8.98406 34.4881 8.8819 34.5164C8.77974 34.5446 8.66496 34.559 8.53756 34.559H8.51052V34.7844C8.51052 34.8571 8.48829 34.916 8.44382 34.9599C8.39935 35.0037 8.34106 35.0266 8.26834 35.0266C8.19082 35.0266 8.13012 35.0043 8.08566 34.9599C8.04119 34.9154 8.01895 34.8571 8.01895 34.7844V34.559L8.01835 34.5596ZM7.94984 33.1648H8.33505C8.45103 33.1648 8.53997 33.142 8.60307 33.0963C8.66556 33.0507 8.69681 32.9804 8.69681 32.8848C8.69681 32.7893 8.66616 32.7225 8.60487 32.6787C8.54357 32.6342 8.45463 32.612 8.33865 32.612H7.94984V33.1648ZM7.94984 34.1197H8.3693C8.50812 34.1197 8.61148 34.0975 8.67939 34.053C8.74729 34.0086 8.78155 33.9352 8.78155 33.8331C8.78155 33.7309 8.74669 33.6582 8.67758 33.6149C8.60847 33.5717 8.50511 33.55 8.3687 33.55H7.94924V34.1197H7.94984Z" fill="white"/>
<path d="M8.01835 28.3799H7.82725C7.69564 28.3799 7.58928 28.3403 7.50995 28.2604C7.43063 28.181 7.39037 28.0765 7.39037 27.9467V26.4257C7.39037 26.2959 7.43003 26.1913 7.50995 26.112C7.58928 26.0327 7.69504 25.9924 7.82725 25.9924H8.01835V25.7881C8.01835 25.7154 8.04058 25.6565 8.08505 25.6126C8.12952 25.5687 8.18782 25.5459 8.26053 25.5459C8.33805 25.5459 8.39875 25.5681 8.44322 25.6126C8.48769 25.6571 8.50992 25.7154 8.50992 25.7881V25.9924H8.52014C8.7521 25.9924 8.93358 26.0435 9.06399 26.1456C9.19499 26.2478 9.2599 26.3914 9.2599 26.5753C9.2599 26.6432 9.24968 26.7099 9.22925 26.7748C9.20881 26.8397 9.17997 26.898 9.14211 26.9503C9.10485 27.0026 9.05858 27.0464 9.00389 27.0819C8.94921 27.1174 8.88671 27.1402 8.8164 27.1516C8.89813 27.1564 8.97325 27.1745 9.04175 27.2063C9.11026 27.2382 9.16795 27.2802 9.21603 27.3325C9.2635 27.3848 9.30136 27.4467 9.3284 27.5182C9.35544 27.5897 9.36927 27.6666 9.36927 27.7483C9.36927 27.8487 9.34944 27.9376 9.30977 28.0164C9.27011 28.0951 9.21422 28.1606 9.14271 28.2141C9.0712 28.2676 8.98406 28.3084 8.8819 28.3367C8.77974 28.3649 8.66496 28.3793 8.53756 28.3793H8.51052V28.6047C8.51052 28.6774 8.48829 28.7363 8.44382 28.7802C8.39935 28.824 8.34106 28.8469 8.26834 28.8469C8.19082 28.8469 8.13012 28.8246 8.08566 28.7802C8.04119 28.7357 8.01895 28.6774 8.01895 28.6047V28.3793L8.01835 28.3799ZM7.94984 26.9846H8.33505C8.45103 26.9846 8.53997 26.9617 8.60307 26.916C8.66556 26.8704 8.69681 26.8001 8.69681 26.7045C8.69681 26.609 8.66616 26.5423 8.60487 26.4984C8.54357 26.4539 8.45463 26.4317 8.33865 26.4317H7.94984V26.9846ZM7.94984 27.9394H8.3693C8.50812 27.9394 8.61148 27.9172 8.67939 27.8727C8.74729 27.8283 8.78155 27.755 8.78155 27.6528C8.78155 27.5506 8.74669 27.4779 8.67758 27.4347C8.60847 27.3914 8.50511 27.3698 8.3687 27.3698H7.94924V27.9394H7.94984Z" fill="white"/>
</svg>
