<svg width="31" height="51" viewBox="0 0 31 51" fill="none" xmlns="http://www.w3.org/2000/svg">
<rect x="0.632751" y="4.71387" width="29.8181" height="40.9998" rx="2.23635" fill="#FF2828"/>
<path d="M21.5395 14.1016C21.8434 14.1016 22.1474 14.1016 22.4508 14.1016C22.6779 14.1402 22.9069 14.1721 23.1325 14.218C25.6503 14.7306 27.4984 16.9368 27.582 19.4821C27.6588 21.8128 26.2982 23.9489 24.1254 24.8273C23.9553 24.8959 23.909 24.9853 23.9094 25.1607C23.9152 27.3953 23.9094 29.6299 23.9152 31.8651C23.9172 32.6347 23.6606 33.2609 22.9972 33.6943C22.9407 33.731 22.9021 33.8349 22.9006 33.9088C22.8905 34.3137 22.905 34.7191 22.8919 35.1235C22.8692 35.828 22.3754 36.3077 21.6695 36.3203C21.3081 36.3266 20.9462 36.3227 20.5848 36.3213C20.3679 36.3203 20.1495 36.3319 19.9345 36.3087C19.2943 36.2401 18.8715 35.7313 18.8609 35.0274C18.8556 34.6974 18.8599 34.3674 18.8599 34.0287H10.5988C10.5988 34.3625 10.6012 34.6858 10.5988 35.0095C10.592 35.797 10.0823 36.3092 9.29134 36.3179C8.79948 36.3232 8.30762 36.3222 7.81576 36.3179C7.01999 36.3111 6.52089 35.8091 6.51412 35.0114C6.51074 34.65 6.52185 34.2876 6.50736 33.9267C6.50349 33.8359 6.44938 33.717 6.37884 33.6639C5.79856 33.2319 5.499 32.6618 5.499 31.9385C5.49803 27.5557 5.49803 23.173 5.49948 18.7902C5.49948 18.3239 5.61447 17.8905 5.90437 17.5132C6.34405 16.9406 6.93882 16.7044 7.64424 16.7092C10.7756 16.7309 13.907 16.7522 17.0384 16.7783C17.1901 16.7797 17.2858 16.7435 17.3751 16.6097C18.1907 15.3921 19.3121 14.6045 20.7375 14.2581C21.0018 14.1938 21.2719 14.1528 21.5395 14.1016ZM6.47498 26.9035C6.47305 26.9291 6.46532 26.9779 6.46532 27.0267C6.46484 28.668 6.46387 30.3093 6.46677 31.9511C6.46677 32.0656 6.47692 32.1839 6.50736 32.2931C6.64602 32.7932 7.04512 33.057 7.65245 33.057C12.3599 33.057 17.0669 33.0575 21.7743 33.057C22.545 33.057 22.946 32.6531 22.947 31.8767C22.9484 30.3073 22.9475 28.7385 22.947 27.1692C22.947 27.0929 22.9388 27.017 22.9325 26.903H6.47498V26.9035ZM14.193 20.2015H6.48078V25.9057H14.193V20.2015ZM21.9942 24.2886C24.5646 24.2804 26.5867 22.2361 26.633 19.7241C26.6794 17.2189 24.6405 15.1123 22.0787 15.0592C19.5673 15.007 17.4694 17.0435 17.4133 19.5869C17.3573 22.1482 19.387 24.2316 21.9937 24.2886H21.9942ZM15.1695 20.2305V25.9318H22.9393V25.1761C21.3458 25.4013 19.9021 25.0626 18.6348 24.091C17.3689 23.1203 16.6654 21.8138 16.4711 20.2305H15.1695ZM6.45614 19.2197H16.4228C16.5291 18.7433 16.6398 18.2476 16.7533 17.7393C16.7258 17.735 16.692 17.7253 16.6581 17.7253C13.6065 17.7055 10.5548 17.6823 7.50316 17.6707C6.99632 17.6688 6.58466 18.0021 6.49576 18.466C6.45179 18.696 6.4687 18.938 6.45614 19.2197ZM7.47465 34.0296C7.47465 34.3939 7.4732 34.7336 7.47513 35.0737C7.4761 35.2598 7.58143 35.3583 7.75923 35.3603C8.28733 35.3661 8.81543 35.3651 9.34304 35.3603C9.4962 35.3588 9.62183 35.2805 9.62763 35.1187C9.64019 34.7597 9.63149 34.3997 9.63149 34.0296H7.47465ZM19.8272 34.0258C19.8272 34.4031 19.8224 34.7558 19.8291 35.1081C19.8325 35.2714 19.9364 35.3593 20.0958 35.3607C20.622 35.3646 21.1491 35.3709 21.6748 35.3535C21.7613 35.3506 21.9116 35.2361 21.9164 35.1655C21.9406 34.7887 21.928 34.4089 21.928 34.0263H19.8272V34.0258Z" fill="white"/>
<path d="M8.90431 31.5116C8.50667 31.5116 8.10951 31.514 7.71186 31.5111C7.32195 31.5082 7.1369 31.3284 7.134 30.9438C7.12965 30.409 7.12965 29.8741 7.134 29.3397C7.13738 28.9692 7.3263 28.7773 7.69688 28.7749C8.50618 28.7701 9.31548 28.7706 10.1253 28.7749C10.4997 28.7769 10.6877 28.9658 10.6901 29.3354C10.6939 29.8775 10.6939 30.4196 10.6901 30.9612C10.6872 31.3241 10.5045 31.5063 10.1402 31.5106C9.72859 31.5154 9.31645 31.5116 8.90431 31.5116ZM8.10612 29.7422V30.5332H9.71506V29.7422H8.10612Z" fill="white"/>
<path d="M20.4882 31.5121C20.0905 31.5121 19.6934 31.5145 19.2957 31.5116C18.9048 31.5087 18.7217 31.3294 18.7193 30.9439C18.7159 30.409 18.7154 29.8741 18.7193 29.3398C18.7222 28.9687 18.9092 28.7778 19.2812 28.7759C20.0905 28.7711 20.8998 28.7716 21.7091 28.7759C22.0821 28.7778 22.272 28.9682 22.2749 29.3369C22.2793 29.879 22.2797 30.4211 22.2749 30.9627C22.2715 31.3241 22.0855 31.5072 21.7236 31.5116C21.312 31.5164 20.8998 31.5125 20.4877 31.5125L20.4882 31.5121ZM21.3521 30.5452V29.7519H19.6924V30.5452H21.3521Z" fill="white"/>
<path d="M14.7192 28.9707C15.4927 28.9707 16.2668 28.9707 17.0403 28.9707C17.2413 28.9707 17.4288 28.9944 17.5549 29.1824C17.7399 29.4587 17.6051 29.8245 17.2819 29.9023C17.1988 29.9221 17.1109 29.9318 17.0249 29.9318C15.4845 29.9337 13.9442 29.9337 12.4039 29.9322C12.0555 29.9322 11.8647 29.8052 11.8106 29.5472C11.7516 29.2684 11.9193 29.0147 12.2038 28.9877C12.4406 28.9649 12.6802 28.9727 12.9184 28.9717C13.5185 28.9698 14.1186 28.9712 14.7192 28.9712V28.9707Z" fill="white"/>
<path d="M14.7038 31.6109C13.9302 31.6109 13.1562 31.6128 12.3827 31.6099C12.0348 31.6085 11.8531 31.4775 11.8062 31.2084C11.7642 30.9659 11.9034 30.7378 12.1411 30.6808C12.245 30.6557 12.3551 30.6484 12.4629 30.6479C13.967 30.646 15.471 30.646 16.9756 30.6479C17.0829 30.6479 17.193 30.6561 17.2974 30.6813C17.51 30.732 17.6462 30.9282 17.6385 31.149C17.6308 31.3683 17.4791 31.5519 17.2626 31.5901C17.1708 31.6065 17.0756 31.6094 16.9819 31.6099C16.2224 31.6114 15.4633 31.6109 14.7038 31.6109Z" fill="white"/>
<path d="M22.7952 18.9027C23.274 19.0539 23.677 19.2868 24.0128 19.6279C24.5694 20.1937 24.8138 20.8846 24.8259 21.6674C24.8288 21.8481 24.8288 22.0288 24.8259 22.2095C24.8192 22.6317 24.6351 22.8173 24.2142 22.8183C23.2595 22.8202 22.3053 22.8187 21.3505 22.8187C20.8514 22.8187 20.3528 22.8207 19.8537 22.8183C19.4343 22.8163 19.2483 22.6289 19.2444 22.2075C19.2391 21.6292 19.2319 21.0513 19.472 20.5039C19.7972 19.7642 20.3335 19.2515 21.0896 18.9674C21.1437 18.9471 21.1974 18.9264 21.28 18.8945C20.6978 18.5423 20.3736 18.047 20.3813 17.3769C20.3866 16.9092 20.5722 16.5077 20.92 16.1878C21.6037 15.5597 22.6845 15.6317 23.2885 16.3255C23.8142 16.9295 23.9611 18.1606 22.7947 18.9022L22.7952 18.9027ZM20.2112 21.8456H23.8287C23.9654 21.2325 23.6518 20.4754 23.0677 20.0879C22.4188 19.6574 21.7322 19.6371 21.0679 20.0478C20.4156 20.4512 20.1789 21.0764 20.2107 21.8456H20.2112ZM22.7208 17.415C22.7227 17.0333 22.4217 16.7231 22.0429 16.7154C21.6655 16.7077 21.3355 17.0367 21.3394 17.4175C21.3433 17.7977 21.6506 18.0992 22.0337 18.0992C22.4178 18.0992 22.7193 17.7992 22.7208 17.415Z" fill="white"/>
</svg>
