<svg width="31" height="51" viewBox="0 0 31 51" fill="none" xmlns="http://www.w3.org/2000/svg">
<g clip-path="url(#clip0_6177_8470)">
<rect x="0.878147" y="7.50912" width="28.3272" height="39.5089" rx="1.4909" fill="white"/>
<rect x="0.878147" y="7.50912" width="28.3272" height="39.5089" rx="1.4909" stroke="#32C1FF" stroke-width="1.4909"/>
<rect width="26.0908" height="40.9998" rx="2.23635" transform="matrix(0.983255 -0.182236 0 1 0.132696 6.76367)" fill="#32C1FF"/>
</g>
<path d="M3.32294 26.877C3.32294 24.0937 3.32294 21.3103 3.32294 18.5214C3.32294 17.777 3.6785 17.1437 4.2785 16.8437C4.43405 16.7659 4.60072 16.7159 4.76739 16.6825C5.71183 16.4825 6.66183 16.2937 7.60627 16.1103C7.7396 16.0825 7.81183 16.0325 7.87294 15.8825C8.11183 15.3214 8.51183 14.977 9.03405 14.8603C9.35627 14.7881 9.6785 14.7381 10.0007 14.6548C10.0785 14.6325 10.1785 14.5548 10.2285 14.477C10.9563 13.227 12.3785 12.9381 13.1063 13.8937C13.1563 13.9603 13.2674 13.9937 13.3507 13.977C13.6674 13.927 13.9785 13.8492 14.2952 13.7937C14.8174 13.7048 15.2174 13.8825 15.4563 14.3437C15.5174 14.4659 15.5896 14.4937 15.7229 14.4659C16.6618 14.2714 17.6007 14.0825 18.5396 13.8937C19.4674 13.7048 20.0063 14.1937 20.0063 15.2159C20.0063 19.9548 20.0063 24.6937 20.0063 29.4325C20.0063 29.6103 20.0507 29.7325 20.1674 29.8325C20.5674 30.177 20.9618 30.527 21.3452 30.8881C22.1396 31.6492 21.7396 33.2159 20.6118 33.7214C20.1174 33.9437 19.6729 33.8992 19.3007 33.5881C19.2063 33.5103 19.1285 33.4825 18.9952 33.5603C18.8618 33.6325 18.7118 33.6714 18.5674 33.6992C13.9674 34.6325 9.36739 35.5603 4.76739 36.4881C3.86739 36.6714 3.32294 36.177 3.32294 35.1825C3.32294 32.4159 3.32294 29.6437 3.32294 26.877ZM17.3729 21.4937V17.6325C17.3729 17.1881 17.2285 17.0603 16.8285 17.1437L6.50072 19.2325C6.09516 19.3159 5.95072 19.4992 5.95072 19.9381V32.277C5.95072 32.727 6.0896 32.8437 6.49516 32.7603L10.8563 31.877L11.1174 31.827C9.75072 31.1603 8.93405 30.0325 8.66738 28.4103C8.40072 26.7881 8.76183 25.1825 9.71738 23.6492C11.5118 20.7714 15.0285 19.5992 17.3729 21.4992V21.4937ZM9.4785 27.2603C9.4785 29.9048 11.4118 31.6325 13.8285 31.1381C16.1896 30.6603 18.1229 28.1214 18.1285 25.5159C18.1285 22.8659 16.1952 21.1325 13.7841 21.627C11.4007 22.1159 9.4785 24.627 9.4785 27.2603ZM7.69516 17.0603C6.70627 17.2603 5.72294 17.4603 4.74516 17.6548C4.35627 17.7325 4.20627 17.9214 4.20627 18.3492C4.20627 23.9103 4.20627 29.477 4.20627 35.0381C4.20627 35.4659 4.35072 35.5992 4.73961 35.5214C9.21183 34.6159 13.6841 33.7159 18.1563 32.8103C18.2118 32.7992 18.2674 32.777 18.3618 32.7492C17.9285 32.3603 17.5229 31.9992 17.1174 31.6437C17.0674 31.5992 16.9729 31.6048 16.8952 31.6159C13.4118 32.3159 9.92849 33.0214 6.44516 33.727C5.61738 33.8937 5.08405 33.4048 5.08405 32.4992C5.08405 28.3548 5.08405 24.2103 5.08405 20.0659C5.08405 19.1437 5.62294 18.4437 6.46183 18.2714C6.90072 18.1825 7.33961 18.0937 7.76183 18.0103C7.73961 17.6937 7.72294 17.3937 7.70072 17.0603H7.69516ZM11.6618 17.2214C12.5174 17.0492 13.3729 16.877 14.2341 16.6992C14.5674 16.6325 14.7396 16.4103 14.7452 16.0381C14.7452 15.7825 14.7452 15.527 14.7452 15.2659C14.7452 14.8381 14.584 14.6937 14.1952 14.7659C13.784 14.8492 13.3729 14.927 12.9618 15.0159C12.7285 15.0659 12.5729 14.9937 12.4841 14.7714C12.3341 14.4103 12.0618 14.2437 11.6729 14.3159C11.2841 14.3937 11.0118 14.6659 10.8563 15.0881C10.7618 15.3548 10.6007 15.4937 10.3618 15.5381C9.94516 15.6159 9.5285 15.6992 9.10628 15.7937C8.76183 15.8659 8.59516 16.0881 8.58961 16.4714C8.58961 16.727 8.58961 16.9825 8.58961 17.2381C8.58961 17.6492 8.75627 17.7937 9.12849 17.7214C9.97294 17.5548 10.8118 17.3825 11.6563 17.2103L11.6618 17.2214ZM19.0674 28.8714C19.0674 28.8714 19.1007 28.8437 19.1118 28.827C19.1118 28.7603 19.1229 28.6992 19.1229 28.6325C19.1229 24.2048 19.1229 19.777 19.1229 15.3492C19.1229 14.9103 18.9785 14.777 18.5785 14.8603C17.6618 15.0437 16.7396 15.2325 15.8229 15.4159C15.7563 15.427 15.6896 15.4492 15.6341 15.4659C15.6118 15.7992 15.5952 16.1048 15.5729 16.427L16.7952 16.177C17.7341 15.9881 18.2507 16.4492 18.2507 17.4714C18.2507 19.027 18.2507 20.577 18.2507 22.1325C18.2507 22.4048 18.2896 22.6381 18.4118 22.8492C18.5341 23.0603 18.6229 23.2937 18.7007 23.5381C19.1507 24.9548 19.0618 26.4492 18.4341 28.0103C18.4063 28.077 18.3841 28.1992 18.4118 28.2325C18.6229 28.4548 18.8452 28.6548 19.0674 28.8659V28.8714ZM17.0952 30.2437C17.0952 30.2437 17.1229 30.2714 17.1507 30.2992C18.0396 31.0992 18.9341 31.8992 19.8229 32.7048C19.9952 32.8603 20.184 32.9381 20.4285 32.8159C20.8952 32.5937 21.0285 31.977 20.6674 31.6492C19.9452 30.9881 19.2118 30.3437 18.4896 29.6881C18.2896 29.5048 18.0952 29.3103 17.9285 29.1548C17.6396 29.5325 17.3729 29.8825 17.0952 30.2437Z" fill="white"/>
<path d="M13.2063 27.1157C13.5896 26.6157 13.9563 26.138 14.323 25.6602C14.6119 25.2824 14.9008 24.8991 15.1952 24.5268C15.4174 24.2435 15.6841 24.1768 15.8674 24.3491C16.0452 24.5157 16.0341 24.8046 15.8174 25.0824C15.0674 26.0602 14.3174 27.038 13.5619 28.0157C13.3285 28.3213 13.0952 28.3657 12.8619 28.1602C12.4952 27.838 12.1341 27.5102 11.773 27.1824C11.5674 26.9935 11.5508 26.7046 11.7285 26.4713C11.9174 26.2213 12.173 26.1824 12.4008 26.3824C12.6674 26.6213 12.9285 26.8657 13.2063 27.1213V27.1157Z" fill="white"/>
<defs>
<clipPath id="clip0_6177_8470">
<rect width="29.8181" height="46.5907" fill="white" transform="translate(0.132696 1.91797)"/>
</clipPath>
</defs>
</svg>
