<svg width="261" height="191" viewBox="0 0 261 191" fill="none" xmlns="http://www.w3.org/2000/svg">
<path opacity="0.5" fill-rule="evenodd" clip-rule="evenodd" d="M0.514648 156.182C0.514648 161.184 4.56988 165.239 9.57157 165.239V165.239C14.5733 165.239 18.6285 161.184 18.6285 156.182V156.182C18.6285 151.181 14.5733 147.126 9.57157 147.126V147.126C4.56988 147.126 0.514648 151.181 0.514648 156.182V156.182Z" fill="#ACA500" stroke="#828282" stroke-width="0.933333"/>
<path opacity="0.5" fill-rule="evenodd" clip-rule="evenodd" d="M24.6533 156.182C24.6533 161.184 28.7083 165.239 33.71 165.239V165.239C38.7117 165.239 42.7667 161.184 42.7667 156.182V156.182C42.7667 151.181 38.7117 147.126 33.71 147.126V147.126C28.7083 147.126 24.6533 151.181 24.6533 156.182V156.182Z" fill="#ACA500" stroke="#828282" stroke-width="0.933333"/>
<path opacity="0.5" fill-rule="evenodd" clip-rule="evenodd" d="M0.514648 83.2029C0.514648 88.2045 4.57003 92.2591 9.57162 92.2591V92.2591C14.5732 92.2591 18.6286 88.2045 18.6286 83.2029V83.2029C18.6286 78.2013 14.5732 74.1467 9.57162 74.1467V74.1467C4.57003 74.1467 0.514648 78.2013 0.514648 83.2029V83.2029Z" fill="#EFE602" stroke="#828282" stroke-width="0.933333"/>
<path opacity="0.5" fill-rule="evenodd" clip-rule="evenodd" d="M145.44 131.855C145.44 136.857 149.496 140.912 154.497 140.912V140.912C159.499 140.912 163.554 136.857 163.554 131.855V131.855C163.554 126.854 159.499 122.799 154.497 122.799V122.799C149.496 122.799 145.44 126.854 145.44 131.855V131.855Z" fill="#FFF846" stroke="#828282" stroke-width="0.933333"/>
<path opacity="0.5" fill-rule="evenodd" clip-rule="evenodd" d="M217.764 34.5503C217.764 39.5519 221.819 43.6065 226.82 43.6065V43.6065C231.822 43.6065 235.877 39.5519 235.877 34.5503V34.5503C235.877 29.5487 231.822 25.4941 226.82 25.4941V25.4941C221.819 25.4941 217.764 29.5487 217.764 34.5503V34.5503Z" fill="#EFE602" stroke="#828282" stroke-width="0.933333"/>
<path opacity="0.5" fill-rule="evenodd" clip-rule="evenodd" d="M193.624 58.8767C193.624 63.8783 197.679 67.9329 202.681 67.9329V67.9329C207.682 67.9329 211.738 63.8783 211.738 58.8767V58.8767C211.738 53.8751 207.682 49.8206 202.681 49.8206V49.8206C197.679 49.8206 193.624 53.8751 193.624 58.8767V58.8767Z" fill="#EFE602" stroke="#828282" stroke-width="0.933333"/>
<path opacity="0.5" fill-rule="evenodd" clip-rule="evenodd" d="M241.902 83.2029C241.902 88.2045 245.957 92.2591 250.959 92.2591V92.2591C255.961 92.2591 260.016 88.2045 260.016 83.2029V83.2029C260.016 78.2013 255.961 74.1467 250.959 74.1467V74.1467C245.957 74.1467 241.902 78.2013 241.902 83.2029V83.2029Z" fill="#FFFCAF" stroke="#828282" stroke-width="0.933333"/>
<path opacity="0.5" fill-rule="evenodd" clip-rule="evenodd" d="M217.764 58.8767C217.764 63.8783 221.819 67.9329 226.82 67.9329V67.9329C231.822 67.9329 235.877 63.8783 235.877 58.8767V58.8767C235.877 53.8751 231.822 49.8206 226.82 49.8206V49.8206C221.819 49.8206 217.764 53.8751 217.764 58.8767V58.8767Z" fill="#FFF846" stroke="#828282" stroke-width="0.933333"/>
<path opacity="0.5" fill-rule="evenodd" clip-rule="evenodd" d="M145.348 10.2238C145.348 15.2254 149.403 19.28 154.404 19.28V19.28C159.406 19.28 163.461 15.2254 163.461 10.2238V10.2238C163.461 5.22219 159.406 1.1676 154.404 1.1676V1.1676C149.403 1.1676 145.348 5.22219 145.348 10.2238V10.2238Z" fill="#EFE602" stroke="#828282" stroke-width="0.933333"/>
<path opacity="0.5" fill-rule="evenodd" clip-rule="evenodd" d="M97.0703 34.5503C97.0703 39.5519 101.125 43.6065 106.127 43.6065V43.6065C111.129 43.6065 115.184 39.5519 115.184 34.5503V34.5503C115.184 29.5487 111.129 25.4941 106.127 25.4941V25.4941C101.125 25.4941 97.0703 29.5487 97.0703 34.5503V34.5503Z" fill="#FFF846" stroke="#828282" stroke-width="0.933333"/>
<path opacity="0.5" fill-rule="evenodd" clip-rule="evenodd" d="M0.514648 131.855C0.514648 136.857 4.57003 140.912 9.57162 140.912V140.912C14.5732 140.912 18.6286 136.857 18.6286 131.855V131.855C18.6286 126.854 14.5732 122.799 9.57162 122.799V122.799C4.57003 122.799 0.514648 126.854 0.514648 131.855V131.855Z" fill="#EFE602" stroke="#828282" stroke-width="0.933333"/>
<path opacity="0.5" fill-rule="evenodd" clip-rule="evenodd" d="M169.486 107.529C169.486 112.531 173.541 116.586 178.543 116.586V116.586C183.545 116.586 187.6 112.531 187.6 107.529V107.529C187.6 102.528 183.545 98.4731 178.543 98.4731V98.4731C173.541 98.4731 169.486 102.528 169.486 107.529V107.529Z" fill="#ACA500" stroke="#828282" stroke-width="0.933333"/>
<path opacity="0.5" fill-rule="evenodd" clip-rule="evenodd" d="M169.486 34.5503C169.486 39.5519 173.541 43.6065 178.543 43.6065V43.6065C183.545 43.6065 187.6 39.5519 187.6 34.5503V34.5503C187.6 29.5487 183.545 25.4941 178.543 25.4941V25.4941C173.541 25.4941 169.486 29.5487 169.486 34.5503V34.5503Z" fill="#ACA500" stroke="#828282" stroke-width="0.933333"/>
<path opacity="0.5" fill-rule="evenodd" clip-rule="evenodd" d="M121.208 34.5503C121.208 39.5519 125.263 43.6065 130.265 43.6065V43.6065C135.266 43.6065 139.321 39.5519 139.321 34.5503V34.5503C139.321 29.5487 135.266 25.4941 130.265 25.4941V25.4941C125.263 25.4941 121.208 29.5487 121.208 34.5503V34.5503Z" fill="#D0C800" stroke="#828282" stroke-width="0.933333"/>
<path opacity="0.5" fill-rule="evenodd" clip-rule="evenodd" d="M97.0703 10.2238C97.0703 15.2254 101.125 19.28 106.127 19.28V19.28C111.129 19.28 115.184 15.2254 115.184 10.2238V10.2238C115.184 5.22219 111.129 1.1676 106.127 1.1676V1.1676C101.125 1.1676 97.0703 5.22219 97.0703 10.2238V10.2238Z" fill="#ACA500" stroke="#828282" stroke-width="0.933333"/>
<path opacity="0.5" fill-rule="evenodd" clip-rule="evenodd" d="M24.6533 131.855C24.6533 136.857 28.7085 140.911 33.7101 140.911V140.911C38.7116 140.911 42.7668 136.857 42.7668 131.855V131.855C42.7668 126.854 38.7116 122.799 33.7101 122.799V122.799C28.7085 122.799 24.6533 126.854 24.6533 131.855V131.855Z" fill="#FFF846" stroke="#828282" stroke-width="0.933333"/>
<path opacity="0.5" fill-rule="evenodd" clip-rule="evenodd" d="M217.764 107.529C217.764 112.531 221.819 116.586 226.82 116.586V116.586C231.822 116.586 235.877 112.531 235.877 107.529V107.529C235.877 102.528 231.822 98.4731 226.82 98.4731V98.4731C221.819 98.4731 217.764 102.528 217.764 107.529V107.529Z" fill="#D0C800" stroke="#828282" stroke-width="0.933333"/>
<path opacity="0.5" fill-rule="evenodd" clip-rule="evenodd" d="M121.104 131.855C121.104 136.857 125.16 140.912 130.161 140.912V140.912C135.163 140.912 139.218 136.857 139.218 131.855V131.855C139.218 126.854 135.163 122.799 130.161 122.799V122.799C125.16 122.799 121.104 126.854 121.104 131.855V131.855Z" fill="#EFE602" stroke="#828282" stroke-width="0.933333"/>
<path opacity="0.5" fill-rule="evenodd" clip-rule="evenodd" d="M193.624 107.529C193.624 112.531 197.679 116.586 202.681 116.586V116.586C207.682 116.586 211.738 112.531 211.738 107.529V107.529C211.738 102.528 207.682 98.4731 202.681 98.4731V98.4731C197.679 98.4731 193.624 102.528 193.624 107.529V107.529Z" fill="#FFF846" stroke="#828282" stroke-width="0.933333"/>
<path opacity="0.5" fill-rule="evenodd" clip-rule="evenodd" d="M97.0703 107.529C97.0703 112.531 101.125 116.586 106.127 116.586V116.586C111.129 116.586 115.184 112.531 115.184 107.529V107.529C115.184 102.528 111.129 98.4731 106.127 98.4731V98.4731C101.125 98.4731 97.0703 102.528 97.0703 107.529V107.529Z" fill="#D0C800" stroke="#828282" stroke-width="0.933333"/>
<path opacity="0.5" fill-rule="evenodd" clip-rule="evenodd" d="M145.348 34.5503C145.348 39.5519 149.403 43.6065 154.404 43.6065V43.6065C159.406 43.6065 163.461 39.5519 163.461 34.5503V34.5503C163.461 29.5487 159.406 25.4941 154.404 25.4941V25.4941C149.403 25.4941 145.348 29.5487 145.348 34.5503V34.5503Z" fill="#FFF846" stroke="#828282" stroke-width="0.933333"/>
<path opacity="0.5" fill-rule="evenodd" clip-rule="evenodd" d="M72.9307 58.8767C72.9307 63.8783 76.9858 67.9329 81.9874 67.9329V67.9329C86.989 67.9329 91.0441 63.8783 91.0441 58.8767V58.8767C91.0441 53.8751 86.989 49.8206 81.9874 49.8206V49.8206C76.9858 49.8206 72.9307 53.8751 72.9307 58.8767V58.8767Z" fill="#EFE602" stroke="#828282" stroke-width="0.933333"/>
<path opacity="0.5" fill-rule="evenodd" clip-rule="evenodd" d="M121.104 107.529C121.104 112.531 125.16 116.586 130.161 116.586V116.586C135.163 116.586 139.218 112.531 139.218 107.529V107.529C139.218 102.528 135.163 98.4731 130.161 98.4731V98.4731C125.16 98.4731 121.104 102.528 121.104 107.529V107.529Z" fill="#EFE602" stroke="#828282" stroke-width="0.933333"/>
<path opacity="0.5" fill-rule="evenodd" clip-rule="evenodd" d="M193.624 34.5503C193.624 39.5519 197.679 43.6065 202.681 43.6065V43.6065C207.682 43.6065 211.738 39.5519 211.738 34.5503V34.5503C211.738 29.5487 207.682 25.4941 202.681 25.4941V25.4941C197.679 25.4941 193.624 29.5487 193.624 34.5503V34.5503Z" fill="#ACA500" stroke="#828282" stroke-width="0.933333"/>
<path opacity="0.5" fill-rule="evenodd" clip-rule="evenodd" d="M169.486 58.8767C169.486 63.8783 173.541 67.9329 178.543 67.9329V67.9329C183.545 67.9329 187.6 63.8783 187.6 58.8767V58.8767C187.6 53.8751 183.545 49.8206 178.543 49.8206V49.8206C173.541 49.8206 169.486 53.8751 169.486 58.8767V58.8767Z" fill="#FFF846" stroke="#828282" stroke-width="0.933333"/>
<path opacity="0.5" fill-rule="evenodd" clip-rule="evenodd" d="M72.7959 83.2267C72.7959 88.2283 76.851 92.2829 81.8526 92.2829V92.2829C86.8542 92.2829 90.9094 88.2283 90.9094 83.2267V83.2267C90.9094 78.2251 86.8542 74.1705 81.8526 74.1705V74.1705C76.851 74.1705 72.7959 78.2251 72.7959 83.2267V83.2267Z" fill="#FFFCAF" stroke="#828282" stroke-width="0.933333"/>
<path opacity="0.5" fill-rule="evenodd" clip-rule="evenodd" d="M48.792 156.182C48.792 161.184 52.8472 165.239 57.8489 165.239V165.239C62.8506 165.239 66.9058 161.184 66.9058 156.182V156.182C66.9058 151.181 62.8506 147.126 57.8489 147.126V147.126C52.8472 147.126 48.792 151.181 48.792 156.182V156.182Z" fill="#EFE602" stroke="#828282" stroke-width="0.933333"/>
<path opacity="0.5" fill-rule="evenodd" clip-rule="evenodd" d="M0.514648 107.529C0.514648 112.531 4.57003 116.585 9.57162 116.585V116.585C14.5732 116.585 18.6286 112.531 18.6286 107.529V107.529C18.6286 102.527 14.5732 98.4728 9.57162 98.4728V98.4728C4.57003 98.4728 0.514648 102.527 0.514648 107.529V107.529Z" fill="#FFF846" stroke="#828282" stroke-width="0.933333"/>
<path opacity="0.5" fill-rule="evenodd" clip-rule="evenodd" d="M24.6533 107.529C24.6533 112.531 28.7085 116.585 33.7101 116.585V116.585C38.7117 116.585 42.7668 112.531 42.7668 107.529V107.529C42.7668 102.527 38.7117 98.4728 33.7101 98.4728V98.4728C28.7085 98.4728 24.6533 102.527 24.6533 107.529V107.529Z" fill="#D0C800" stroke="#828282" stroke-width="0.933333"/>
<path opacity="0.5" fill-rule="evenodd" clip-rule="evenodd" d="M24.6533 180.508C24.6533 185.51 28.7085 189.565 33.7101 189.565V189.565C38.7117 189.565 42.7668 185.51 42.7668 180.508V180.508C42.7668 175.507 38.7117 171.452 33.7101 171.452V171.452C28.7085 171.452 24.6533 175.507 24.6533 180.508V180.508Z" fill="#FFF846" stroke="#828282" stroke-width="0.933333"/>
<path opacity="0.5" fill-rule="evenodd" clip-rule="evenodd" d="M48.792 83.2029C48.792 88.2045 52.8474 92.2591 57.849 92.2591V92.2591C62.8506 92.2591 66.9059 88.2045 66.9059 83.2029V83.2029C66.9059 78.2013 62.8506 74.1467 57.849 74.1467V74.1467C52.8474 74.1467 48.792 78.2013 48.792 83.2029V83.2029Z" fill="#FFFCAF" stroke="#828282" stroke-width="0.933333"/>
<path opacity="0.5" fill-rule="evenodd" clip-rule="evenodd" d="M24.6533 83.2029C24.6533 88.2045 28.7085 92.2591 33.7101 92.2591V92.2591C38.7117 92.2591 42.7668 88.2045 42.7668 83.2029V83.2029C42.7668 78.2013 38.7117 74.1467 33.7101 74.1467V74.1467C28.7085 74.1467 24.6533 78.2013 24.6533 83.2029V83.2029Z" fill="#EFE602" stroke="#828282" stroke-width="0.933333"/>
<path opacity="0.5" fill-rule="evenodd" clip-rule="evenodd" d="M72.9307 107.529C72.9307 112.531 76.9858 116.586 81.9874 116.586V116.586C86.989 116.586 91.0441 112.531 91.0441 107.529V107.529C91.0441 102.528 86.989 98.4731 81.9874 98.4731V98.4731C76.9858 98.4731 72.9307 102.528 72.9307 107.529V107.529Z" fill="#FFF846" stroke="#828282" stroke-width="0.933333"/>
<path opacity="0.5" fill-rule="evenodd" clip-rule="evenodd" d="M169.486 83.2029C169.486 88.2045 173.541 92.2591 178.543 92.2591V92.2591C183.545 92.2591 187.6 88.2045 187.6 83.2029V83.2029C187.6 78.2013 183.545 74.1467 178.543 74.1467V74.1467C173.541 74.1467 169.486 78.2013 169.486 83.2029V83.2029Z" fill="#D0C800" stroke="#828282" stroke-width="0.933333"/>
<path opacity="0.5" fill-rule="evenodd" clip-rule="evenodd" d="M48.792 107.529C48.792 112.531 52.8474 116.585 57.849 116.585V116.585C62.8506 116.585 66.9059 112.531 66.9059 107.529V107.529C66.9059 102.527 62.8506 98.4728 57.849 98.4728V98.4728C52.8474 98.4728 48.792 102.527 48.792 107.529V107.529Z" fill="#EFE602" stroke="#828282" stroke-width="0.933333"/>
<path opacity="0.5" fill-rule="evenodd" clip-rule="evenodd" d="M48.792 131.855C48.792 136.857 52.8474 140.911 57.849 140.911V140.911C62.8506 140.911 66.9059 136.857 66.9059 131.855V131.855C66.9059 126.854 62.8506 122.799 57.849 122.799V122.799C52.8474 122.799 48.792 126.854 48.792 131.855V131.855Z" fill="#ACA500" stroke="#828282" stroke-width="0.933333"/>
<path opacity="0.5" fill-rule="evenodd" clip-rule="evenodd" d="M145.44 107.529C145.44 112.531 149.496 116.586 154.497 116.586V116.586C159.499 116.586 163.554 112.531 163.554 107.529V107.529C163.554 102.528 159.499 98.4731 154.497 98.4731V98.4731C149.496 98.4731 145.44 102.528 145.44 107.529V107.529Z" fill="#FFFCAF" stroke="#828282" stroke-width="0.933333"/>
<path opacity="0.5" fill-rule="evenodd" clip-rule="evenodd" d="M121.208 83.2029C121.208 88.2045 125.263 92.2591 130.265 92.2591V92.2591C135.266 92.2591 139.321 88.2045 139.321 83.2029V83.2029C139.321 78.2013 135.266 74.1467 130.265 74.1467V74.1467C125.263 74.1467 121.208 78.2013 121.208 83.2029V83.2029Z" fill="#FFF846" stroke="#828282" stroke-width="0.933333"/>
<path opacity="0.5" fill-rule="evenodd" clip-rule="evenodd" d="M72.9307 131.855C72.9307 136.857 76.9858 140.912 81.9874 140.912V140.912C86.989 140.912 91.0441 136.857 91.0441 131.855V131.855C91.0441 126.854 86.989 122.799 81.9874 122.799V122.799C76.9858 122.799 72.9307 126.854 72.9307 131.855V131.855Z" fill="#D0C800" stroke="#828282" stroke-width="0.933333"/>
<path opacity="0.5" fill-rule="evenodd" clip-rule="evenodd" d="M241.902 107.529C241.902 112.531 245.957 116.586 250.959 116.586V116.586C255.961 116.586 260.016 112.531 260.016 107.529V107.529C260.016 102.528 255.961 98.4731 250.959 98.4731V98.4731C245.957 98.4731 241.902 102.528 241.902 107.529V107.529Z" fill="#FFF846" stroke="#828282" stroke-width="0.933333"/>
<path opacity="0.5" fill-rule="evenodd" clip-rule="evenodd" d="M241.902 58.8767C241.902 63.8783 245.957 67.9329 250.959 67.9329V67.9329C255.961 67.9329 260.016 63.8783 260.016 58.8767V58.8767C260.016 53.8751 255.961 49.8206 250.959 49.8206V49.8206C245.957 49.8206 241.902 53.8751 241.902 58.8767V58.8767Z" fill="#EFE602" stroke="#828282" stroke-width="0.933333"/>
<path opacity="0.5" fill-rule="evenodd" clip-rule="evenodd" d="M193.624 83.2029C193.624 88.2045 197.679 92.2591 202.681 92.2591V92.2591C207.682 92.2591 211.738 88.2045 211.738 83.2029V83.2029C211.738 78.2013 207.682 74.1467 202.681 74.1467V74.1467C197.679 74.1467 193.624 78.2013 193.624 83.2029V83.2029Z" fill="#EFE602" stroke="#828282" stroke-width="0.933333"/>
<path opacity="0.5" fill-rule="evenodd" clip-rule="evenodd" d="M121.208 58.8767C121.208 63.8783 125.263 67.9329 130.265 67.9329V67.9329C135.266 67.9329 139.321 63.8783 139.321 58.8767V58.8767C139.321 53.8751 135.266 49.8206 130.265 49.8206V49.8206C125.263 49.8206 121.208 53.8751 121.208 58.8767V58.8767Z" fill="#EFE602" stroke="#828282" stroke-width="0.933333"/>
<path opacity="0.5" fill-rule="evenodd" clip-rule="evenodd" d="M145.348 58.8767C145.348 63.8783 149.403 67.9329 154.404 67.9329V67.9329C159.406 67.9329 163.461 63.8783 163.461 58.8767V58.8767C163.461 53.8751 159.406 49.8206 154.404 49.8206V49.8206C149.403 49.8206 145.348 53.8751 145.348 58.8767V58.8767Z" fill="#FFFCAF" stroke="#828282" stroke-width="0.933333"/>
<path opacity="0.5" fill-rule="evenodd" clip-rule="evenodd" d="M217.764 83.2029C217.764 88.2045 221.819 92.2591 226.82 92.2591V92.2591C231.822 92.2591 235.877 88.2045 235.877 83.2029V83.2029C235.877 78.2013 231.822 74.1467 226.82 74.1467V74.1467C221.819 74.1467 217.764 78.2013 217.764 83.2029V83.2029Z" fill="#EFE602" stroke="#828282" stroke-width="0.933333"/>
<path opacity="0.5" fill-rule="evenodd" clip-rule="evenodd" d="M121.208 10.2238C121.208 15.2254 125.263 19.28 130.265 19.28V19.28C135.266 19.28 139.321 15.2254 139.321 10.2238V10.2238C139.321 5.22219 135.266 1.1676 130.265 1.1676V1.1676C125.263 1.1676 121.208 5.22219 121.208 10.2238V10.2238Z" fill="#EFE602" stroke="#828282" stroke-width="0.933333"/>
<path opacity="0.5" fill-rule="evenodd" clip-rule="evenodd" d="M145.348 83.2029C145.348 88.2045 149.403 92.2591 154.404 92.2591V92.2591C159.406 92.2591 163.461 88.2045 163.461 83.2029V83.2029C163.461 78.2013 159.406 74.1467 154.404 74.1467V74.1467C149.403 74.1467 145.348 78.2013 145.348 83.2029V83.2029Z" fill="#ACA500" stroke="#828282" stroke-width="0.933333"/>
<path fill-rule="evenodd" clip-rule="evenodd" d="M241.902 34.5503C241.902 39.5519 245.957 43.6065 250.959 43.6065V43.6065C255.961 43.6065 260.016 39.5519 260.016 34.5503V34.5503C260.016 29.5487 255.961 25.4941 250.959 25.4941V25.4941C245.957 25.4941 241.902 29.5487 241.902 34.5503V34.5503Z" fill="#ACA500" stroke="black" stroke-width="0.933333"/>
<path opacity="0.5" fill-rule="evenodd" clip-rule="evenodd" d="M97.0703 58.8767C97.0703 63.8783 101.125 67.9329 106.127 67.9329V67.9329C111.129 67.9329 115.184 63.8783 115.184 58.8767V58.8767C115.184 53.8751 111.129 49.8206 106.127 49.8206V49.8206C101.125 49.8206 97.0703 53.8751 97.0703 58.8767V58.8767Z" fill="#EFE602" stroke="#828282" stroke-width="0.933333"/>
<path opacity="0.5" fill-rule="evenodd" clip-rule="evenodd" d="M97.1318 83.2267C97.1318 88.2283 101.187 92.2829 106.189 92.2829V92.2829C111.19 92.2829 115.245 88.2283 115.245 83.2267V83.2267C115.245 78.2251 111.19 74.1705 106.189 74.1705V74.1705C101.187 74.1705 97.1318 78.2251 97.1318 83.2267V83.2267Z" fill="#EFE602" stroke="#828282" stroke-width="0.933333"/>
</svg>
