<svg width="402" height="401" viewBox="0 0 402 401" fill="none" xmlns="http://www.w3.org/2000/svg">
<g id="Group 3508">
<path id="Vector" d="M200.51 400.587C310.967 400.587 400.51 311.044 400.51 200.587C400.51 90.13 310.967 0.586914 200.51 0.586914C90.0528 0.586914 0.509766 90.13 0.509766 200.587C0.509766 311.044 90.0528 400.587 200.51 400.587Z" fill="#EFE602"/>
<g id="Group 3228">
<g id="Group 2796">
<path id="Vector_2" d="M367.157 394.384C385.458 394.384 400.294 387.062 400.294 378.03L400.294 371.01L334.02 371.01L334.02 378.03C334.02 387.062 348.855 394.384 367.157 394.384Z" fill="white" stroke="#EFE602" stroke-width="1.5" stroke-miterlimit="10" stroke-linejoin="round"/>
<path id="Vector_3" d="M400.294 371.651C400.294 362.619 385.458 355.297 367.157 355.297C348.855 355.297 334.02 362.619 334.02 371.651C334.02 380.682 348.855 388.004 367.157 388.004C385.458 388.004 400.294 380.682 400.294 371.651Z" fill="white" stroke="#EFE602" stroke-width="1.5" stroke-miterlimit="10" stroke-linejoin="round"/>
<g id="Group 2793">
<path id="Vector 84" d="M338.154 379.277V386.487" stroke="#EFE602" stroke-width="1.5" stroke-linejoin="round"/>
<path id="Vector 85" d="M342.289 382.585V388.968" stroke="#EFE602" stroke-width="1.5" stroke-linejoin="round"/>
<path id="Vector 86" d="M346.424 384.653V387.018V390.623" stroke="#EFE602" stroke-width="1.5" stroke-linejoin="round"/>
<path id="Vector 87" d="M350.559 385.066V392.276" stroke="#EFE602" stroke-width="1.5" stroke-linejoin="round"/>
<path id="Vector 88" d="M354.693 386.721V393.93" stroke="#EFE602" stroke-width="1.5" stroke-linejoin="round"/>
<path id="Vector 89" d="M358.828 386.721V393.93" stroke="#EFE602" stroke-width="1.5" stroke-linejoin="round"/>
<path id="Vector 90" d="M362.963 387.548V394.757" stroke="#EFE602" stroke-width="1.5" stroke-linejoin="round"/>
<path id="Vector 91" d="M367.098 387.548V394.757" stroke="#EFE602" stroke-width="1.5" stroke-linejoin="round"/>
<path id="Vector 92" d="M371.232 387.547V394.756" stroke="#EFE602" stroke-width="1.5" stroke-linejoin="round"/>
<path id="Vector 93" d="M375.367 386.721V393.93" stroke="#EFE602" stroke-width="1.5" stroke-linejoin="round"/>
<path id="Vector 94" d="M379.502 386.721V393.103" stroke="#EFE602" stroke-width="1.5" stroke-linejoin="round"/>
<path id="Vector 95" d="M383.637 385.894V391.449" stroke="#EFE602" stroke-width="1.5" stroke-linejoin="round"/>
<path id="Vector 96" d="M387.771 385.066V390.622" stroke="#EFE602" stroke-width="1.5" stroke-linejoin="round"/>
<path id="Vector 97" d="M396.041 379.277V385.893" stroke="#EFE602" stroke-width="1.5" stroke-linejoin="round"/>
<path id="Vector 98" d="M391.905 382.585V388.968" stroke="#EFE602" stroke-width="1.5" stroke-linejoin="round"/>
</g>
</g>
<g id="Group 3220">
<path id="Vector_4" d="M367.157 382.349C385.458 382.349 400.294 375.027 400.294 365.995L400.294 358.974L334.02 358.974L334.02 365.995C334.02 375.027 348.855 382.349 367.157 382.349Z" fill="white" stroke="#EFE602" stroke-width="1.5" stroke-miterlimit="10" stroke-linejoin="round"/>
<path id="Vector_5" d="M400.294 359.615C400.294 350.584 385.458 343.262 367.157 343.262C348.855 343.262 334.02 350.584 334.02 359.615C334.02 368.647 348.855 375.969 367.157 375.969C385.458 375.969 400.294 368.647 400.294 359.615Z" fill="white" stroke="#EFE602" stroke-width="1.5" stroke-miterlimit="10" stroke-linejoin="round"/>
<g id="Group 2793_2">
<path id="Vector 84_2" d="M338.154 367.242V374.452" stroke="#EFE602" stroke-width="1.5" stroke-linejoin="round"/>
<path id="Vector 85_2" d="M342.289 370.55V376.932" stroke="#EFE602" stroke-width="1.5" stroke-linejoin="round"/>
<path id="Vector 86_2" d="M346.424 372.618V374.983V378.587" stroke="#EFE602" stroke-width="1.5" stroke-linejoin="round"/>
<path id="Vector 87_2" d="M350.559 373.031V380.241" stroke="#EFE602" stroke-width="1.5" stroke-linejoin="round"/>
<path id="Vector 88_2" d="M354.693 374.686V381.895" stroke="#EFE602" stroke-width="1.5" stroke-linejoin="round"/>
<path id="Vector 89_2" d="M358.828 374.686V381.895" stroke="#EFE602" stroke-width="1.5" stroke-linejoin="round"/>
<path id="Vector 90_2" d="M362.963 375.513V382.722" stroke="#EFE602" stroke-width="1.5" stroke-linejoin="round"/>
<path id="Vector 91_2" d="M367.098 375.513V382.722" stroke="#EFE602" stroke-width="1.5" stroke-linejoin="round"/>
<path id="Vector 92_2" d="M371.232 375.512V382.721" stroke="#EFE602" stroke-width="1.5" stroke-linejoin="round"/>
<path id="Vector 93_2" d="M375.367 374.686V381.895" stroke="#EFE602" stroke-width="1.5" stroke-linejoin="round"/>
<path id="Vector 94_2" d="M379.502 374.686V381.068" stroke="#EFE602" stroke-width="1.5" stroke-linejoin="round"/>
<path id="Vector 95_2" d="M383.637 373.858V379.414" stroke="#EFE602" stroke-width="1.5" stroke-linejoin="round"/>
<path id="Vector 96_2" d="M387.771 373.031V378.587" stroke="#EFE602" stroke-width="1.5" stroke-linejoin="round"/>
<path id="Vector 97_2" d="M396.041 367.242V373.858" stroke="#EFE602" stroke-width="1.5" stroke-linejoin="round"/>
<path id="Vector 98_2" d="M391.906 370.551V376.933" stroke="#EFE602" stroke-width="1.5" stroke-linejoin="round"/>
</g>
</g>
<g id="Group 3221">
<path id="Vector_6" d="M367.157 370.313C385.458 370.313 400.294 362.992 400.294 353.96L400.294 346.939L334.02 346.939L334.02 353.96C334.02 362.992 348.855 370.313 367.157 370.313Z" fill="white" stroke="#EFE602" stroke-width="1.5" stroke-miterlimit="10" stroke-linejoin="round"/>
<path id="Vector_7" d="M400.294 347.58C400.294 338.549 385.458 331.227 367.157 331.227C348.855 331.227 334.02 338.549 334.02 347.58C334.02 356.612 348.855 363.934 367.157 363.934C385.458 363.934 400.294 356.612 400.294 347.58Z" fill="white" stroke="#EFE602" stroke-width="1.5" stroke-miterlimit="10" stroke-linejoin="round"/>
<g id="Group 2793_3">
<path id="Vector 84_3" d="M338.154 355.207V362.417" stroke="#EFE602" stroke-width="1.5" stroke-linejoin="round"/>
<path id="Vector 85_3" d="M342.289 358.515V364.897" stroke="#EFE602" stroke-width="1.5" stroke-linejoin="round"/>
<path id="Vector 86_3" d="M346.424 360.583V362.947V366.552" stroke="#EFE602" stroke-width="1.5" stroke-linejoin="round"/>
<path id="Vector 87_3" d="M350.559 360.996V368.206" stroke="#EFE602" stroke-width="1.5" stroke-linejoin="round"/>
<path id="Vector 88_3" d="M354.693 362.65V369.86" stroke="#EFE602" stroke-width="1.5" stroke-linejoin="round"/>
<path id="Vector 89_3" d="M358.828 362.65V369.86" stroke="#EFE602" stroke-width="1.5" stroke-linejoin="round"/>
<path id="Vector 90_3" d="M362.963 363.478V370.687" stroke="#EFE602" stroke-width="1.5" stroke-linejoin="round"/>
<path id="Vector 91_3" d="M367.098 363.478V370.687" stroke="#EFE602" stroke-width="1.5" stroke-linejoin="round"/>
<path id="Vector 92_3" d="M371.232 363.477V370.686" stroke="#EFE602" stroke-width="1.5" stroke-linejoin="round"/>
<path id="Vector 93_3" d="M375.367 362.65V369.86" stroke="#EFE602" stroke-width="1.5" stroke-linejoin="round"/>
<path id="Vector 94_3" d="M379.502 362.65V369.033" stroke="#EFE602" stroke-width="1.5" stroke-linejoin="round"/>
<path id="Vector 95_3" d="M383.637 361.823V367.379" stroke="#EFE602" stroke-width="1.5" stroke-linejoin="round"/>
<path id="Vector 96_3" d="M387.771 360.996V366.552" stroke="#EFE602" stroke-width="1.5" stroke-linejoin="round"/>
<path id="Vector 97_3" d="M396.041 355.207V361.823" stroke="#EFE602" stroke-width="1.5" stroke-linejoin="round"/>
<path id="Vector 98_3" d="M391.906 358.516V364.898" stroke="#EFE602" stroke-width="1.5" stroke-linejoin="round"/>
</g>
</g>
<g id="Group 3222">
<path id="Vector_8" d="M367.157 358.278C385.458 358.278 400.294 350.957 400.294 341.925L400.294 334.904L334.02 334.904L334.02 341.925C334.02 350.957 348.855 358.278 367.157 358.278Z" fill="white" stroke="#EFE602" stroke-width="1.5" stroke-miterlimit="10" stroke-linejoin="round"/>
<path id="Vector_9" d="M400.294 335.545C400.294 326.513 385.458 319.192 367.157 319.192C348.855 319.192 334.02 326.513 334.02 335.545C334.02 344.577 348.855 351.898 367.157 351.898C385.458 351.898 400.294 344.577 400.294 335.545Z" fill="white" stroke="#EFE602" stroke-width="1.5" stroke-miterlimit="10" stroke-linejoin="round"/>
<g id="Group 2793_4">
<path id="Vector 84_4" d="M338.154 343.172V350.381" stroke="#EFE602" stroke-width="1.5" stroke-linejoin="round"/>
<path id="Vector 85_4" d="M342.289 346.479V352.862" stroke="#EFE602" stroke-width="1.5" stroke-linejoin="round"/>
<path id="Vector 86_4" d="M346.424 348.547V350.911V354.516" stroke="#EFE602" stroke-width="1.5" stroke-linejoin="round"/>
<path id="Vector 87_4" d="M350.559 348.961V356.171" stroke="#EFE602" stroke-width="1.5" stroke-linejoin="round"/>
<path id="Vector 88_4" d="M354.693 350.615V357.825" stroke="#EFE602" stroke-width="1.5" stroke-linejoin="round"/>
<path id="Vector 89_4" d="M358.828 350.615V357.825" stroke="#EFE602" stroke-width="1.5" stroke-linejoin="round"/>
<path id="Vector 90_4" d="M362.963 351.442V358.652" stroke="#EFE602" stroke-width="1.5" stroke-linejoin="round"/>
<path id="Vector 91_4" d="M367.098 351.442V358.652" stroke="#EFE602" stroke-width="1.5" stroke-linejoin="round"/>
<path id="Vector 92_4" d="M371.232 351.441V358.651" stroke="#EFE602" stroke-width="1.5" stroke-linejoin="round"/>
<path id="Vector 93_4" d="M375.367 350.615V357.825" stroke="#EFE602" stroke-width="1.5" stroke-linejoin="round"/>
<path id="Vector 94_4" d="M379.502 350.615V356.998" stroke="#EFE602" stroke-width="1.5" stroke-linejoin="round"/>
<path id="Vector 95_4" d="M383.637 349.788V355.344" stroke="#EFE602" stroke-width="1.5" stroke-linejoin="round"/>
<path id="Vector 96_4" d="M387.771 348.961V354.517" stroke="#EFE602" stroke-width="1.5" stroke-linejoin="round"/>
<path id="Vector 97_4" d="M396.041 343.172V349.787" stroke="#EFE602" stroke-width="1.5" stroke-linejoin="round"/>
<path id="Vector 98_4" d="M391.905 346.48V352.863" stroke="#EFE602" stroke-width="1.5" stroke-linejoin="round"/>
</g>
</g>
<g id="Group 3223">
<path id="Vector_10" d="M367.157 346.243C385.458 346.243 400.294 338.922 400.294 329.89L400.294 322.869L334.02 322.869L334.02 329.89C334.02 338.922 348.855 346.243 367.157 346.243Z" fill="white" stroke="#EFE602" stroke-width="1.5" stroke-miterlimit="10" stroke-linejoin="round"/>
<path id="Vector_11" d="M400.294 323.51C400.294 314.478 385.458 307.157 367.157 307.157C348.855 307.157 334.02 314.478 334.02 323.51C334.02 332.542 348.855 339.863 367.157 339.863C385.458 339.863 400.294 332.542 400.294 323.51Z" fill="white" stroke="#EFE602" stroke-width="1.5" stroke-miterlimit="10" stroke-linejoin="round"/>
<g id="Group 2793_5">
<path id="Vector 84_5" d="M338.154 331.137V338.346" stroke="#EFE602" stroke-width="1.5" stroke-linejoin="round"/>
<path id="Vector 85_5" d="M342.289 334.445V340.828" stroke="#EFE602" stroke-width="1.5" stroke-linejoin="round"/>
<path id="Vector 86_5" d="M346.424 336.513V338.877V342.482" stroke="#EFE602" stroke-width="1.5" stroke-linejoin="round"/>
<path id="Vector 87_5" d="M350.559 336.925V344.134" stroke="#EFE602" stroke-width="1.5" stroke-linejoin="round"/>
<path id="Vector 88_5" d="M354.693 338.58V345.79" stroke="#EFE602" stroke-width="1.5" stroke-linejoin="round"/>
<path id="Vector 89_5" d="M358.828 338.58V345.79" stroke="#EFE602" stroke-width="1.5" stroke-linejoin="round"/>
<path id="Vector 90_5" d="M362.963 339.406V346.616" stroke="#EFE602" stroke-width="1.5" stroke-linejoin="round"/>
<path id="Vector 91_5" d="M367.098 339.407V346.617" stroke="#EFE602" stroke-width="1.5" stroke-linejoin="round"/>
<path id="Vector 92_5" d="M371.232 339.406V346.616" stroke="#EFE602" stroke-width="1.5" stroke-linejoin="round"/>
<path id="Vector 93_5" d="M375.367 338.579V345.789" stroke="#EFE602" stroke-width="1.5" stroke-linejoin="round"/>
<path id="Vector 94_5" d="M379.502 338.579V344.962" stroke="#EFE602" stroke-width="1.5" stroke-linejoin="round"/>
<path id="Vector 95_5" d="M383.637 337.753V343.309" stroke="#EFE602" stroke-width="1.5" stroke-linejoin="round"/>
<path id="Vector 96_5" d="M387.771 336.926V342.482" stroke="#EFE602" stroke-width="1.5" stroke-linejoin="round"/>
<path id="Vector 97_5" d="M396.041 331.137V337.752" stroke="#EFE602" stroke-width="1.5" stroke-linejoin="round"/>
<path id="Vector 98_5" d="M391.905 334.445V340.828" stroke="#EFE602" stroke-width="1.5" stroke-linejoin="round"/>
</g>
</g>
<g id="Group 3224">
<path id="Vector_12" d="M367.157 334.208C385.458 334.208 400.294 326.886 400.294 317.855L400.294 310.834L334.02 310.834L334.02 317.855C334.02 326.886 348.855 334.208 367.157 334.208Z" fill="white" stroke="#EFE602" stroke-width="1.5" stroke-miterlimit="10" stroke-linejoin="round"/>
<path id="Vector_13" d="M400.294 311.475C400.294 302.443 385.458 295.121 367.157 295.121C348.855 295.121 334.02 302.443 334.02 311.475C334.02 320.507 348.855 327.828 367.157 327.828C385.458 327.828 400.294 320.507 400.294 311.475Z" fill="white" stroke="#EFE602" stroke-width="1.5" stroke-miterlimit="10" stroke-linejoin="round"/>
<g id="Group 2793_6">
<path id="Vector 84_6" d="M338.154 319.102V326.311" stroke="#EFE602" stroke-width="1.5" stroke-linejoin="round"/>
<path id="Vector 85_6" d="M342.289 322.41V328.793" stroke="#EFE602" stroke-width="1.5" stroke-linejoin="round"/>
<path id="Vector 86_6" d="M346.424 324.478V326.842V330.447" stroke="#EFE602" stroke-width="1.5" stroke-linejoin="round"/>
<path id="Vector 87_6" d="M350.559 324.891V332.1" stroke="#EFE602" stroke-width="1.5" stroke-linejoin="round"/>
<path id="Vector 88_6" d="M354.693 326.545V333.755" stroke="#EFE602" stroke-width="1.5" stroke-linejoin="round"/>
<path id="Vector 89_6" d="M358.828 326.545V333.755" stroke="#EFE602" stroke-width="1.5" stroke-linejoin="round"/>
<path id="Vector 90_6" d="M362.963 327.372V334.582" stroke="#EFE602" stroke-width="1.5" stroke-linejoin="round"/>
<path id="Vector 91_6" d="M367.098 327.372V334.582" stroke="#EFE602" stroke-width="1.5" stroke-linejoin="round"/>
<path id="Vector 92_6" d="M371.232 327.371V334.581" stroke="#EFE602" stroke-width="1.5" stroke-linejoin="round"/>
<path id="Vector 93_6" d="M375.367 326.545V333.755" stroke="#EFE602" stroke-width="1.5" stroke-linejoin="round"/>
<path id="Vector 94_6" d="M379.502 326.545V332.928" stroke="#EFE602" stroke-width="1.5" stroke-linejoin="round"/>
<path id="Vector 95_6" d="M383.637 325.718V331.273" stroke="#EFE602" stroke-width="1.5" stroke-linejoin="round"/>
<path id="Vector 96_6" d="M387.771 324.891V330.446" stroke="#EFE602" stroke-width="1.5" stroke-linejoin="round"/>
<path id="Vector 97_6" d="M396.041 319.102V325.717" stroke="#EFE602" stroke-width="1.5" stroke-linejoin="round"/>
<path id="Vector 98_6" d="M391.906 322.41V328.793" stroke="#EFE602" stroke-width="1.5" stroke-linejoin="round"/>
</g>
</g>
<g id="Group 3225">
<path id="Vector_14" d="M367.157 322.173C385.458 322.173 400.294 314.851 400.294 305.82L400.294 298.799L334.02 298.799L334.02 305.82C334.02 314.851 348.855 322.173 367.157 322.173Z" fill="white" stroke="#EFE602" stroke-width="1.5" stroke-miterlimit="10" stroke-linejoin="round"/>
<path id="Vector_15" d="M400.294 299.44C400.294 290.408 385.458 283.086 367.157 283.086C348.855 283.086 334.02 290.408 334.02 299.44C334.02 308.471 348.855 315.793 367.157 315.793C385.458 315.793 400.294 308.471 400.294 299.44Z" fill="white" stroke="#EFE602" stroke-width="1.5" stroke-miterlimit="10" stroke-linejoin="round"/>
<g id="Group 2793_7">
<path id="Vector 84_7" d="M338.154 307.066V314.276" stroke="#EFE602" stroke-width="1.5" stroke-linejoin="round"/>
<path id="Vector 85_7" d="M342.289 310.375V316.758" stroke="#EFE602" stroke-width="1.5" stroke-linejoin="round"/>
<path id="Vector 86_7" d="M346.424 312.442V314.807V318.412" stroke="#EFE602" stroke-width="1.5" stroke-linejoin="round"/>
<path id="Vector 87_7" d="M350.559 312.854V320.064" stroke="#EFE602" stroke-width="1.5" stroke-linejoin="round"/>
<path id="Vector 88_7" d="M354.693 314.51V321.719" stroke="#EFE602" stroke-width="1.5" stroke-linejoin="round"/>
<path id="Vector 89_7" d="M358.828 314.51V321.719" stroke="#EFE602" stroke-width="1.5" stroke-linejoin="round"/>
<path id="Vector 90_7" d="M362.963 315.337V322.547" stroke="#EFE602" stroke-width="1.5" stroke-linejoin="round"/>
<path id="Vector 91_7" d="M367.098 315.337V322.547" stroke="#EFE602" stroke-width="1.5" stroke-linejoin="round"/>
<path id="Vector 92_7" d="M371.232 315.336V322.546" stroke="#EFE602" stroke-width="1.5" stroke-linejoin="round"/>
<path id="Vector 93_7" d="M375.367 314.509V321.718" stroke="#EFE602" stroke-width="1.5" stroke-linejoin="round"/>
<path id="Vector 94_7" d="M379.502 314.509V320.891" stroke="#EFE602" stroke-width="1.5" stroke-linejoin="round"/>
<path id="Vector 95_7" d="M383.637 313.683V319.238" stroke="#EFE602" stroke-width="1.5" stroke-linejoin="round"/>
<path id="Vector 96_7" d="M387.771 312.855V318.411" stroke="#EFE602" stroke-width="1.5" stroke-linejoin="round"/>
<path id="Vector 97_7" d="M396.041 307.066V313.682" stroke="#EFE602" stroke-width="1.5" stroke-linejoin="round"/>
<path id="Vector 98_7" d="M391.906 310.375V316.758" stroke="#EFE602" stroke-width="1.5" stroke-linejoin="round"/>
</g>
</g>
<g id="Group 3226">
<path id="Vector_16" d="M367.157 310.138C385.458 310.138 400.294 302.816 400.294 293.784L400.294 286.763L334.02 286.763L334.02 293.784C334.02 302.816 348.855 310.138 367.157 310.138Z" fill="white" stroke="#EFE602" stroke-width="1.5" stroke-miterlimit="10" stroke-linejoin="round"/>
<path id="Vector_17" d="M400.294 287.404C400.294 278.373 385.458 271.051 367.157 271.051C348.855 271.051 334.02 278.373 334.02 287.404C334.02 296.436 348.855 303.758 367.157 303.758C385.458 303.758 400.294 296.436 400.294 287.404Z" fill="white" stroke="#EFE602" stroke-width="1.5" stroke-miterlimit="10" stroke-linejoin="round"/>
<g id="Group 2793_8">
<path id="Vector 84_8" d="M338.154 295.031V302.241" stroke="#EFE602" stroke-width="1.5" stroke-linejoin="round"/>
<path id="Vector 85_8" d="M342.289 298.34V304.723" stroke="#EFE602" stroke-width="1.5" stroke-linejoin="round"/>
<path id="Vector 86_8" d="M346.424 300.407V302.772V306.376" stroke="#EFE602" stroke-width="1.5" stroke-linejoin="round"/>
<path id="Vector 87_8" d="M350.559 300.82V308.03" stroke="#EFE602" stroke-width="1.5" stroke-linejoin="round"/>
<path id="Vector 88_8" d="M354.693 302.475V309.684" stroke="#EFE602" stroke-width="1.5" stroke-linejoin="round"/>
<path id="Vector 89_8" d="M358.828 302.475V309.684" stroke="#EFE602" stroke-width="1.5" stroke-linejoin="round"/>
<path id="Vector 90_8" d="M362.963 303.302V310.511" stroke="#EFE602" stroke-width="1.5" stroke-linejoin="round"/>
<path id="Vector 91_8" d="M367.098 303.302V310.511" stroke="#EFE602" stroke-width="1.5" stroke-linejoin="round"/>
<path id="Vector 92_8" d="M371.232 303.301V310.51" stroke="#EFE602" stroke-width="1.5" stroke-linejoin="round"/>
<path id="Vector 93_8" d="M375.367 302.475V309.684" stroke="#EFE602" stroke-width="1.5" stroke-linejoin="round"/>
<path id="Vector 94_8" d="M379.502 302.475V308.857" stroke="#EFE602" stroke-width="1.5" stroke-linejoin="round"/>
<path id="Vector 95_8" d="M383.637 301.647V307.203" stroke="#EFE602" stroke-width="1.5" stroke-linejoin="round"/>
<path id="Vector 96_8" d="M387.771 300.82V306.376" stroke="#EFE602" stroke-width="1.5" stroke-linejoin="round"/>
<path id="Vector 97_8" d="M396.041 295.031V301.647" stroke="#EFE602" stroke-width="1.5" stroke-linejoin="round"/>
<path id="Vector 98_8" d="M391.906 298.34V304.723" stroke="#EFE602" stroke-width="1.5" stroke-linejoin="round"/>
</g>
</g>
<g id="Group 3227">
<path id="Vector_18" d="M367.157 298.103C385.458 298.103 400.294 290.781 400.294 281.749L400.294 274.728L334.02 274.728L334.02 281.749C334.02 290.781 348.855 298.103 367.157 298.103Z" fill="white" stroke="#EFE602" stroke-width="1.5" stroke-miterlimit="10" stroke-linejoin="round"/>
<path id="Vector_19" d="M400.294 275.369C400.294 266.338 385.458 259.016 367.157 259.016C348.855 259.016 334.02 266.338 334.02 275.369C334.02 284.401 348.855 291.723 367.157 291.723C385.458 291.723 400.294 284.401 400.294 275.369Z" fill="white" stroke="#EFE602" stroke-width="1.5" stroke-miterlimit="10" stroke-linejoin="round"/>
<g id="Group 2793_9">
<path id="Vector 84_9" d="M338.154 282.996V290.206" stroke="#EFE602" stroke-width="1.5" stroke-linejoin="round"/>
<path id="Vector 85_9" d="M342.289 286.304V292.686" stroke="#EFE602" stroke-width="1.5" stroke-linejoin="round"/>
<path id="Vector 86_9" d="M346.424 288.371V290.735V294.34" stroke="#EFE602" stroke-width="1.5" stroke-linejoin="round"/>
<path id="Vector 87_9" d="M350.559 288.784V295.994" stroke="#EFE602" stroke-width="1.5" stroke-linejoin="round"/>
<path id="Vector 88_9" d="M354.693 290.439V297.649" stroke="#EFE602" stroke-width="1.5" stroke-linejoin="round"/>
<path id="Vector 89_9" d="M358.828 290.439V297.649" stroke="#EFE602" stroke-width="1.5" stroke-linejoin="round"/>
<path id="Vector 90_9" d="M362.963 291.266V298.475" stroke="#EFE602" stroke-width="1.5" stroke-linejoin="round"/>
<path id="Vector 91_9" d="M367.098 291.267V298.476" stroke="#EFE602" stroke-width="1.5" stroke-linejoin="round"/>
<path id="Vector 92_9" d="M371.232 291.266V298.475" stroke="#EFE602" stroke-width="1.5" stroke-linejoin="round"/>
<path id="Vector 93_9" d="M375.367 290.438V297.648" stroke="#EFE602" stroke-width="1.5" stroke-linejoin="round"/>
<path id="Vector 94_9" d="M379.502 290.438V296.821" stroke="#EFE602" stroke-width="1.5" stroke-linejoin="round"/>
<path id="Vector 95_9" d="M383.637 289.612V295.168" stroke="#EFE602" stroke-width="1.5" stroke-linejoin="round"/>
<path id="Vector 96_9" d="M387.771 288.785V294.341" stroke="#EFE602" stroke-width="1.5" stroke-linejoin="round"/>
<path id="Vector 97_9" d="M396.041 282.996V289.612" stroke="#EFE602" stroke-width="1.5" stroke-linejoin="round"/>
<path id="Vector 98_9" d="M391.905 286.305V292.687" stroke="#EFE602" stroke-width="1.5" stroke-linejoin="round"/>
</g>
</g>
<g id="Group 3228_2">
<path id="Vector_20" d="M34.2718 390.173C52.5729 390.173 67.4089 382.851 67.4089 373.82L67.4089 366.799L1.13477 366.799L1.13477 373.82C1.13477 382.851 15.9707 390.173 34.2718 390.173Z" fill="white" stroke="#EFE602" stroke-width="1.5" stroke-miterlimit="10" stroke-linejoin="round"/>
<path id="Vector_21" d="M67.4089 367.44C67.4089 358.408 52.5729 351.086 34.2718 351.086C15.9707 351.086 1.13477 358.408 1.13477 367.44C1.13477 376.471 15.9707 383.793 34.2718 383.793C52.5729 383.793 67.4089 376.471 67.4089 367.44Z" fill="white" stroke="#EFE602" stroke-width="1.5" stroke-miterlimit="10" stroke-linejoin="round"/>
<g id="Group 2793_10">
<path id="Vector 84_10" d="M5.26953 375.066V382.276" stroke="#EFE602" stroke-width="1.5" stroke-linejoin="round"/>
<path id="Vector 85_10" d="M9.4043 378.374V384.757" stroke="#EFE602" stroke-width="1.5" stroke-linejoin="round"/>
<path id="Vector 86_10" d="M13.5391 380.441V382.806V386.411" stroke="#EFE602" stroke-width="1.5" stroke-linejoin="round"/>
<path id="Vector 87_10" d="M17.6738 380.855V388.065" stroke="#EFE602" stroke-width="1.5" stroke-linejoin="round"/>
<path id="Vector 88_10" d="M21.8086 382.51V389.719" stroke="#EFE602" stroke-width="1.5" stroke-linejoin="round"/>
<path id="Vector 89_10" d="M25.9434 382.51V389.719" stroke="#EFE602" stroke-width="1.5" stroke-linejoin="round"/>
<path id="Vector 90_10" d="M30.0781 383.336V390.546" stroke="#EFE602" stroke-width="1.5" stroke-linejoin="round"/>
<path id="Vector 91_10" d="M34.2129 383.337V390.547" stroke="#EFE602" stroke-width="1.5" stroke-linejoin="round"/>
<path id="Vector 92_10" d="M38.3477 383.336V390.546" stroke="#EFE602" stroke-width="1.5" stroke-linejoin="round"/>
<path id="Vector 93_10" d="M42.4824 382.509V389.718" stroke="#EFE602" stroke-width="1.5" stroke-linejoin="round"/>
<path id="Vector 94_10" d="M46.6172 382.509V388.891" stroke="#EFE602" stroke-width="1.5" stroke-linejoin="round"/>
<path id="Vector 95_10" d="M50.752 381.683V387.238" stroke="#EFE602" stroke-width="1.5" stroke-linejoin="round"/>
<path id="Vector 96_10" d="M54.8867 380.855V386.411" stroke="#EFE602" stroke-width="1.5" stroke-linejoin="round"/>
<path id="Vector 97_10" d="M63.1562 375.066V381.682" stroke="#EFE602" stroke-width="1.5" stroke-linejoin="round"/>
<path id="Vector 98_10" d="M59.0215 378.374V384.757" stroke="#EFE602" stroke-width="1.5" stroke-linejoin="round"/>
</g>
</g>
<g id="Group 3229">
<path id="Vector_22" d="M55.023 380.078C71.6479 387.73 88.186 387.281 91.962 379.077L94.8973 372.699L34.6931 344.991L31.7579 351.369C27.9819 359.574 38.398 372.427 55.023 380.078Z" fill="white" stroke="#EFE602" stroke-width="1.5" stroke-miterlimit="10" stroke-linejoin="round"/>
<path id="Vector_23" d="M94.629 373.28C98.405 365.075 87.9888 352.222 71.3639 344.57C54.739 336.919 38.2008 337.368 34.4249 345.572C30.6489 353.777 41.065 366.63 57.69 374.282C74.3149 381.933 90.853 381.484 94.629 373.28Z" fill="white" stroke="#EFE602" stroke-width="1.5" stroke-miterlimit="10" stroke-linejoin="round"/>
<g id="Group 2793_11">
<path id="Vector 84_11" d="M34.9922 354.23L31.978 360.78" stroke="#EFE602" stroke-width="1.5" stroke-linejoin="round"/>
<path id="Vector 85_11" d="M37.3652 358.964L34.6968 364.762" stroke="#EFE602" stroke-width="1.5" stroke-linejoin="round"/>
<path id="Vector 86_11" d="M40.2568 362.571L39.2683 364.719L37.7612 367.994" stroke="#EFE602" stroke-width="1.5" stroke-linejoin="round"/>
<path id="Vector 87_11" d="M43.8398 364.675L40.8257 371.224" stroke="#EFE602" stroke-width="1.5" stroke-linejoin="round"/>
<path id="Vector 88_11" d="M46.9043 367.907L43.8901 374.457" stroke="#EFE602" stroke-width="1.5" stroke-linejoin="round"/>
<path id="Vector 89_11" d="M50.6611 369.635L47.6469 376.184" stroke="#EFE602" stroke-width="1.5" stroke-linejoin="round"/>
<path id="Vector 90_11" d="M54.0713 372.114L51.0571 378.664" stroke="#EFE602" stroke-width="1.5" stroke-linejoin="round"/>
<path id="Vector 91_11" d="M57.8271 373.844L54.813 380.393" stroke="#EFE602" stroke-width="1.5" stroke-linejoin="round"/>
<path id="Vector 92_11" d="M61.583 375.572L58.5688 382.122" stroke="#EFE602" stroke-width="1.5" stroke-linejoin="round"/>
<path id="Vector 93_11" d="M65.6846 376.55L62.6704 383.099" stroke="#EFE602" stroke-width="1.5" stroke-linejoin="round"/>
<path id="Vector 94_11" d="M69.4414 378.278L66.773 384.076" stroke="#EFE602" stroke-width="1.5" stroke-linejoin="round"/>
<path id="Vector 95_11" d="M73.543 379.256L71.2202 384.303" stroke="#EFE602" stroke-width="1.5" stroke-linejoin="round"/>
<path id="Vector 96_11" d="M77.6445 380.233L75.3218 385.28" stroke="#EFE602" stroke-width="1.5" stroke-linejoin="round"/>
<path id="Vector 97_11" d="M87.5771 378.432L84.8113 384.441" stroke="#EFE602" stroke-width="1.5" stroke-linejoin="round"/>
<path id="Vector 98_11" d="M82.4375 379.708L79.769 385.506" stroke="#EFE602" stroke-width="1.5" stroke-linejoin="round"/>
</g>
</g>
<g id="Group 2794">
<path id="Vector_24" d="M326.112 380.91C341.662 371.26 350.408 357.216 345.645 349.542L341.943 343.576L285.631 378.521L289.332 384.486C294.095 392.161 310.561 390.559 326.112 380.91Z" fill="white" stroke="#EFE602" stroke-width="1.5" stroke-miterlimit="10" stroke-linejoin="round"/>
<path id="Vector_25" d="M342.281 344.121C337.519 336.447 321.052 338.048 305.502 347.698C289.952 357.348 281.206 371.391 285.968 379.066C290.73 386.74 307.197 385.138 322.747 375.489C338.298 365.839 347.043 351.795 342.281 344.121Z" fill="white" stroke="#EFE602" stroke-width="1.5" stroke-miterlimit="10" stroke-linejoin="round"/>
<g id="Group 2793_12">
<path id="Vector 84_12" d="M293.504 383.366L297.305 389.492" stroke="#EFE602" stroke-width="1.5" stroke-linejoin="round"/>
<path id="Vector 85_12" d="M298.762 383.997L302.127 389.42" stroke="#EFE602" stroke-width="1.5" stroke-linejoin="round"/>
<path id="Vector 86_12" d="M303.364 383.573L304.611 385.582L306.512 388.645" stroke="#EFE602" stroke-width="1.5" stroke-linejoin="round"/>
<path id="Vector 87_12" d="M307.096 381.745L310.897 387.871" stroke="#EFE602" stroke-width="1.5" stroke-linejoin="round"/>
<path id="Vector 88_12" d="M311.481 380.97L315.283 387.096" stroke="#EFE602" stroke-width="1.5" stroke-linejoin="round"/>
<path id="Vector 89_12" d="M314.995 378.79L318.797 384.916" stroke="#EFE602" stroke-width="1.5" stroke-linejoin="round"/>
<path id="Vector 90_12" d="M318.944 377.312L322.746 383.438" stroke="#EFE602" stroke-width="1.5" stroke-linejoin="round"/>
<path id="Vector 91_12" d="M322.457 375.133L326.258 381.259" stroke="#EFE602" stroke-width="1.5" stroke-linejoin="round"/>
<path id="Vector 92_12" d="M325.971 372.952L329.772 379.078" stroke="#EFE602" stroke-width="1.5" stroke-linejoin="round"/>
<path id="Vector 93_12" d="M329.048 370.069L332.849 376.195" stroke="#EFE602" stroke-width="1.5" stroke-linejoin="round"/>
<path id="Vector 94_12" d="M332.562 367.89L335.927 373.313" stroke="#EFE602" stroke-width="1.5" stroke-linejoin="round"/>
<path id="Vector 95_12" d="M335.639 365.007L338.568 369.728" stroke="#EFE602" stroke-width="1.5" stroke-linejoin="round"/>
<path id="Vector 96_12" d="M338.716 362.123L341.645 366.844" stroke="#EFE602" stroke-width="1.5" stroke-linejoin="round"/>
<path id="Vector 97_12" d="M342.69 352.845L346.179 358.466" stroke="#EFE602" stroke-width="1.5" stroke-linejoin="round"/>
<path id="Vector 98_12" d="M340.921 357.835L344.286 363.258" stroke="#EFE602" stroke-width="1.5" stroke-linejoin="round"/>
</g>
</g>
</g>
</g>
</svg>
