<svg width="65" height="45" viewBox="0 0 65 45" fill="none" xmlns="http://www.w3.org/2000/svg">
<path d="M12.7707 7.36999L11.9207 7.00999C11.9407 6.70332 12.014 6.42332 12.1407 6.16999C12.274 5.90999 12.4473 5.68666 12.6607 5.49999C12.874 5.31332 13.1207 5.16999 13.4007 5.06999C13.6873 4.96332 13.9973 4.90999 14.3307 4.90999C15.1107 4.90999 15.7073 5.10666 16.1207 5.49999C16.534 5.88666 16.7407 6.41332 16.7407 7.07999V10.49H15.9407V7.17999C15.9407 6.65999 15.794 6.26666 15.5007 5.99999C15.214 5.73332 14.834 5.59999 14.3607 5.59999C14.154 5.59999 13.9573 5.62666 13.7707 5.67999C13.5907 5.72666 13.4273 5.79666 13.2807 5.88999C13.134 5.97666 13.0073 6.08666 12.9007 6.21999C12.794 6.34666 12.7173 6.48999 12.6707 6.64999L13.1707 6.84999C13.3107 6.90332 13.4107 6.97332 13.4707 7.05999C13.5373 7.13999 13.5707 7.25332 13.5707 7.39999V10.49H12.7707V7.36999ZM20.4839 10.61C20.1106 10.61 19.7773 10.5433 19.4839 10.41C19.1973 10.2767 18.9539 10.09 18.7539 9.84999C18.5539 9.60332 18.4006 9.30332 18.2939 8.94999C18.1939 8.59666 18.1439 8.19999 18.1439 7.75999C18.1439 7.33332 18.2039 6.94332 18.3239 6.58999C18.4439 6.23666 18.6139 5.93666 18.8339 5.68999C19.0606 5.44332 19.3339 5.25332 19.6539 5.11999C19.9739 4.97999 20.3339 4.90999 20.7339 4.90999C21.0939 4.90999 21.4206 4.96332 21.7139 5.06999C22.0139 5.17666 22.2673 5.32999 22.4739 5.52999C22.6873 5.72332 22.8506 5.95999 22.9639 6.23999C23.0773 6.51332 23.1339 6.81999 23.1339 7.15999V10.49H22.3339V7.26999C22.3339 6.74332 22.1873 6.33332 21.8939 6.03999C21.6073 5.74666 21.2106 5.59999 20.7039 5.59999C20.1706 5.59999 19.7539 5.76332 19.4539 6.08999C19.1539 6.40999 19.0039 6.84666 19.0039 7.39999V8.11999C19.0039 8.70666 19.1373 9.15332 19.4039 9.45999C19.6706 9.76666 20.0806 9.91999 20.6339 9.91999C20.7073 9.91999 20.7806 9.91999 20.8539 9.91999C20.9339 9.91332 21.0139 9.89999 21.0939 9.87999L21.1939 10.55C21.0806 10.5833 20.9606 10.6 20.8339 10.6C20.7073 10.6067 20.5906 10.61 20.4839 10.61ZM26.8707 10.61C26.4973 10.61 26.164 10.5433 25.8707 10.41C25.584 10.2767 25.3407 10.09 25.1407 9.84999C24.9407 9.60332 24.7873 9.30332 24.6807 8.94999C24.5807 8.59666 24.5307 8.19999 24.5307 7.75999C24.5307 7.33332 24.5907 6.94332 24.7107 6.58999C24.8307 6.23666 25.0007 5.93666 25.2207 5.68999C25.4473 5.44332 25.7207 5.25332 26.0407 5.11999C26.3607 4.97999 26.7207 4.90999 27.1207 4.90999C27.4807 4.90999 27.8073 4.96332 28.1007 5.06999C28.4007 5.17666 28.654 5.32999 28.8607 5.52999C29.074 5.72332 29.2373 5.95999 29.3507 6.23999C29.464 6.51332 29.5207 6.81999 29.5207 7.15999V10.49H28.7207V7.26999C28.7207 6.74332 28.574 6.33332 28.2807 6.03999C27.994 5.74666 27.5973 5.59999 27.0907 5.59999C26.5573 5.59999 26.1407 5.76332 25.8407 6.08999C25.5407 6.40999 25.3907 6.84666 25.3907 7.39999V8.11999C25.3907 8.70666 25.524 9.15332 25.7907 9.45999C26.0573 9.76666 26.4673 9.91999 27.0207 9.91999C27.094 9.91999 27.1673 9.91999 27.2407 9.91999C27.3207 9.91332 27.4007 9.89999 27.4807 9.87999L27.5807 10.55C27.4673 10.5833 27.3473 10.6 27.2207 10.6C27.094 10.6067 26.9773 10.61 26.8707 10.61ZM28.1466 13.99C27.7133 13.99 27.3833 13.8767 27.1566 13.65C26.9299 13.4233 26.8166 13.14 26.8166 12.8V12.26H26.1566V11.62H26.9766C27.1766 11.62 27.3233 11.6667 27.4166 11.76C27.5033 11.8533 27.5466 11.9767 27.5466 12.13V12.63C27.5466 12.8567 27.5899 13.0367 27.6766 13.17C27.7633 13.3033 27.9199 13.37 28.1466 13.37C28.3799 13.37 28.5399 13.3033 28.6266 13.17C28.7133 13.0367 28.7566 12.8567 28.7566 12.63V11.62H29.5166V12.75C29.5166 13.1033 29.4033 13.3967 29.1766 13.63C28.9433 13.87 28.5999 13.99 28.1466 13.99ZM33.1274 10.61C32.8207 10.61 32.5407 10.57 32.2874 10.49C32.034 10.41 31.814 10.29 31.6274 10.13C31.4474 9.96999 31.3074 9.76999 31.2074 9.52999C31.1074 9.28332 31.0574 8.99666 31.0574 8.66999C31.0574 8.47666 31.0707 8.30666 31.0974 8.15999C31.1307 8.00666 31.1707 7.86999 31.2174 7.74999C31.2707 7.62332 31.3307 7.50666 31.3974 7.39999C31.464 7.29332 31.5374 7.18999 31.6174 7.08999C31.7574 6.90332 31.874 6.72332 31.9674 6.54999C32.0607 6.37666 32.1074 6.19332 32.1074 5.99999V5.72999H30.9674V5.02999H32.1374C32.384 5.02999 32.5707 5.09666 32.6974 5.22999C32.8307 5.35666 32.8974 5.52666 32.8974 5.73999V5.82999C32.8974 6.06999 32.8507 6.29332 32.7574 6.49999C32.6707 6.69999 32.5407 6.93666 32.3674 7.20999C32.214 7.44332 32.1007 7.65666 32.0274 7.84999C31.954 8.03666 31.9174 8.24332 31.9174 8.46999V8.77999C31.9174 9.17332 32.024 9.46332 32.2374 9.64999C32.4574 9.82999 32.7474 9.91999 33.1074 9.91999C33.494 9.91999 33.794 9.79999 34.0074 9.55999C34.2207 9.31999 34.3274 8.97999 34.3274 8.53999V5.02999H35.1274V8.62999C35.1274 9.23666 34.9574 9.71999 34.6174 10.08C34.2774 10.4333 33.7807 10.61 33.1274 10.61ZM33.5618 3.26999H34.3218V2.89999C34.3218 2.72666 34.2852 2.60666 34.2118 2.53999C34.1318 2.46666 34.0018 2.42999 33.8218 2.42999H33.5618V1.82999H34.1218C34.4218 1.82999 34.6518 1.89666 34.8118 2.02999C34.9652 2.16332 35.0418 2.33999 35.0418 2.55999C35.0418 2.67999 35.0118 2.80666 34.9518 2.93999C34.8918 3.07332 34.7985 3.16999 34.6718 3.22999V3.26999H36.4218V3.86999H33.5618V3.26999ZM38.7752 10.61C38.4552 10.61 38.1552 10.5633 37.8752 10.47C37.5952 10.3767 37.3519 10.2433 37.1452 10.07C36.9385 9.88999 36.7752 9.67999 36.6552 9.43999C36.5352 9.19332 36.4752 8.91999 36.4752 8.61999V8.10999C36.4752 7.90999 36.5152 7.75666 36.5952 7.64999C36.6752 7.53666 36.8452 7.47999 37.1052 7.47999H38.1652V8.16999H37.2852V8.57999C37.2852 8.81332 37.3219 9.01666 37.3952 9.18999C37.4752 9.36332 37.5819 9.50666 37.7152 9.61999C37.8485 9.72666 38.0085 9.80666 38.1952 9.85999C38.3885 9.91332 38.5952 9.93999 38.8152 9.93999C39.3152 9.93999 39.7052 9.78666 39.9852 9.47999C40.2652 9.17332 40.4052 8.74332 40.4052 8.18999V7.36999C40.4052 6.80999 40.2519 6.37666 39.9452 6.06999C39.6452 5.75666 39.2252 5.59999 38.6852 5.59999C38.2719 5.59999 37.9152 5.68332 37.6152 5.84999C37.3152 6.01666 37.0785 6.23999 36.9052 6.51999L36.3852 6.05999C36.5719 5.73332 36.8552 5.45999 37.2352 5.23999C37.6219 5.01999 38.1185 4.90999 38.7252 4.90999C39.5319 4.90999 40.1552 5.16332 40.5952 5.66999C41.0419 6.16999 41.2652 6.86666 41.2652 7.75999C41.2652 8.19332 41.2119 8.58666 41.1052 8.93999C40.9985 9.29332 40.8385 9.59332 40.6252 9.83999C40.4185 10.0867 40.1585 10.2767 39.8452 10.41C39.5385 10.5433 39.1819 10.61 38.7752 10.61ZM45.1404 10.61C44.907 10.61 44.7037 10.58 44.5304 10.52C44.357 10.4667 44.207 10.3933 44.0804 10.3C43.9537 10.2067 43.847 10.1 43.7604 9.97999C43.6804 9.85999 43.6137 9.73332 43.5604 9.59999H43.5104V10.49H42.7104V5.02999H43.5104V8.80999C43.5104 8.99666 43.5504 9.15999 43.6304 9.29999C43.7104 9.43999 43.8137 9.55666 43.9404 9.64999C44.0737 9.74332 44.2204 9.81332 44.3804 9.85999C44.547 9.90666 44.717 9.92999 44.8904 9.92999C45.3304 9.92999 45.6604 9.80332 45.8804 9.54999C46.107 9.28999 46.2204 8.90999 46.2204 8.40999V5.02999H47.0204V8.50999C47.0204 9.18332 46.8537 9.70332 46.5204 10.07C46.187 10.43 45.727 10.61 45.1404 10.61ZM45.6466 13.99C45.2133 13.99 44.8833 13.8767 44.6566 13.65C44.4299 13.4233 44.3166 13.14 44.3166 12.8V12.26H43.6566V11.62H44.4766C44.6766 11.62 44.8233 11.6667 44.9166 11.76C45.0033 11.8533 45.0466 11.9767 45.0466 12.13V12.63C45.0466 12.8567 45.0899 13.0367 45.1766 13.17C45.2633 13.3033 45.4199 13.37 45.6466 13.37C45.8799 13.37 46.0399 13.3033 46.1266 13.17C46.2133 13.0367 46.2566 12.8567 46.2566 12.63V11.62H47.0166V12.75C47.0166 13.1033 46.9033 13.3967 46.6766 13.63C46.4433 13.87 46.0999 13.99 45.6466 13.99ZM50.2674 10.59C49.714 10.59 49.274 10.4533 48.9474 10.18C48.6207 9.90666 48.4574 9.50999 48.4574 8.98999C48.4574 8.48332 48.6174 8.09332 48.9374 7.81999C49.264 7.54666 49.7074 7.40999 50.2674 7.40999H52.0074V6.88999C52.0074 6.02999 51.5374 5.59999 50.5974 5.59999C50.1974 5.59999 49.8607 5.68332 49.5874 5.84999C49.3207 6.00999 49.104 6.23332 48.9374 6.51999L48.4274 6.06999C48.6007 5.74332 48.8674 5.46999 49.2274 5.24999C49.5874 5.02332 50.0574 4.90999 50.6374 4.90999C51.3307 4.90999 51.864 5.08332 52.2374 5.42999C52.6174 5.76999 52.8074 6.24332 52.8074 6.84999V10.49H52.0074V7.97999H50.4474C50.0874 7.97999 49.8074 8.05666 49.6074 8.20999C49.4074 8.36332 49.3074 8.57999 49.3074 8.85999V9.08999C49.3074 9.38999 49.3974 9.61999 49.5774 9.77999C49.764 9.93332 50.014 10.01 50.3274 10.01C50.4207 10.01 50.4974 10.0067 50.5574 9.99999C50.624 9.99332 50.6774 9.98666 50.7174 9.97999L50.7874 10.53C50.7474 10.55 50.6707 10.5633 50.5574 10.57C50.4507 10.5833 50.354 10.59 50.2674 10.59Z" fill="black"/>
<g clip-path="url(#clip0_7518_7912)">
<path d="M42.0188 33.633C41.9277 33.8746 41.8687 34.1338 41.7409 34.3549C40.988 35.6597 39.1644 35.7199 38.3061 34.4658C37.8202 33.7568 37.366 33.0269 36.8971 32.3064C36.849 32.2246 36.787 32.1516 36.7137 32.0907L36.7137 32.3244C36.7137 35.6485 36.7137 38.9728 36.7137 42.2973C36.7137 43.0943 36.405 43.7339 35.7145 44.1571C35.0241 44.5802 34.2993 44.603 33.5873 44.2188C32.8752 43.8346 32.4985 43.2201 32.4877 42.4208C32.4708 41.1842 32.4827 39.9469 32.4827 38.7099L32.4827 38.4892C31.323 38.9848 30.3674 38.7507 29.604 37.7505C29.5654 37.7772 29.5168 37.8062 29.4713 37.8374C29.0243 38.1478 28.4734 38.276 27.9332 38.1953C27.393 38.1146 26.9051 37.8314 26.571 37.4044C26.464 37.2799 26.3437 37.1673 26.212 37.0686C26.18 37.043 26.1059 37.0663 26.0515 37.0705C25.6493 37.1017 25.2433 37.1848 24.8466 37.1547C24.0026 37.0888 23.3978 36.443 23.2643 35.537C23.2379 35.3485 23.225 35.1585 23.2257 34.9682C23.223 33.4774 23.2403 31.9862 23.2176 30.4958C23.2064 29.7559 23.135 29.0157 23.0717 28.2773C22.8633 25.8095 23.2623 23.4302 24.15 21.1301C24.4541 20.3392 24.5595 19.525 24.6517 18.7005C24.6961 18.2976 24.7289 17.8935 24.7698 17.4902L34.9199 17.4902C34.9714 18.2681 35.0228 19.0459 35.0743 19.8238C35.085 20.0388 35.1604 20.2457 35.2908 20.4181C35.6601 20.9136 36.0133 21.4202 36.3714 21.9245C37.0275 22.8531 37.6064 23.8209 38.0197 24.8817C38.1664 25.2599 38.2853 25.6529 38.4705 26.012C39.4203 27.8519 40.3898 29.6824 41.3477 31.5185C41.6024 32.0064 41.9073 32.4738 42.0234 33.0227L42.0188 33.633ZM25.735 18.5381C25.7068 18.7767 25.6806 18.9955 25.6551 19.2166C25.5756 19.9084 25.4788 20.5911 25.2283 21.2548C24.952 21.9882 24.7266 22.7437 24.5209 23.5C24.0963 25.0521 23.9995 26.6344 24.1392 28.2331C24.2218 29.1803 24.3078 30.1257 24.2909 31.0798C24.2681 32.3609 24.2847 33.6429 24.2862 34.9244C24.2849 35.0703 24.2918 35.2161 24.3067 35.3612C24.3541 35.792 24.5861 36.0946 24.9593 36.1167C25.2603 36.1347 25.5695 36.0756 25.8705 36.0256C26.0388 35.9974 26.1248 35.8686 26.1244 35.691C26.1244 35.4943 26.1337 35.298 26.1337 35.1013C26.1337 34.0545 26.1337 33.0078 26.1364 31.9611C26.1328 31.8475 26.1491 31.7341 26.1846 31.626C26.2299 31.5162 26.3124 31.4254 26.418 31.3691C26.5236 31.3128 26.6458 31.2944 26.7635 31.3173C27.0291 31.3718 27.1946 31.5871 27.195 31.8917C27.1968 33.2937 27.1981 34.6957 27.1989 36.0977C27.1964 36.1862 27.2039 36.2746 27.2213 36.3615C27.3459 36.8883 27.8152 37.218 28.3652 37.1703C28.8762 37.1265 29.2787 36.6961 29.3107 36.156C29.3165 36.0546 29.3107 35.9528 29.3107 35.8511C29.3107 34.5248 29.3107 33.1988 29.3107 31.873C29.3107 31.538 29.5234 31.3123 29.8294 31.31C30.1355 31.3077 30.3581 31.5429 30.3601 31.8837C30.3601 31.9725 30.3601 32.0613 30.3601 32.1505C30.3601 33.6413 30.3601 35.1321 30.3628 36.623C30.3628 37.335 30.9803 37.8244 31.6707 37.6682C32.1554 37.558 32.4773 37.1402 32.4785 36.6008C32.4816 35.0273 32.4785 33.4542 32.4785 31.8807C32.4785 31.549 32.6919 31.3176 32.9945 31.3119C33.3079 31.3066 33.5278 31.5353 33.529 31.8799C33.5331 33.5103 33.5359 35.1407 33.5375 36.7709C33.5375 38.6295 33.5313 40.4885 33.5325 42.3472C33.5328 42.4738 33.553 42.5995 33.5923 42.72C33.7586 43.2239 34.2518 43.506 34.7914 43.4164C35.2862 43.3341 35.647 42.8976 35.647 42.3689C35.647 38.3284 35.646 34.2871 35.6439 30.245C35.6439 29.4826 35.6453 28.7213 35.6482 27.9609C35.6482 27.6918 35.7917 27.4925 36.0237 27.4246C36.388 27.3179 36.7022 27.5668 36.7056 27.9766C36.711 28.6246 36.7056 29.2726 36.7099 29.9179C36.7099 30.0029 36.7218 30.1017 36.7662 30.1703C37.5651 31.4114 38.3681 32.6498 39.1752 33.8853C39.3427 34.1415 39.5855 34.3046 39.9054 34.3218C40.2825 34.3404 40.5866 34.1914 40.7931 33.8826C41.0246 33.5342 41.0146 33.1649 40.8232 32.8001C39.7474 30.7473 38.6711 28.695 37.5941 26.6432C37.5146 26.4907 37.4212 26.3436 37.3664 26.1831C37.0275 25.1897 36.6288 24.2227 36.0391 23.3467C35.471 22.502 34.8728 21.6767 34.2989 20.8355C34.194 20.6779 34.1182 20.5031 34.0751 20.3194C34.0203 20.0929 34.0083 19.8558 33.9867 19.6226C33.9539 19.2646 33.9284 18.9059 33.8995 18.5396L25.735 18.5381Z" fill="black"/>
<path d="M25.7353 18.5379L33.9044 18.5379C33.9334 18.9043 33.9589 19.2622 33.9917 19.6209C34.0133 19.8542 34.0252 20.0913 34.08 20.3177C34.1231 20.5015 34.1989 20.6762 34.3039 20.8338C34.8778 21.6751 35.476 22.5004 36.0441 23.3451C36.6338 24.2218 37.0324 25.1881 37.3713 26.1814C37.4261 26.3419 37.5195 26.4898 37.599 26.6415C38.675 28.6938 39.7514 30.7461 40.8281 32.7984C41.0211 33.1632 41.0304 33.5326 40.798 33.881C40.5923 34.1897 40.2882 34.3384 39.9104 34.3201C39.5904 34.3041 39.3477 34.1398 39.1802 33.8836C38.3725 32.6483 37.5695 31.41 36.7712 30.1686C36.7268 30.1 36.7152 30.0013 36.7148 29.9163C36.7102 29.2683 36.7148 28.6203 36.7106 27.9749C36.7071 27.5651 36.393 27.3162 36.0286 27.423C35.7971 27.4908 35.6543 27.6898 35.6531 27.9593C35.6505 28.7216 35.6491 29.483 35.6489 30.2433C35.6489 34.2839 35.6499 38.3252 35.652 42.3673C35.652 42.896 35.2911 43.3324 34.7963 43.4147C34.256 43.5043 33.7636 43.2222 33.5972 42.7183C33.5579 42.5979 33.5377 42.4721 33.5374 42.3455C33.5374 40.4869 33.5424 38.6278 33.5424 36.7692C33.5424 35.139 33.5396 33.5087 33.5339 31.8782C33.5339 31.5352 33.3128 31.3065 32.9994 31.3103C32.6968 31.316 32.4834 31.5474 32.4834 31.879C32.4834 33.4525 32.4834 35.0257 32.4834 36.5992C32.4834 37.1401 32.1604 37.5579 31.6757 37.6665C30.9871 37.8228 30.3693 37.3333 30.3677 36.6213C30.3639 35.1305 30.3677 33.6397 30.365 32.1489C30.365 32.0601 30.365 31.9712 30.365 31.882C30.365 31.5413 30.1454 31.3061 29.8344 31.3084C29.5233 31.3106 29.3164 31.5371 29.3157 31.8714C29.3141 33.1974 29.3141 34.5234 29.3157 35.8494C29.3157 35.9508 29.3195 36.0526 29.3157 36.1543C29.2836 36.6945 28.8811 37.1248 28.3701 37.1687C27.8202 37.2163 27.3509 36.8866 27.2262 36.3598C27.2089 36.273 27.2014 36.1845 27.2038 36.096C27.202 34.694 27.2007 33.292 27.2 31.89C27.2 31.5851 27.034 31.3701 26.7685 31.3156C26.6507 31.2928 26.5286 31.3111 26.423 31.3674C26.3174 31.4238 26.2349 31.5146 26.1896 31.6244C26.1541 31.7325 26.1377 31.8458 26.1413 31.9594C26.1379 33.0061 26.1413 34.0529 26.1386 35.0996C26.1386 35.2963 26.1286 35.4926 26.1294 35.6893C26.1294 35.8669 26.0437 35.9942 25.8754 36.024C25.5744 36.0739 25.2653 36.133 24.9642 36.1151C24.591 36.093 24.3591 35.7903 24.3116 35.3596C24.2967 35.2144 24.2899 35.0686 24.2912 34.9227C24.2912 33.6412 24.273 32.3593 24.2958 31.0781C24.3128 30.1252 24.2267 29.1787 24.1441 28.2314C24.0044 26.6328 24.1009 25.0505 24.5258 23.4983C24.7331 22.742 24.9569 21.9865 25.2332 21.2531C25.4837 20.5895 25.5806 19.9068 25.6601 19.2149C25.6809 18.9954 25.7072 18.7762 25.7353 18.5379Z" fill="white"/>
</g>
<defs>
<clipPath id="clip0_7518_7912">
<rect width="19" height="27" fill="white" transform="translate(42.0195 44.49) rotate(-180)"/>
</clipPath>
</defs>
</svg>
