<svg width="131" height="29" viewBox="0 0 131 29" fill="none" xmlns="http://www.w3.org/2000/svg">
<rect x="0.554688" y="0.35498" width="26.3768" height="7.53623" fill="#FFFCAF"/>
<rect x="0.554688" y="0.35498" width="26.3768" height="7.53623" stroke="black" stroke-width="0.471014"/>
<rect x="26.4609" y="0.35498" width="26.3768" height="7.53623" fill="#FFF846"/>
<rect x="26.4609" y="0.35498" width="26.3768" height="7.53623" stroke="black" stroke-width="0.471014"/>
<rect x="52.3672" y="0.35498" width="26.3768" height="7.53623" fill="#EFE602"/>
<rect x="52.3672" y="0.35498" width="26.3768" height="7.53623" stroke="black" stroke-width="0.471014"/>
<rect x="78.2734" y="0.35498" width="26.3768" height="7.53623" fill="#D0C800"/>
<rect x="78.2734" y="0.35498" width="26.3768" height="7.53623" stroke="black" stroke-width="0.471014"/>
<rect x="104.18" y="0.35498" width="26.3768" height="7.53623" fill="#ACA500"/>
<rect x="104.18" y="0.35498" width="26.3768" height="7.53623" stroke="black" stroke-width="0.471014"/>
<path d="M1.61069 22.8911V22.0031H3.95069V15.2591H3.86669L1.75469 17.2271L1.16669 16.5911L3.38669 14.5151H4.95869V22.0031H7.11869V22.8911H1.61069ZM13.5259 23.0111C12.8619 23.0111 12.3339 22.8471 11.9419 22.5191C11.5499 22.1911 11.3539 21.7151 11.3539 21.0911C11.3539 20.4831 11.5459 20.0151 11.9299 19.6871C12.3219 19.3591 12.8539 19.1951 13.5259 19.1951H15.6139V18.5711C15.6139 17.5391 15.0499 17.0231 13.9219 17.0231C13.4419 17.0231 13.0379 17.1231 12.7099 17.3231C12.3899 17.5151 12.1299 17.7831 11.9299 18.1271L11.3179 17.5871C11.5259 17.1951 11.8459 16.8671 12.2779 16.6031C12.7099 16.3311 13.2739 16.1951 13.9699 16.1951C14.8019 16.1951 15.4419 16.4031 15.8899 16.8191C16.3459 17.2271 16.5739 17.7951 16.5739 18.5231V22.8911H15.6139V19.8791H13.7419C13.3099 19.8791 12.9739 19.9711 12.7339 20.1551C12.4939 20.3391 12.3739 20.5991 12.3739 20.9351V21.2111C12.3739 21.5711 12.4819 21.8471 12.6979 22.0391C12.9219 22.2231 13.2219 22.3151 13.5979 22.3151C13.7099 22.3151 13.8019 22.3111 13.8739 22.3031C13.9539 22.2951 14.0179 22.2871 14.0659 22.2791L14.1499 22.9391C14.1019 22.9631 14.0099 22.9791 13.8739 22.9871C13.7459 23.0031 13.6299 23.0111 13.5259 23.0111ZM14.6902 14.2271H15.6022V13.7831C15.6022 13.5751 15.5582 13.4311 15.4702 13.3511C15.3742 13.2631 15.2182 13.2191 15.0022 13.2191H14.6902V12.4991H15.3622C15.7222 12.4991 15.9982 12.5791 16.1902 12.7391C16.3742 12.8991 16.4662 13.1111 16.4662 13.3751C16.4662 13.5191 16.4302 13.6711 16.3582 13.8311C16.2862 13.9911 16.1742 14.1071 16.0222 14.1791V14.2271H18.1222V14.9471H14.6902V14.2271ZM21.294 18.3911C21.294 17.4711 20.818 17.0111 19.866 17.0111C19.482 17.0111 19.166 17.0951 18.918 17.2631C18.678 17.4311 18.474 17.6551 18.306 17.9351L17.718 17.4191C17.902 17.0671 18.17 16.7751 18.522 16.5431C18.882 16.3111 19.35 16.1951 19.926 16.1951C20.678 16.1951 21.254 16.3791 21.654 16.7471C22.054 17.1151 22.254 17.6351 22.254 18.3071V22.8911H21.294V18.3911ZM26.3988 23.0351C25.7028 23.0351 25.1588 22.8151 24.7668 22.3751C24.3748 21.9351 24.1788 21.3151 24.1788 20.5151V16.3391H25.1388V20.3951C25.1388 21.6111 25.6588 22.2191 26.6988 22.2191C26.8988 22.2191 27.0988 22.1911 27.2988 22.1351C27.4988 22.0791 27.6748 21.9951 27.8268 21.8831C27.9788 21.7711 28.1028 21.6311 28.1988 21.4631C28.2948 21.2951 28.3428 21.0991 28.3428 20.8751V16.3391H29.3028V22.0511H30.0708V22.8911H29.3628C29.0428 22.8911 28.8068 22.7951 28.6548 22.6031C28.5108 22.4111 28.4268 22.1671 28.4028 21.8711H28.3548C28.2268 22.2391 27.9868 22.5271 27.6348 22.7351C27.2908 22.9351 26.8788 23.0351 26.3988 23.0351Z" fill="black"/>
<path d="M99.814 22.8911H94.318V21.8591L97.054 19.3391C97.446 18.9791 97.774 18.5991 98.038 18.1991C98.302 17.7911 98.434 17.3831 98.434 16.9751V16.8311C98.434 16.3671 98.306 15.9911 98.05 15.7031C97.794 15.4151 97.406 15.2711 96.886 15.2711C96.63 15.2711 96.406 15.3071 96.214 15.3791C96.022 15.4511 95.854 15.5511 95.71 15.6791C95.574 15.8071 95.458 15.9591 95.362 16.1351C95.274 16.3031 95.202 16.4871 95.146 16.6871L94.246 16.3391C94.326 16.0911 94.434 15.8511 94.57 15.6191C94.714 15.3791 94.89 15.1671 95.098 14.9831C95.314 14.7991 95.57 14.6511 95.866 14.5391C96.17 14.4271 96.526 14.3711 96.934 14.3711C97.342 14.3711 97.706 14.4311 98.026 14.5511C98.346 14.6711 98.614 14.8391 98.83 15.0551C99.046 15.2711 99.21 15.5271 99.322 15.8231C99.442 16.1191 99.502 16.4471 99.502 16.8071C99.502 17.1351 99.454 17.4391 99.358 17.7191C99.27 17.9991 99.146 18.2671 98.986 18.5231C98.826 18.7711 98.63 19.0151 98.398 19.2551C98.174 19.4951 97.93 19.7351 97.666 19.9751L95.41 22.0031H99.814V22.8911ZM104.213 23.0351C103.213 23.0351 102.481 22.6551 102.017 21.8951C101.561 21.1351 101.333 20.0711 101.333 18.7031C101.333 17.3351 101.561 16.2711 102.017 15.5111C102.481 14.7511 103.213 14.3711 104.213 14.3711C105.213 14.3711 105.941 14.7511 106.397 15.5111C106.861 16.2711 107.093 17.3351 107.093 18.7031C107.093 20.0711 106.861 21.1351 106.397 21.8951C105.941 22.6551 105.213 23.0351 104.213 23.0351ZM104.213 22.1591C104.541 22.1591 104.821 22.0911 105.053 21.9551C105.285 21.8191 105.473 21.6271 105.617 21.3791C105.761 21.1311 105.865 20.8391 105.929 20.5031C106.001 20.1671 106.037 19.7951 106.037 19.3871V18.0191C106.037 17.6111 106.001 17.2391 105.929 16.9031C105.865 16.5671 105.761 16.2751 105.617 16.0271C105.473 15.7791 105.285 15.5871 105.053 15.4511C104.821 15.3151 104.541 15.2471 104.213 15.2471C103.885 15.2471 103.605 15.3151 103.373 15.4511C103.141 15.5871 102.953 15.7791 102.809 16.0271C102.665 16.2751 102.557 16.5671 102.485 16.9031C102.421 17.2391 102.389 17.6111 102.389 18.0191V19.3871C102.389 19.7951 102.421 20.1671 102.485 20.5031C102.557 20.8391 102.665 21.1311 102.809 21.3791C102.953 21.6271 103.141 21.8191 103.373 21.9551C103.605 22.0911 103.885 22.1591 104.213 22.1591ZM113.585 23.0111C112.921 23.0111 112.393 22.8471 112.001 22.5191C111.609 22.1911 111.413 21.7151 111.413 21.0911C111.413 20.4831 111.605 20.0151 111.989 19.6871C112.381 19.3591 112.913 19.1951 113.585 19.1951H115.673V18.5711C115.673 17.5391 115.109 17.0231 113.981 17.0231C113.501 17.0231 113.097 17.1231 112.769 17.3231C112.449 17.5151 112.189 17.7831 111.989 18.1271L111.377 17.5871C111.585 17.1951 111.905 16.8671 112.337 16.6031C112.769 16.3311 113.333 16.1951 114.029 16.1951C114.861 16.1951 115.501 16.4031 115.949 16.8191C116.405 17.2271 116.633 17.7951 116.633 18.5231V22.8911H115.673V19.8791H113.801C113.369 19.8791 113.033 19.9711 112.793 20.1551C112.553 20.3391 112.433 20.5991 112.433 20.9351V21.2111C112.433 21.5711 112.541 21.8471 112.757 22.0391C112.981 22.2231 113.281 22.3151 113.657 22.3151C113.769 22.3151 113.861 22.3111 113.933 22.3031C114.013 22.2951 114.077 22.2871 114.125 22.2791L114.209 22.9391C114.161 22.9631 114.069 22.9791 113.933 22.9871C113.805 23.0031 113.689 23.0111 113.585 23.0111ZM114.749 14.2271H115.661V13.7831C115.661 13.5751 115.617 13.4311 115.529 13.3511C115.433 13.2631 115.277 13.2191 115.061 13.2191H114.749V12.4991H115.421C115.781 12.4991 116.057 12.5791 116.249 12.7391C116.433 12.8991 116.525 13.1111 116.525 13.3751C116.525 13.5191 116.489 13.6711 116.417 13.8311C116.345 13.9911 116.233 14.1071 116.081 14.1791V14.2271H118.181V14.9471H114.749V14.2271ZM121.353 18.3911C121.353 17.4711 120.877 17.0111 119.925 17.0111C119.541 17.0111 119.225 17.0951 118.977 17.2631C118.737 17.4311 118.533 17.6551 118.365 17.9351L117.777 17.4191C117.961 17.0671 118.229 16.7751 118.581 16.5431C118.941 16.3111 119.409 16.1951 119.985 16.1951C120.737 16.1951 121.313 16.3791 121.713 16.7471C122.113 17.1151 122.313 17.6351 122.313 18.3071V22.8911H121.353V18.3911ZM126.457 23.0351C125.761 23.0351 125.217 22.8151 124.825 22.3751C124.433 21.9351 124.237 21.3151 124.237 20.5151V16.3391H125.197V20.3951C125.197 21.6111 125.717 22.2191 126.757 22.2191C126.957 22.2191 127.157 22.1911 127.357 22.1351C127.557 22.0791 127.733 21.9951 127.885 21.8831C128.037 21.7711 128.161 21.6311 128.257 21.4631C128.353 21.2951 128.401 21.0991 128.401 20.8751V16.3391H129.361V22.0511H130.129V22.8911H129.421C129.101 22.8911 128.865 22.7951 128.713 22.6031C128.569 22.4111 128.485 22.1671 128.461 21.8711H128.413C128.285 22.2391 128.045 22.5271 127.693 22.7351C127.349 22.9351 126.937 23.0351 126.457 23.0351Z" fill="black"/>
</svg>
