<svg width="31" height="51" viewBox="0 0 31 51" fill="none" xmlns="http://www.w3.org/2000/svg">
<rect x="0.632751" y="4.71387" width="29.8181" height="40.9998" rx="2.23635" fill="#F67600"/>
<g clip-path="url(#clip0_6177_8440)">
<path d="M9.22446 26.143C9.9866 25.9161 10.564 26.1449 11.0721 26.6701C11.8595 27.4831 12.6671 28.2775 13.4708 29.0744C14.4202 30.0157 14.8974 31.1425 14.8797 32.4715C14.8722 33.0407 14.8823 33.6094 14.8753 34.1787C14.8734 34.3002 14.9005 34.3616 15.021 34.4168C15.8039 34.7715 16.2004 35.5492 16.0258 36.3615C15.8575 37.1448 15.1521 37.7035 14.3023 37.7072C12.7597 37.7134 11.2171 37.7153 9.67456 37.7072C8.6136 37.701 7.83128 36.9382 7.77454 35.8946C7.73798 35.2205 7.91197 34.6332 8.46987 34.1601C8.31353 34.0026 8.16791 33.85 8.01599 33.7043C7.36353 33.0755 6.84093 32.3605 6.51312 31.5165C6.26537 30.8802 6.11849 30.2235 6.11786 29.5413C6.11534 27.2425 6.11093 24.9431 6.11975 22.6443C6.1229 21.8982 6.7098 21.2682 7.44359 21.1739C8.2133 21.0753 8.92754 21.5138 9.14566 22.2362C9.19924 22.4148 9.21941 22.6089 9.22067 22.7962C9.22761 23.8206 9.22382 24.8451 9.22382 25.8689C9.22382 25.9514 9.22382 26.0339 9.22382 26.143H9.22446ZM13.9367 34.2047C13.9367 33.6162 13.9316 33.0569 13.9379 32.4969C13.9493 31.4092 13.5679 30.4858 12.7837 29.715C11.9597 28.9057 11.1484 28.0834 10.3314 27.2667C10.2829 27.2183 10.2337 27.1693 10.1795 27.1266C9.96958 26.9616 9.68528 26.9405 9.46653 27.0707C9.23391 27.209 9.10531 27.4745 9.18726 27.7355C9.23076 27.8732 9.32658 28.0059 9.42933 28.1113C9.9803 28.6744 10.5426 29.2263 11.0974 29.7857C11.3262 30.0164 11.3401 30.3016 11.1453 30.4932C10.9404 30.6935 10.6655 30.6799 10.4298 30.4455C9.83783 29.8582 9.24904 29.2679 8.66088 28.6769C8.43394 28.4487 8.27004 28.1783 8.24608 27.8583C8.22717 27.5972 8.27067 27.3324 8.2713 27.0695C8.27445 25.6277 8.27508 24.1865 8.27067 22.7447C8.2694 22.3485 8.00905 22.083 7.65729 22.0892C7.30742 22.0961 7.05652 22.3689 7.05652 22.7621C7.05463 25.0076 7.04581 27.2537 7.06157 29.4992C7.06913 30.5528 7.40702 31.5146 8.06642 32.3487C8.34442 32.7003 8.68042 33.0079 8.98175 33.3427C9.215 33.6026 9.45644 33.744 9.84981 33.7663C10.8559 33.8233 11.8564 33.9759 12.8593 34.0888C13.2092 34.1284 13.5591 34.1632 13.9367 34.2035V34.2047ZM11.9881 36.7845C12.7433 36.7845 13.4985 36.7876 14.2538 36.7832C14.7379 36.7807 15.0903 36.4694 15.1111 36.0378C15.1332 35.5814 14.8199 35.2453 14.3313 35.1932C13.8642 35.1436 13.3977 35.0865 12.9312 35.0345C11.8828 34.9179 10.8345 34.8013 9.78551 34.6859C9.43753 34.6475 9.13746 34.7523 8.92754 35.0282C8.63693 35.4102 8.63945 35.8431 8.82352 36.2573C8.99562 36.6443 9.34675 36.7869 9.76849 36.7851C10.5086 36.7807 11.248 36.7838 11.9881 36.7838V36.7845Z" fill="white"/>
<path d="M23.8566 26.1444C23.8566 26.0427 23.8566 25.9621 23.8566 25.8815C23.8566 24.8118 23.8503 23.742 23.8597 22.6717C23.866 21.9375 24.3886 21.3328 25.118 21.1859C25.8202 21.0445 26.561 21.4203 26.8352 22.0838C26.9171 22.2822 26.96 22.5092 26.9606 22.7238C26.9695 24.9618 26.9726 27.2005 26.9632 29.4385C26.9562 31.031 26.358 32.3922 25.2333 33.5308C25.0304 33.736 24.8028 33.9177 24.5733 34.1224C25.3008 34.7543 25.4262 35.5009 25.2422 36.3102C25.0543 37.1343 24.3136 37.7005 23.4411 37.7061C21.8834 37.716 20.3251 37.7142 18.7667 37.7073C17.9214 37.7036 17.2115 37.1312 17.0527 36.3505C16.8856 35.5301 17.2872 34.7636 18.0689 34.4083C18.1099 34.3897 18.1508 34.3704 18.2025 34.3462C18.2025 33.7181 18.2082 33.0892 18.2013 32.4604C18.1868 31.1402 18.6596 30.0196 19.6033 29.0838C20.3913 28.3031 21.1868 27.5292 21.9521 26.7273C22.4779 26.1773 23.0629 25.8988 23.8566 26.1438V26.1444ZM19.1368 34.1906C19.237 34.1906 19.2912 34.1956 19.3435 34.19C20.477 34.0628 21.6098 33.9363 22.7426 33.8061C23.0862 33.7664 23.4714 33.7987 23.7601 33.6511C24.0652 33.4948 24.277 33.1618 24.5311 32.9075C25.5315 31.906 26.0258 30.703 26.0251 29.3002C26.0239 27.1534 26.0251 25.0059 26.0232 22.859C26.0232 22.7461 26.0182 22.6295 25.9879 22.5222C25.8789 22.1415 25.4363 21.9753 25.0965 22.1824C24.8772 22.3157 24.8059 22.5222 24.8059 22.7653C24.8078 24.1916 24.8059 25.6179 24.8078 27.0442C24.8078 27.1422 24.8242 27.2408 24.8412 27.3375C24.92 27.7896 24.8337 28.2181 24.5216 28.5505C23.8938 29.219 23.2394 29.8633 22.5825 30.5039C22.3461 30.7346 21.949 30.6403 21.8342 30.347C21.7466 30.1225 21.8254 29.9384 21.9937 29.7722C22.5491 29.224 23.1032 28.6745 23.6479 28.1164C23.7557 28.006 23.8534 27.8634 23.895 27.7189C23.9713 27.4541 23.8332 27.193 23.5968 27.0634C23.344 26.9252 23.0503 26.9704 22.8177 27.2024C21.9231 28.0929 21.0299 28.984 20.1429 29.8819C19.7104 30.3197 19.4198 30.8431 19.2685 31.436C19.0378 32.3407 19.1885 33.2604 19.1361 34.1912L19.1368 34.1906ZM21.0885 36.7852C21.8361 36.7852 22.5838 36.7877 23.3314 36.7846C24.0274 36.7815 24.3905 36.361 24.3634 35.5989C24.342 35.0135 23.8868 34.6272 23.2533 34.6941C21.722 34.8554 20.1908 35.0247 18.6627 35.2126C18.4831 35.2349 18.2883 35.362 18.1571 35.4947C17.9277 35.7267 17.9044 36.028 18.0405 36.3201C18.1861 36.632 18.4541 36.7827 18.8001 36.784C19.5629 36.7877 20.3263 36.7852 21.0891 36.7852H21.0885Z" fill="white"/>
<path d="M10.0509 21.6115C10.055 20.7712 10.2036 19.967 10.6549 19.2411C11.2382 18.303 12.179 17.9079 13.3039 18.0968C14.463 18.2916 15.4433 18.8206 16.2843 19.6282C16.516 19.8511 16.5408 19.8505 16.7711 19.6295C17.6992 18.7429 18.7786 18.1738 20.0743 18.066C21.2347 17.9695 22.1816 18.5541 22.6396 19.7045C23.2529 21.2459 23.1117 22.7767 22.4012 24.2431C21.2374 26.6463 19.3391 28.2902 16.9298 29.3783C16.674 29.4942 16.4062 29.5035 16.1511 29.3884C13.6501 28.2607 11.7089 26.5439 10.5478 24.0194C10.1976 23.2581 10.0476 22.4485 10.0503 21.6102L10.0509 21.6115ZM22.2043 21.87C22.2023 20.9198 22.0905 20.2509 21.7135 19.6509C21.3526 19.0757 20.835 18.8065 20.1506 18.8641C19.0545 18.9572 18.1405 19.436 17.3557 20.1833C16.7798 20.7323 16.2756 20.7343 15.7011 20.1819C15.0683 19.5739 14.3344 19.146 13.4746 18.9465C12.2566 18.6639 11.4698 19.0563 11.0835 20.19C10.6777 21.3819 10.7761 22.5751 11.2904 23.7054C12.3377 26.0068 14.1135 27.5751 16.3888 28.6096C16.4785 28.6505 16.6218 28.6357 16.7162 28.5929C18.4478 27.8074 19.8928 26.6651 20.985 25.0995C21.7149 24.0536 22.2251 22.926 22.2043 21.8687V21.87Z" fill="white"/>
<path d="M16.9297 14.7157C16.9297 15.2246 16.9317 15.7335 16.929 16.2417C16.9276 16.5424 16.7823 16.7165 16.5379 16.7219C16.2828 16.7272 16.1295 16.5491 16.1288 16.235C16.1268 15.2259 16.1275 14.2168 16.1288 13.2077C16.1288 12.8944 16.2821 12.7109 16.5326 12.7129C16.7817 12.7149 16.929 12.8977 16.9297 13.2144C16.9317 13.7146 16.9297 14.2155 16.9297 14.7157Z" fill="white"/>
<path d="M14.4845 16.3819C14.376 16.4903 14.2849 16.635 14.1544 16.6979C13.9809 16.7816 13.8048 16.7046 13.7044 16.5345C13.612 16.3779 13.543 16.2064 13.466 16.041C13.2129 15.4987 12.9591 14.9556 12.7087 14.4119C12.5774 14.1266 12.637 13.9003 12.8627 13.7958C13.0924 13.6894 13.2959 13.7865 13.4332 14.0777C13.7452 14.74 14.0546 15.4029 14.362 16.0672C14.3995 16.1488 14.4195 16.2386 14.4477 16.3243C14.4604 16.343 14.4731 16.3624 14.4852 16.3812L14.4845 16.3819Z" fill="white"/>
<path d="M19.933 13.7608C20.3394 13.7587 20.5129 14.0527 20.3709 14.3674C20.1386 14.883 19.8942 15.3933 19.6551 15.9055C19.5674 16.0937 19.485 16.2852 19.3899 16.47C19.2701 16.703 19.0612 16.7834 18.8536 16.6863C18.644 16.5885 18.5616 16.3742 18.6688 16.1372C18.9922 15.4254 19.3176 14.7143 19.6611 14.0125C19.7214 13.89 19.8747 13.813 19.933 13.7608Z" fill="white"/>
<path d="M15.2163 25.4735C14.1309 25.3456 13.6488 24.9539 13.6394 24.1872C13.634 23.7713 13.8021 23.4265 14.1242 23.1593C14.4403 22.8975 14.8193 22.8647 15.2297 22.8808C15.213 22.3491 15.3081 21.877 15.7426 21.5456C15.9978 21.3507 16.2864 21.2657 16.6085 21.2811C17.339 21.3152 17.7213 21.7987 17.8439 22.8828C18.3521 22.8399 18.8409 22.935 19.1389 23.3883C19.2909 23.62 19.3873 23.9213 19.4067 24.1985C19.4349 24.5996 19.2333 24.9358 18.9126 25.1902C18.5992 25.4387 18.2289 25.4701 17.8265 25.4507C17.8459 25.9864 17.7475 26.4565 17.3142 26.7893C17.0591 26.9855 16.7698 27.0678 16.4484 27.0531C15.7192 27.0196 15.3362 26.5335 15.2163 25.4735ZM16.0373 24.6499C16.0373 24.7697 16.0373 24.8601 16.0373 24.9505C16.0379 25.2264 16.0272 25.5023 16.0433 25.7775C16.0594 26.0647 16.2623 26.2502 16.5274 26.2509C16.7919 26.2516 16.9895 26.0661 17.0156 25.7802C17.027 25.6556 17.0196 25.5297 17.0203 25.4045C17.0203 25.1581 17.0203 24.9117 17.0203 24.6505C17.3872 24.6505 17.712 24.6519 18.0367 24.6505C18.3936 24.6485 18.6159 24.463 18.6173 24.1704C18.6186 23.8778 18.395 23.689 18.0394 23.6863C17.7079 23.6843 17.3765 23.6863 17.0203 23.6863C17.0203 23.5658 17.0203 23.476 17.0203 23.3863C17.0196 23.1104 17.0303 22.8346 17.0142 22.5593C16.9975 22.2728 16.7939 22.0866 16.5294 22.0859C16.2643 22.0859 16.0674 22.2714 16.042 22.5573C16.0306 22.6819 16.0379 22.8078 16.0373 22.933C16.0373 23.1794 16.0373 23.4252 16.0373 23.6863C15.661 23.6863 15.3275 23.6836 14.9947 23.687C14.6592 23.6903 14.4403 23.8825 14.4403 24.1677C14.4403 24.4537 14.6586 24.6472 14.9934 24.6499C15.3268 24.6532 15.6596 24.6505 16.0379 24.6505L16.0373 24.6499Z" fill="white"/>
</g>
<defs>
<clipPath id="clip0_6177_8440">
<rect width="25" height="25" fill="white" transform="translate(4.04175 12.7129)"/>
</clipPath>
</defs>
</svg>
