<svg width="31" height="51" viewBox="0 0 31 51" fill="none" xmlns="http://www.w3.org/2000/svg">
<rect x="0.632736" y="4.71387" width="29.8181" height="40.9998" rx="2.23635" fill="#FF9FDF"/>
<g clip-path="url(#clip0_6177_8441)">
<path d="M28.6204 33.7106C28.6154 33.7019 28.6104 33.6931 28.6048 33.6844C28.6023 33.6806 28.5998 33.6769 28.5979 33.6731C28.2975 32.4289 27.5266 31.8242 26.2424 31.8242H25.6265C20.1759 31.8242 14.5398 31.8242 8.99612 31.828C8.81685 31.828 8.63945 31.8642 8.49641 31.9298C7.68937 32.2996 6.87172 32.68 6.08093 33.0485C5.65118 33.2484 5.22205 33.4483 4.7923 33.6475C4.66425 33.7069 4.44937 33.8062 4.44875 34.0723C4.44812 34.3384 4.663 34.4383 4.7923 34.4977C5.19644 34.6844 5.59996 34.8725 6.00347 35.0605C6.79239 35.4278 7.60817 35.8075 8.41333 36.1742C8.61571 36.2666 8.83996 36.3172 9.04359 36.3179C12.9426 36.3229 16.8909 36.3235 20.7756 36.3235C21.9799 36.3235 23.1785 36.3235 24.3672 36.3235H26.1968H26.2336C26.3236 36.3235 26.4167 36.3235 26.5097 36.3166C27.4679 36.2417 28.1276 35.7769 28.4711 34.9349C28.5198 34.8156 28.5529 34.6919 28.5854 34.572C28.5998 34.5189 28.6141 34.4652 28.6298 34.4127C28.6329 34.4009 28.6348 34.389 28.6348 34.3771V33.7693C28.6348 33.7494 28.6298 33.7294 28.6204 33.7113V33.7106ZM9.29032 33.6413V32.6806H24.5933V33.6413H9.29032ZM24.5946 34.5058V35.4702H9.29469V34.5058H24.5946ZM27.779 34.2765C27.7115 34.9362 27.1887 35.4371 26.5366 35.4684C26.2693 35.4815 26.0044 35.4777 25.7233 35.4746C25.6359 35.4734 25.5478 35.4727 25.4591 35.4721V32.6475C25.5759 32.6519 25.6915 32.6544 25.8051 32.6562C26.1543 32.6631 26.4841 32.67 26.8046 32.7318C27.4586 32.8586 27.859 33.4939 27.779 34.2759V34.2765ZM8.4227 32.9017V35.2447L5.86418 34.0742L8.4227 32.9017Z" fill="white"/>
<path d="M5.31887 30.519H27.7384C28.2612 30.519 28.3737 30.406 28.3737 29.8819V18.0525C28.3737 17.3404 28.3156 17.2829 27.5941 17.2829H26.1618V17.1517C26.1618 16.9787 26.1612 16.8057 26.1599 16.632C26.1581 16.2129 26.1556 15.7794 26.1662 15.3547C26.1737 15.0642 26.0513 14.8818 25.7702 14.7631C24.1955 14.0985 22.5464 13.9367 20.7293 14.2684C19.5044 14.492 18.2233 14.9124 16.6973 15.5908C16.5817 15.642 16.4962 15.642 16.3806 15.5908C15.0276 14.9942 13.8939 14.6032 12.8108 14.3621C10.8251 13.9192 9.04547 14.041 7.37206 14.7344C6.94043 14.9137 6.90608 14.9661 6.90545 15.4365V16.7301V17.2823H5.31637C4.81104 17.2823 4.68736 17.4047 4.68736 17.9038C4.68736 21.9015 4.68736 25.8992 4.68736 29.8969C4.68736 30.391 4.81729 30.5184 5.31887 30.5184V30.519ZM26.1631 27.6769C26.1631 27.6575 26.1631 27.6376 26.1631 27.6182V18.1299H27.531V29.6595H18.0721C18.1083 29.6402 18.1452 29.6208 18.1814 29.6008C18.4994 29.4309 18.8279 29.2547 19.1596 29.1067C21.1697 28.2091 23.2953 27.913 25.4778 28.2285C25.5434 28.2378 25.6203 28.2485 25.6977 28.2528C25.9713 28.2678 26.1437 28.1129 26.1618 27.8362C26.1656 27.7818 26.1643 27.7281 26.1643 27.6769H26.1631ZM25.3435 15.6045C25.3392 18.6534 25.3392 21.7535 25.3392 24.7511V27.2684C25.3392 27.2953 25.3379 27.3234 25.336 27.3527C22.3297 27.0516 19.5113 27.7219 16.954 29.3447V27.2184C16.954 23.7286 16.954 20.12 16.949 16.5708C16.949 16.4165 16.9803 16.3678 17.1183 16.3091C18.3057 15.8063 19.5975 15.3084 20.9942 15.0742C21.5214 14.9855 22.0298 14.9412 22.5233 14.9412C23.4734 14.9412 24.3672 15.1054 25.2267 15.4365C25.3279 15.4752 25.3448 15.499 25.3448 15.6039L25.3435 15.6045ZM12.8758 28.6976C13.6153 28.9437 14.3287 29.2672 14.9989 29.662H5.53937V18.1337H6.90545L6.9067 20.656C6.90795 22.999 6.9092 25.3414 6.91045 27.6844C6.91045 27.9124 6.93356 28.0729 7.04537 28.1698C7.15843 28.2672 7.31834 28.2659 7.54009 28.2335C9.34592 27.9655 11.1411 28.1217 12.8751 28.6982L12.8758 28.6976ZM16.1295 16.8663C16.1239 16.9431 16.1183 17.0224 16.1183 17.098C16.1201 20.4348 16.1207 23.771 16.1214 27.1079V29.336C13.8327 27.9486 11.5478 27.2653 9.18226 27.2653C8.70691 27.2653 8.22781 27.2928 7.74559 27.3477V15.4871C8.66319 15.1061 9.66198 14.9224 10.7151 14.9412C12.4953 14.9736 14.1063 15.5452 15.4474 16.1011C15.518 16.1305 15.5948 16.1561 15.6691 16.1804C15.8428 16.2379 16.0214 16.2966 16.0889 16.3966C16.1557 16.4959 16.142 16.6845 16.1295 16.8669V16.8663Z" fill="white"/>
<path d="M18.4057 18.991C18.1933 19.1752 18.1577 19.3938 18.307 19.6068C18.3701 19.6968 18.445 19.7493 18.53 19.7636C18.5456 19.7661 18.5612 19.7674 18.5762 19.7674C18.6893 19.7674 18.7911 19.7005 18.8792 19.6362C20.0997 18.7436 21.487 18.2964 22.9961 18.3107H23.1773C23.3122 18.3107 23.4478 18.312 23.5827 18.3107C24.0012 18.3063 24.0637 18.0403 24.063 17.8822C24.063 17.7498 24.023 17.6455 23.9456 17.5718C23.86 17.4912 23.7351 17.455 23.5733 17.4643C23.404 17.4737 23.2348 17.4825 23.0661 17.4906C22.5189 17.5174 21.953 17.5455 21.4002 17.6174C20.3008 17.7604 19.2933 18.2226 18.4063 18.9916L18.4057 18.991Z" fill="white"/>
<path d="M23.6152 24.0019C23.3609 23.9987 23.1042 24.0044 22.8868 24.01C21.7912 24.0393 20.9661 24.1749 20.2121 24.4504C19.5619 24.6877 18.9635 25.0469 18.3844 25.5497C18.1864 25.7215 18.1596 25.9401 18.3101 26.1506C18.3732 26.2387 18.4488 26.2905 18.5343 26.3043C18.55 26.3068 18.5649 26.308 18.5799 26.308C18.6899 26.308 18.7879 26.2468 18.8635 26.1912C20.0728 25.3005 21.442 24.8489 22.9355 24.8489C22.9474 24.8489 22.9612 24.8489 22.9712 24.8489C23.0355 24.8489 23.0992 24.8489 23.1635 24.8489C23.3103 24.8489 23.4565 24.8501 23.6033 24.8476C23.8931 24.8433 24.0624 24.6915 24.0674 24.431C24.0699 24.3042 24.0343 24.2018 23.9618 24.1274C23.8831 24.0462 23.7669 24.0044 23.6158 24.0025L23.6152 24.0019Z" fill="white"/>
<path d="M18.5749 23.0337C18.6986 23.0337 18.8104 22.9525 18.8841 22.8988C20.0897 22.0205 21.4527 21.5752 22.9355 21.5752C22.943 21.5752 22.9499 21.5752 22.9574 21.5752C23.0249 21.5764 23.0898 21.5752 23.156 21.5758C23.3066 21.5764 23.4615 21.577 23.6145 21.5739C23.7663 21.5708 23.8825 21.5271 23.9606 21.4446C24.033 21.3684 24.0674 21.2647 24.0624 21.1367C24.053 20.8762 23.8919 20.7275 23.6195 20.7275C22.7494 20.7275 21.8149 20.7588 20.8755 20.9811C19.9641 21.1966 19.1315 21.6289 18.4013 22.2648C18.1914 22.4472 18.1577 22.692 18.3151 22.8882C18.4019 22.9962 18.4912 23.0337 18.5749 23.0337Z" fill="white"/>
<path d="M14.8127 19.1707C14.769 19.1007 14.7234 19.0289 14.651 18.9808C14.5242 18.8971 14.3961 18.809 14.2724 18.7234C13.9264 18.4842 13.5685 18.2368 13.1818 18.0551C11.9819 17.4916 10.7089 17.4542 9.404 17.4629C9.16726 17.4648 9.01548 17.6203 9.00736 17.8695C8.99924 18.1182 9.1454 18.2818 9.39838 18.3068C9.46834 18.3137 9.53642 18.3112 9.60139 18.308L9.62512 18.3068C11.4041 18.2375 12.9151 18.6791 14.2406 19.6591C14.3055 19.7072 14.4061 19.7397 14.4992 19.7397C14.5491 19.7397 14.5972 19.7303 14.6372 19.7091C14.7234 19.6623 14.7721 19.5779 14.819 19.4961C14.8365 19.4655 14.8546 19.4336 14.8746 19.4049C14.9046 19.3612 14.9033 19.3031 14.8721 19.26C14.8509 19.2313 14.8315 19.2 14.8127 19.1707Z" fill="white"/>
<path d="M14.6641 25.5309C14.5954 25.4816 14.5267 25.431 14.458 25.381C14.1513 25.1568 13.8346 24.925 13.4948 24.7401C12.3923 24.143 11.1611 24.0331 9.99491 24.0037C9.94681 24.0024 9.89622 24.0037 9.84125 24.0031C9.70321 24.0018 9.54642 24.0006 9.38839 24.0056C9.16477 24.0124 9.01923 24.163 9.00861 24.3991C8.99736 24.6483 9.13104 24.8126 9.36652 24.8382C9.44398 24.8463 9.51956 24.8451 9.59202 24.8426C9.61513 24.8426 9.63824 24.8413 9.66073 24.8413C10.5796 24.8313 11.7764 24.8888 12.8807 25.4216C13.2786 25.6134 13.664 25.8545 14.0376 26.0881C14.1107 26.1337 14.1831 26.1793 14.2562 26.2243C14.3424 26.2774 14.4211 26.3042 14.4948 26.3042C14.5935 26.3042 14.6816 26.2561 14.7603 26.1593C14.8377 26.0644 14.8721 25.9501 14.8577 25.8364C14.8421 25.7183 14.7734 25.6103 14.6641 25.5309Z" fill="white"/>
<path d="M9.40088 21.5703C9.56079 21.5765 9.72257 21.5746 9.87873 21.5734C9.94682 21.5734 10.0143 21.5721 10.0824 21.5721C10.113 21.5721 10.1417 21.5609 10.1636 21.5422C10.3072 21.5615 10.4515 21.5796 10.5958 21.5971C10.975 21.644 11.3672 21.6927 11.7458 21.7677C12.5553 21.9282 13.3461 22.298 14.2356 22.9301C14.328 22.9957 14.4174 23.0288 14.5011 23.0288C14.5267 23.0288 14.5517 23.0257 14.576 23.0194C14.6416 23.0032 14.7347 22.9551 14.8015 22.8202C14.9121 22.5984 14.8559 22.3798 14.656 22.2505C14.5192 22.1618 14.3805 22.0675 14.2475 21.9763C13.9039 21.7414 13.5485 21.4991 13.1662 21.3185C11.9956 20.7664 10.7214 20.7264 9.41088 20.7308C9.17164 20.732 9.01736 20.885 9.00799 21.1305C9.00299 21.2529 9.03485 21.3585 9.10043 21.436C9.14915 21.4934 9.24098 21.5634 9.40151 21.5696L9.40088 21.5703Z" fill="white"/>
</g>
<defs>
<clipPath id="clip0_6177_8441">
<rect width="25" height="25" fill="white" transform="translate(4.04175 12.7129)"/>
</clipPath>
</defs>
</svg>
