<svg width="31" height="50" viewBox="0 0 31 50" fill="none" xmlns="http://www.w3.org/2000/svg">
<g clip-path="url(#clip0_6177_8502)">
<rect x="0.878142" y="7.29623" width="28.3272" height="39.5089" rx="1.4909" fill="white"/>
<rect x="0.878142" y="7.29623" width="28.3272" height="39.5089" rx="1.4909" stroke="#BACB37" stroke-width="1.4909"/>
<rect width="26.0908" height="40.9998" rx="2.23635" transform="matrix(0.983255 -0.182236 0 1 0.13269 6.55078)" fill="#BACB37"/>
</g>
<path fill-rule="evenodd" clip-rule="evenodd" d="M7.20602 15.7438C7.28935 15.4605 7.54491 15.2549 7.79491 15.2661C9.85046 15.3772 11.2671 15.9605 12.2227 16.8105C13.1838 17.6661 13.6505 18.7661 13.8394 19.8438C14.0338 20.9161 13.956 21.9661 13.8338 22.7383C13.7727 23.1272 13.7005 23.4494 13.6394 23.6772C13.6116 23.7938 13.5838 23.8827 13.5671 23.9494C13.556 23.9827 13.5505 24.0049 13.5449 24.0272V24.0494L13.5338 24.0549C13.5338 24.0549 13.4153 24.029 13.1782 23.9772L13.5338 24.0549C13.4505 24.3049 13.2338 24.4938 13.006 24.5105C10.9227 24.6827 9.47269 24.2438 8.49491 23.4272C7.51714 22.6161 7.05602 21.4661 6.86713 20.3216C6.6838 19.1827 6.76713 18.0383 6.89491 17.1883C6.95602 16.7605 7.0338 16.3994 7.09491 16.1494C7.12269 16.0216 7.15047 15.9216 7.17269 15.8494C7.1838 15.8161 7.18936 15.7883 7.19492 15.7661V15.7438L7.20602 15.7383C7.20602 15.7383 7.36528 15.7679 7.6838 15.8272L7.20602 15.7383V15.7438ZM12.8282 22.8272C12.8282 22.8272 12.8394 22.7772 12.8394 22.7494C12.9449 22.0661 13.0116 21.1605 12.8505 20.2549C12.6894 19.3549 12.306 18.4494 11.5116 17.7438C10.7838 17.0938 9.68381 16.5883 8.02825 16.4272C7.98381 16.6327 7.9338 16.8883 7.88936 17.1827C7.77269 17.9605 7.70047 18.9661 7.86158 19.9438C8.01714 20.9161 8.40046 21.8383 9.1838 22.4883C9.7838 22.9827 10.6394 23.3438 11.8727 23.4161C11.4449 22.6438 10.9005 21.8661 10.4116 21.2216C10.0894 20.7938 9.78936 20.4327 9.57825 20.1827C9.47269 20.0549 9.3838 19.9549 9.32269 19.8883C9.29491 19.8549 9.26713 19.8272 9.25602 19.8105L9.23936 19.7938V19.7883C9.06158 19.5883 9.08936 19.2327 9.30047 18.9938C9.51158 18.7549 9.8338 18.7161 10.0116 18.9161L9.62269 19.3494C9.88195 19.0605 10.0116 18.9161 10.0116 18.9161V18.9216L10.0282 18.9438C10.0282 18.9438 10.0671 18.9883 10.1005 19.0272C10.1616 19.0994 10.256 19.2049 10.3671 19.3327C10.5894 19.5938 10.8949 19.9661 11.2282 20.4049C11.7505 21.0883 12.356 21.9549 12.8282 22.8272ZM22.8005 18.0049C22.8005 18.0049 22.8005 18.0049 22.7671 18.5661L22.8005 18.0049C23.056 17.9716 23.2616 18.1605 23.2727 18.4383C23.3894 21.3994 22.8949 23.7216 22.056 25.5383C21.2171 27.3605 20.0449 28.6272 18.8671 29.5049C17.6949 30.3772 16.5116 30.8661 15.6338 31.1327C15.1949 31.2661 14.8227 31.3494 14.5616 31.3938C14.4282 31.4161 14.3282 31.4327 14.2505 31.4438C14.2116 31.4438 14.1838 31.4494 14.1671 31.4549H14.1449H14.1394C14.1394 31.4549 14.1394 31.4549 14.156 31.2661L14.1394 31.4549C13.9116 31.4772 13.7282 31.3216 13.6949 31.0827C13.256 28.2438 13.5838 25.9661 14.3671 24.1494C15.156 22.3327 16.3782 21.0438 17.6282 20.1383C18.8783 19.2327 20.1727 18.7049 21.1449 18.3994C21.6338 18.2438 22.0449 18.1494 22.3394 18.0883C22.4838 18.0605 22.6005 18.0383 22.6838 18.0216C22.7227 18.0161 22.756 18.0105 22.7782 18.0049H22.806H22.8116H22.8005ZM14.9894 30.1938C15.0338 30.1827 15.0782 30.1716 15.1282 30.1605C15.256 30.1272 15.3894 30.0883 15.5338 30.0494C16.3338 29.8049 17.3838 29.3716 18.4116 28.6049C19.4338 27.8438 20.4394 26.7494 21.1671 25.1772C21.8505 23.6994 22.306 21.7605 22.2671 19.2105C22.006 19.2661 21.6505 19.3549 21.2282 19.4883C20.3227 19.7716 19.1505 20.2605 18.0394 21.0605C16.9338 21.8605 15.9005 22.9605 15.2394 24.4938C14.7227 25.6883 14.4116 27.1827 14.4949 29.0549C14.7116 28.6383 14.9782 28.1605 15.2782 27.6494C16.2171 26.0605 17.5671 24.0938 19.156 22.7438C19.3949 22.5383 19.706 22.5661 19.8449 22.7994C19.9838 23.0327 19.906 23.3938 19.6671 23.5938C19.3727 23.8438 19.0894 24.1161 18.8116 24.4105C17.7449 25.5327 16.8116 26.9216 16.0894 28.1438C15.6394 28.9105 15.2783 29.5938 15.0338 30.0883C15.0171 30.1272 14.9949 30.1605 14.9782 30.1994L14.9894 30.1938ZM12.3949 32.6994C12.3894 32.9716 12.2116 33.2327 11.9671 33.3272C9.30047 34.3272 7.29491 34.3605 5.79491 33.7827C4.29491 33.2049 3.35047 32.0438 2.76714 30.7772C2.1838 29.5161 1.94491 28.1383 1.85047 27.0827C1.80602 26.5549 1.78936 26.1049 1.79492 25.7827C1.79492 25.6216 1.79491 25.4938 1.80047 25.4049C1.80047 25.3605 1.80047 25.3272 1.80047 25.2994V25.2716V25.2605C1.80047 25.2605 1.96899 25.2401 2.30603 25.1994L1.80047 25.2605C1.81713 24.9716 2.02824 24.7105 2.2838 24.6494C4.99491 23.9938 7.01158 24.1438 8.50603 24.7827C10.0005 25.4161 10.9338 26.5272 11.506 27.7105C12.0782 28.8938 12.2949 30.1494 12.3727 31.0994C12.4116 31.5772 12.4171 31.9827 12.4116 32.2716C12.4116 32.4161 12.406 32.5327 12.4005 32.6105C12.4005 32.6438 12.4005 32.6716 12.4005 32.6938L12.3949 32.6994ZM2.85047 26.7772C2.81158 26.3216 2.80046 25.9327 2.79491 25.6438C5.11713 25.1549 6.78936 25.3272 8.00602 25.8438C9.29491 26.3938 10.1005 27.3438 10.5949 28.3772C11.0949 29.4161 11.2949 30.5327 11.3616 31.3994C11.3838 31.6438 11.3894 31.8661 11.3949 32.0549C9.93936 30.8161 8.60602 29.8161 7.63935 29.1216C7.15047 28.7716 6.75047 28.4994 6.47269 28.3105C6.3338 28.2161 6.22825 28.1494 6.15047 28.0994C6.11158 28.0772 6.08381 28.0549 6.06714 28.0438L6.04491 28.0272H6.03936C5.81714 27.8827 5.50047 27.9938 5.3338 28.2716C5.16714 28.5494 5.21158 28.8883 5.4338 29.0327H5.43936L5.46158 29.0494C5.47824 29.0605 5.50602 29.0772 5.53935 29.0994C5.61158 29.1438 5.71713 29.2161 5.85046 29.3049C6.12269 29.4883 6.51158 29.7549 6.99492 30.0994C7.87825 30.7327 9.06158 31.6216 10.3671 32.7161C8.60047 33.1716 7.27269 33.0883 6.26713 32.6994C5.00602 32.2161 4.19492 31.2383 3.67825 30.1161C3.16158 28.9938 2.93936 27.7494 2.85047 26.7661V26.7772Z" fill="white"/>
<defs>
<clipPath id="clip0_6177_8502">
<rect width="29.8181" height="46.5907" fill="white" transform="translate(0.13269 1.70508)"/>
</clipPath>
</defs>
</svg>
