<svg width="31" height="50" viewBox="0 0 31 50" fill="none" xmlns="http://www.w3.org/2000/svg">
<g clip-path="url(#clip0_6177_8598)">
<rect x="0.878142" y="7.29623" width="28.3272" height="39.5089" rx="1.4909" fill="white"/>
<rect x="0.878142" y="7.29623" width="28.3272" height="39.5089" rx="1.4909" stroke="#D1A637" stroke-width="1.4909"/>
<rect width="26.0908" height="40.9998" rx="2.23635" transform="matrix(0.983255 -0.182236 0 1 0.13269 6.55078)" fill="#D1A637"/>
</g>
<g clip-path="url(#clip1_6177_8598)">
<path d="M19.903 25.6899C19.5196 26.2954 19.1363 26.8899 18.7696 27.4899C18.7196 27.5677 18.7141 27.6788 18.7085 27.7732C18.7085 29.6399 18.7085 31.5065 18.7085 33.3732C18.7085 33.8065 18.6418 33.901 18.2474 33.9788L16.4085 34.351C16.0474 34.4232 15.9752 34.3565 15.9752 33.9732V30.2565C15.5807 30.4788 15.2085 30.6843 14.8418 30.9121C14.7974 30.9399 14.7752 31.0732 14.7696 31.151C14.7696 32.1732 14.7696 33.1899 14.7696 34.2121C14.7696 34.6065 14.6974 34.701 14.3418 34.7732C13.703 34.901 13.0585 35.0343 12.4196 35.1621C12.1307 35.2177 12.0363 35.1399 12.0363 34.8232C12.0363 33.8843 12.0363 32.951 12.0363 32.0121C12.0363 31.8343 11.9863 31.7954 11.8307 31.8121C11.5085 31.851 11.1807 31.8621 10.8307 31.8843V35.0454C10.8307 35.3788 10.7418 35.4954 10.4474 35.5565C9.79184 35.6899 9.14184 35.8232 8.48629 35.951C8.19184 36.0121 8.09741 35.9232 8.09741 35.5954C8.09741 34.2065 8.09741 32.8232 8.09741 31.4343C8.09741 31.2788 8.05852 31.201 7.93629 31.1454C7.35296 30.8621 6.81962 30.4843 6.35296 30.0232C6.25851 29.9343 6.19185 29.9232 6.05851 30.0065C4.72518 30.8454 3.26407 30.4843 2.68629 29.1843C2.10851 27.8843 2.63073 26.1399 3.90296 25.1677C4.07518 25.0343 4.04741 24.9177 4.0363 24.7732C3.89741 22.8621 4.25851 20.9677 5.15296 19.1121C6.50296 16.3288 8.4863 14.3788 11.0974 13.3399C15.6252 11.5399 20.003 13.9565 20.9141 18.7343C21.0696 19.5343 21.1307 20.3677 21.0585 21.2288C21.0585 21.2677 21.0585 21.301 21.0585 21.3732L21.5863 21.2677C21.8307 21.2177 22.0752 21.1621 22.3196 21.1232C22.5307 21.0843 22.6252 21.1788 22.6363 21.4121C22.6363 21.4565 22.6363 21.501 22.6363 21.5454V32.5899C22.6363 33.0121 22.5641 33.1065 22.1863 33.1788C21.553 33.3065 20.9196 33.4343 20.2863 33.5621C19.9919 33.6232 19.8974 33.5343 19.8974 33.2065C19.8974 30.7788 19.8974 28.351 19.8974 25.9177V25.6843L19.903 25.6899ZM22.053 32.5621V21.8232L20.4863 22.1399V32.8788L22.053 32.5621ZM8.10295 22.8788C8.13629 21.2843 8.34184 19.7065 8.7974 18.1454C8.03073 18.0232 7.28075 17.9121 6.51963 17.7899C5.32519 19.5732 4.66963 21.5065 4.58629 23.5843L8.10852 22.8732L8.10295 22.8788ZM16.9863 21.0788L20.503 20.3677C20.4141 18.3177 19.7641 16.651 18.5696 15.3565C17.7974 15.7899 17.053 16.2065 16.2919 16.6343C16.7474 18.0177 16.9474 19.5121 16.9863 21.0788ZM8.67518 23.4121C8.70851 24.9677 8.90851 26.4288 9.36962 27.7565C10.3418 27.4565 11.2918 27.1621 12.2418 26.8677V22.6843L8.67518 23.4065V23.4121ZM12.2474 17.8899C11.2807 17.9843 10.3252 18.0732 9.35851 18.1677C8.90851 19.6899 8.70295 21.2232 8.67518 22.7621L12.2474 22.0399V17.8954V17.8899ZM12.8474 17.7677V21.9121L16.4141 21.1899C16.3807 19.6565 16.1863 18.201 15.7307 16.8788C14.753 17.1788 13.803 17.4732 12.8474 17.7677ZM16.4474 21.8454L12.8418 22.5732V26.7954C13.8085 26.6065 14.7585 26.4565 15.6807 26.5454C15.9252 25.9177 16.0141 25.3343 15.9752 24.7454C15.9641 24.5677 15.9863 24.401 16.1641 24.2732C16.1974 24.251 16.2252 24.1843 16.2252 24.1399C16.303 23.3843 16.3752 22.6232 16.453 21.8399L16.4474 21.8454ZM16.553 33.6732L18.1196 33.3565V24.5177L16.553 24.8343V33.6732ZM12.6196 27.5177V34.4677L14.1752 34.151V27.201L12.6196 27.5177ZM5.08629 25.2343C3.9474 25.4621 3.01962 26.6677 3.01962 27.9232C3.01962 29.1732 3.95852 30.0121 5.09185 29.7732C6.22519 29.5343 7.1474 28.3343 7.1474 27.0954C7.1474 25.8399 6.23074 25.0065 5.08629 25.2343ZM16.8196 24.1343L18.3085 23.8343C18.6196 23.7732 18.7085 23.851 18.7085 24.1954C18.7085 24.9065 18.7085 25.6177 18.7085 26.3288C18.7085 26.401 18.7085 26.4677 18.7196 26.5788C18.7863 26.4788 18.8363 26.4177 18.8696 26.351C19.1863 25.7121 19.5085 25.0732 19.803 24.4288C19.8752 24.2732 19.8974 24.0843 19.8974 23.9177C19.9085 23.3177 19.8974 22.7177 19.8974 22.1177C19.8974 21.6788 19.9474 21.6121 20.353 21.5121C20.3863 21.501 20.4196 21.4899 20.4641 21.4732C20.4752 21.3232 20.4863 21.1732 20.4919 21.0177L16.9974 21.7232C16.9363 22.5232 16.8752 23.3065 16.8085 24.1288L16.8196 24.1343ZM10.253 29.901L8.68074 30.2177V35.2621L10.253 34.9454V29.901ZM4.61407 24.7343C5.7974 24.3454 6.73075 24.5788 7.3363 25.5621C7.94186 26.551 7.82517 27.6843 7.16406 28.8899C7.72517 28.5954 8.26407 28.3121 8.76963 28.0454C8.60852 27.3065 8.41963 26.5843 8.30296 25.8343C8.1863 25.0843 8.14186 24.3065 8.06408 23.5343L4.57519 24.2399C4.5863 24.4065 4.5974 24.5565 4.61407 24.7288V24.7343ZM12.253 13.9565C11.3141 14.1843 9.76963 16.2621 9.61963 17.4788C10.4863 17.4677 11.3641 17.3899 12.253 17.2065V13.9565ZM12.8474 13.7843V17.0954C13.7418 16.901 14.6196 16.6454 15.5474 16.2621C15.2752 15.8065 15.0418 15.3677 14.7752 14.9732C14.4585 14.5065 14.0585 14.1343 13.5418 13.9399C13.3307 13.8621 13.0974 13.8343 12.853 13.7843H12.8474ZM9.58629 28.3288C9.66963 28.5121 9.73073 28.6565 9.80295 28.7899C9.87517 28.9343 9.95297 29.0788 10.0419 29.2121C10.0696 29.2565 10.153 29.2677 10.2085 29.2621C10.8307 29.1677 10.8474 29.1621 10.8252 29.8565C10.8141 30.151 10.9085 30.3177 11.1085 30.4343C11.3863 30.601 11.6696 30.751 12.0141 30.7732V27.5621C11.1974 27.8177 10.4085 28.0621 9.58629 28.3232V28.3288ZM18.1141 14.9454C17.3419 14.0732 14.9252 13.1732 14.0918 13.4288C14.303 13.5954 14.5307 13.751 14.7307 13.9399C15.2863 14.4565 15.6807 15.1288 15.9918 15.8677C16.053 16.0065 16.1141 16.0454 16.2641 15.9677C16.5863 15.7954 16.9196 15.6454 17.2418 15.4677C17.5307 15.3121 17.8141 15.1288 18.1085 14.951L18.1141 14.9454ZM6.96407 17.1788C7.08629 17.2065 7.18074 17.2399 7.27518 17.251C7.78629 17.3232 8.30295 17.3788 8.81406 17.4565C8.98073 17.4843 9.04185 17.4065 9.0974 17.2399C9.41407 16.3621 9.81407 15.5288 10.3807 14.7788C10.5752 14.5177 10.7974 14.2788 11.0418 13.9899C9.45296 14.6621 8.12518 15.7121 6.95851 17.1732L6.96407 17.1788ZM9.00851 28.5788C8.51407 28.8399 8.03629 29.0899 7.55296 29.3454C7.36407 29.4454 7.1863 29.5677 6.95297 29.7121C7.3363 29.9788 7.69186 30.2232 8.08074 30.4954C8.08074 30.3788 8.09185 30.3288 8.09185 30.2788C8.0974 29.7343 8.13629 29.6843 8.62518 29.5843L9.40297 29.4288C9.26408 29.1343 9.14185 28.8788 9.00851 28.5843V28.5788ZM14.7863 30.2899C15.1585 30.051 15.5141 29.8343 15.8641 29.5954C15.9196 29.5621 15.9641 29.4399 15.9696 29.3732C15.9807 28.8621 15.9696 28.3565 15.9696 27.8454V27.551C15.903 27.6177 15.8752 27.6843 15.8474 27.7454C15.553 28.3177 15.2863 28.901 14.9585 29.4454C14.7863 29.7288 14.7363 29.9621 14.7863 30.2899ZM14.7752 28.6454C14.7752 28.6454 14.8141 28.6621 14.8307 28.6677C15.053 28.1732 15.2752 27.6843 15.5085 27.1621C15.2419 27.1732 15.0141 27.1843 14.7752 27.1899V28.6454Z" fill="white"/>
<path d="M5.09173 30.8287C6.54729 30.5398 7.7195 31.6009 7.7195 33.2064C7.7195 34.8009 6.53062 36.3453 5.07507 36.6342C3.62507 36.9231 2.44173 35.8564 2.44729 34.2509C2.44729 32.6509 3.63618 31.1175 5.09173 30.8231V30.8287ZM7.14728 33.3342C7.15284 32.0787 6.23618 31.2398 5.0973 31.462C3.95841 31.6842 3.02506 32.8842 3.01951 34.1342C3.01395 35.3898 3.93617 36.2287 5.06951 36.012C6.2084 35.7898 7.14172 34.5842 7.14728 33.3342Z" fill="white"/>
<path d="M4.79738 34.9289L4.62516 34.9623C4.50294 34.9845 4.40848 34.9623 4.33626 34.9012C4.26404 34.8345 4.22516 34.74 4.22516 34.6067V33.0845C4.22516 32.9567 4.25848 32.84 4.33626 32.7512C4.40848 32.6567 4.50294 32.5956 4.62516 32.5734L4.79738 32.54V32.3345C4.79738 32.2623 4.81959 32.2012 4.85848 32.1456C4.89737 32.0956 4.95293 32.0623 5.0196 32.0456C5.09182 32.0289 5.14737 32.0456 5.18626 32.0789C5.22515 32.1178 5.24738 32.1678 5.24738 32.24V32.4456H5.25848C5.4696 32.4012 5.63627 32.4178 5.75294 32.4956C5.8696 32.5734 5.93072 32.7067 5.93072 32.89C5.93072 32.9567 5.9196 33.0289 5.90293 33.0956C5.88626 33.1623 5.85849 33.2289 5.82516 33.2845C5.79183 33.3456 5.74738 33.3956 5.69738 33.44C5.64738 33.4845 5.59182 33.5178 5.52516 33.5456C5.59738 33.5345 5.6696 33.54 5.73071 33.5567C5.79182 33.5734 5.84738 33.6067 5.89183 33.6512C5.93627 33.6956 5.9696 33.7512 5.99182 33.8178C6.01404 33.8845 6.03071 33.9567 6.03071 34.04C6.03071 34.14 6.01404 34.2345 5.97516 34.3178C5.94182 34.4012 5.88627 34.4789 5.82516 34.5456C5.75849 34.6123 5.6807 34.6678 5.58626 34.7178C5.49182 34.7623 5.39182 34.8012 5.27515 34.8234H5.25294V35.0512C5.25294 35.1234 5.23071 35.1845 5.19182 35.24C5.15293 35.29 5.09737 35.3234 5.0307 35.34C4.95848 35.3567 4.90293 35.34 4.86404 35.3067C4.82516 35.2678 4.80292 35.2178 4.80292 35.1456V34.9178L4.79738 34.9289ZM4.73626 33.5456L5.08626 33.4734C5.19182 33.4512 5.27515 33.4123 5.33071 33.3567C5.38626 33.3012 5.41404 33.2234 5.41404 33.1289C5.41404 33.0345 5.38626 32.9734 5.33071 32.94C5.27515 32.9067 5.19182 32.9012 5.08626 32.9234L4.73072 32.9956V33.5512L4.73626 33.5456ZM4.73626 34.5012L5.1196 34.4234C5.24737 34.3956 5.34182 34.3567 5.40293 34.3012C5.46404 34.2456 5.49737 34.1623 5.49737 34.0623C5.49737 33.9623 5.46404 33.8956 5.40293 33.8623C5.34182 33.8289 5.24737 33.8289 5.1196 33.8567L4.73626 33.9345V34.5067V34.5012Z" fill="white"/>
<path d="M4.79738 28.7512L4.62516 28.7845C4.50294 28.8068 4.40848 28.7845 4.33626 28.7234C4.26404 28.6568 4.22516 28.5623 4.22516 28.429V26.9068C4.22516 26.779 4.25848 26.6623 4.33626 26.5734C4.40848 26.479 4.50294 26.4179 4.62516 26.3956L4.79738 26.3623V26.1568C4.79738 26.0845 4.81959 26.0234 4.85848 25.9679C4.89737 25.9179 4.95293 25.8845 5.0196 25.8679C5.09182 25.8512 5.14737 25.8679 5.18626 25.9012C5.22515 25.9401 5.24738 25.9901 5.24738 26.0623V26.2679H5.25848C5.4696 26.2234 5.63627 26.2401 5.75294 26.3179C5.8696 26.3956 5.93072 26.529 5.93072 26.7123C5.93072 26.779 5.9196 26.8512 5.90293 26.9179C5.88626 26.9845 5.85849 27.0512 5.82516 27.1068C5.79183 27.1679 5.74738 27.2179 5.69738 27.2623C5.64738 27.3068 5.59182 27.3401 5.52516 27.3679C5.59738 27.3568 5.6696 27.3623 5.73071 27.379C5.79182 27.3956 5.84738 27.429 5.89183 27.4734C5.93627 27.5179 5.9696 27.5734 5.99182 27.6401C6.01404 27.7068 6.03071 27.779 6.03071 27.8623C6.03071 27.9623 6.01404 28.0568 5.97516 28.1401C5.94182 28.2234 5.88627 28.3012 5.82516 28.3679C5.75849 28.4345 5.6807 28.4901 5.58626 28.5401C5.49182 28.5845 5.39182 28.6234 5.27515 28.6456H5.25294V28.8734C5.25294 28.9456 5.23071 29.0068 5.19182 29.0623C5.15293 29.1123 5.09737 29.1456 5.0307 29.1623C4.95848 29.179 4.90293 29.1623 4.86404 29.129C4.82516 29.0901 4.80292 29.0401 4.80292 28.9679V28.7401L4.79738 28.7512ZM4.73626 27.3679L5.08626 27.2956C5.19182 27.2734 5.27515 27.2345 5.33071 27.179C5.38626 27.1234 5.41404 27.0456 5.41404 26.9512C5.41404 26.8568 5.38626 26.7956 5.33071 26.7623C5.27515 26.729 5.19182 26.7234 5.08626 26.7456L4.73072 26.8179V27.3734L4.73626 27.3679ZM4.73626 28.3234L5.1196 28.2456C5.24737 28.2179 5.34182 28.179 5.40293 28.1234C5.46404 28.0679 5.49737 27.9845 5.49737 27.8845C5.49737 27.7845 5.46404 27.7179 5.40293 27.6845C5.34182 27.6512 5.24737 27.6512 5.1196 27.679L4.73626 27.7568V28.329V28.3234Z" fill="white"/>
</g>
<defs>
<clipPath id="clip0_6177_8598">
<rect width="29.8181" height="46.5907" fill="white" transform="translate(0.13269 1.70508)"/>
</clipPath>
<clipPath id="clip1_6177_8598">
<rect width="25" height="25" fill="white" transform="translate(0.041748 12.2129)"/>
</clipPath>
</defs>
</svg>
