<svg width="31" height="51" viewBox="0 0 31 51" fill="none" xmlns="http://www.w3.org/2000/svg">
<g clip-path="url(#clip0_5807_7611)">
<rect x="0.878142" y="7.50912" width="28.3272" height="39.5089" rx="1.4909" fill="white"/>
<rect x="0.878142" y="7.50912" width="28.3272" height="39.5089" rx="1.4909" stroke="#FF2828" stroke-width="1.4909"/>
<rect width="26.0908" height="40.9998" rx="2.23635" transform="matrix(0.983255 -0.182236 0 1 0.13269 6.76367)" fill="#FF2828"/>
</g>
<g clip-path="url(#clip1_5807_7611)">
<path d="M16.8887 13.1546L17.6813 12.995C17.8781 12.995 18.0802 12.9844 18.277 12.9844C20.4685 13.0322 22.0749 14.8195 22.1494 17.2397C22.2185 19.4578 21.0323 21.7397 19.144 22.9631C18.9951 23.0588 18.9579 23.1546 18.9579 23.3195C18.9579 25.4578 18.9579 27.5961 18.9579 29.7397C18.9579 30.4737 18.7345 31.1227 18.16 31.6546C18.1121 31.6971 18.0749 31.8035 18.0749 31.878C18.0643 32.2663 18.0749 32.6546 18.0696 33.0429C18.0483 33.7237 17.6228 34.2663 17.0057 34.4046C16.6919 34.4737 16.3781 34.5322 16.0643 34.5961C15.8781 34.6333 15.6866 34.6812 15.5004 34.6971C14.9419 34.745 14.5749 34.3301 14.5643 33.6599C14.5643 33.3461 14.5643 33.0269 14.5643 32.7025L7.37808 34.1546C7.37808 34.4737 7.37808 34.7822 7.37808 35.0961C7.37276 35.8514 6.93127 36.4312 6.23978 36.5801C5.81425 36.6705 5.3834 36.7557 4.95787 36.8408C4.26638 36.9737 3.83021 36.5801 3.82489 35.8195C3.82489 35.4737 3.83021 35.1227 3.81957 34.7822C3.81957 34.6971 3.7717 34.5908 3.70787 34.5535C3.19191 34.2397 2.93127 33.745 2.93127 33.0535C2.93127 28.8567 2.93127 24.6599 2.93127 20.4631C2.93127 20.0163 3.03234 19.5801 3.28234 19.1705C3.66532 18.5429 4.18127 18.2131 4.7983 18.0961C7.5217 17.5642 10.2451 17.0376 12.9738 16.511C13.1068 16.4844 13.1866 16.4365 13.2664 16.2929C13.9738 14.9844 14.9526 14.0322 16.1919 13.4525C16.4206 13.3461 16.6547 13.2557 16.8887 13.1599V13.1546ZM3.78234 28.0588C3.78234 28.0588 3.7717 28.1333 3.7717 28.1759C3.7717 29.745 3.7717 31.3195 3.7717 32.8886C3.7717 33.0003 3.78234 33.112 3.80893 33.2078C3.93127 33.6599 4.27702 33.8461 4.80361 33.7397C8.89936 32.9099 12.9951 32.0854 17.0908 31.2557C17.7611 31.1227 18.1121 30.6652 18.1121 29.9205C18.1121 28.4152 18.1121 26.9152 18.1121 25.4152C18.1121 25.3408 18.1068 25.2716 18.1015 25.1652L3.78234 28.0588ZM10.4951 20.2876L3.78234 21.6439V27.1067L10.4951 25.7503V20.2876ZM17.2823 22.8248C19.5164 22.3674 21.277 20.0535 21.3196 17.6386C21.3621 15.2344 19.5855 13.5748 17.3568 13.9737C15.1706 14.3674 13.3462 16.6865 13.2983 19.128C13.2504 21.5908 15.0164 23.2291 17.2823 22.8248ZM11.3462 20.1439V25.6014L18.1068 24.2344V23.511C16.7185 24.0057 15.4632 23.9365 14.3621 23.2291C13.2611 22.5216 12.6494 21.3939 12.4791 19.9152L11.3462 20.1439ZM3.76638 20.7078L12.4366 18.9525C12.527 18.4791 12.6228 17.9844 12.7238 17.4791C12.6972 17.4791 12.6706 17.4791 12.6387 17.4791C9.98447 17.995 7.33021 18.511 4.67064 19.0376C4.22915 19.1227 3.87276 19.5163 3.79298 19.9737C3.75574 20.2025 3.7717 20.4312 3.76106 20.7025L3.76638 20.7078ZM4.64936 34.7078C4.64936 35.0588 4.64936 35.3833 4.64936 35.7078C4.64936 35.8833 4.73979 35.9631 4.89404 35.9312C5.35149 35.8461 5.81425 35.7503 6.2717 35.6546C6.40468 35.628 6.51638 35.5269 6.5217 35.3727C6.53234 35.0269 6.5217 34.6812 6.5217 34.3301L4.64404 34.7078H4.64936ZM15.3994 32.5322C15.3994 32.8939 15.3994 33.2344 15.3994 33.5695C15.3994 33.7237 15.4951 33.7929 15.6334 33.7663C16.0908 33.6759 16.5483 33.5908 17.0057 33.4791C17.0802 33.4631 17.2132 33.3248 17.2185 33.2557C17.2398 32.8886 17.2291 32.5269 17.2291 32.1652L15.3994 32.5322Z" fill="white"/>
<path d="M5.89412 32.0429C5.54837 32.112 5.20263 32.1865 4.85688 32.2503C4.51646 32.3141 4.35688 32.1758 4.35156 31.8088C4.35156 31.2982 4.35156 30.7875 4.35156 30.2716C4.35156 29.9152 4.51646 29.6971 4.84092 29.6333C5.54305 29.4844 6.2505 29.3461 6.95263 29.2078C7.27709 29.1439 7.44199 29.2929 7.44199 29.6439C7.44199 30.1599 7.44199 30.6812 7.44199 31.2024C7.44199 31.5482 7.28241 31.7556 6.96326 31.8248C6.60688 31.8992 6.24518 31.9684 5.8888 32.0429H5.89412ZM5.20263 30.4897V31.245L6.60156 30.9631V30.2078L5.20263 30.4897Z" fill="white"/>
<path d="M15.9739 30.0058C15.6281 30.0749 15.2824 30.1494 14.9366 30.2132C14.5962 30.277 14.4366 30.1387 14.4366 29.7717C14.4366 29.2611 14.4366 28.7504 14.4366 28.2345C14.4366 27.8781 14.6015 27.6653 14.926 27.5962C15.6281 27.4472 16.3356 27.3089 17.0377 27.1706C17.3622 27.1068 17.5271 27.2558 17.5324 27.6068C17.5324 28.1228 17.5324 28.6441 17.5324 29.1653C17.5324 29.5111 17.3675 29.7185 17.0537 29.7877C16.6973 29.8621 16.3356 29.9313 15.9792 30.0058H15.9739ZM16.7239 28.9313V28.1706L15.2824 28.4632V29.2238L16.7239 28.9313Z" fill="white"/>
<path d="M10.9526 28.591L12.9739 28.1814C13.1494 28.1441 13.3143 28.1335 13.4207 28.2931C13.5802 28.5271 13.4632 28.8995 13.1813 29.0324C13.1068 29.0644 13.0324 29.091 12.9579 29.1069C11.6175 29.3782 10.277 29.6495 8.93662 29.9207C8.63343 29.9846 8.46854 29.8941 8.42067 29.6548C8.36747 29.3995 8.51641 29.1282 8.76109 29.0484C8.96854 28.9846 9.17599 28.9527 9.38343 28.9101C9.90471 28.8037 10.426 28.6973 10.9526 28.591Z" fill="white"/>
<path d="M10.9419 31.1176C10.2663 31.2559 9.59611 31.3942 8.92058 31.5272C8.61739 31.5857 8.45781 31.4953 8.42058 31.2453C8.38335 31.0219 8.50569 30.7772 8.71313 30.6814C8.80356 30.6389 8.8993 30.6123 8.99505 30.591C10.3036 30.3251 11.6121 30.0591 12.9206 29.7985C13.0163 29.7772 13.1121 29.7665 13.2025 29.7719C13.3887 29.7825 13.5057 29.9474 13.5004 30.1602C13.495 30.3729 13.3621 30.5751 13.1759 30.6495C13.0961 30.6814 13.011 30.7027 12.9312 30.7187C12.2716 30.8517 11.6121 30.9846 10.9472 31.1176H10.9419Z" fill="white"/>
<path d="M17.9791 17.5272C18.394 17.5857 18.7451 17.74 19.0376 18.0059C19.5217 18.4474 19.7344 19.0698 19.7451 19.8145C19.7451 19.9847 19.7451 20.1602 19.7451 20.3357C19.7398 20.74 19.5802 20.9528 19.2132 21.0272C18.3834 21.1974 17.5536 21.3623 16.7238 21.5325C16.2876 21.623 15.8568 21.7081 15.4206 21.7932C15.0536 21.8676 14.894 21.7187 14.8887 21.3145C14.8887 20.7613 14.8781 20.2081 15.0855 19.6442C15.3674 18.8783 15.8355 18.2932 16.4951 17.8889C16.543 17.8623 16.5908 17.8304 16.66 17.7879C16.1547 17.5538 15.8727 17.1336 15.8781 16.4953C15.8781 16.0485 16.043 15.6283 16.3461 15.2613C16.9419 14.5379 17.8834 14.4208 18.4047 14.974C18.8621 15.4581 18.9898 16.6123 17.9738 17.5272H17.9791ZM15.7344 20.8038L18.8834 20.1655C19.0004 19.5538 18.7291 18.8836 18.2238 18.6176C17.66 18.3198 17.0642 18.4208 16.4844 18.9315C15.9153 19.4315 15.7132 20.0751 15.7398 20.8038H15.7344ZM17.9153 16.1176C17.9153 15.7506 17.6547 15.5059 17.3249 15.5645C16.9951 15.623 16.7079 15.9953 16.7132 16.3623C16.7132 16.724 16.9844 16.9581 17.3196 16.8942C17.6547 16.8304 17.9153 16.4847 17.9153 16.1176Z" fill="white"/>
</g>
<defs>
<clipPath id="clip0_5807_7611">
<rect width="29.8181" height="46.5907" fill="white" transform="translate(0.13269 1.91797)"/>
</clipPath>
<clipPath id="clip1_5807_7611">
<rect width="25" height="25" fill="white" transform="translate(0.041748 12.4258)"/>
</clipPath>
</defs>
</svg>
