<svg width="41" height="36" viewBox="0 0 41 36" fill="none" xmlns="http://www.w3.org/2000/svg">
<path d="M19.5761 28.7071C19.9666 29.0976 20.5998 29.0976 20.9903 28.7071L27.3543 22.3431C27.7448 21.9526 27.7448 21.3195 27.3543 20.9289C26.9637 20.5384 26.3306 20.5384 25.9401 20.9289L20.2832 26.5858L14.6263 20.9289C14.2358 20.5384 13.6027 20.5384 13.2121 20.9289C12.8216 21.3195 12.8216 21.9526 13.2121 22.3431L19.5761 28.7071ZM21.2832 8C21.2832 7.44772 20.8355 7 20.2832 7C19.7309 7 19.2832 7.44772 19.2832 8H21.2832ZM21.2832 28V8H19.2832V28H21.2832Z" fill="black"/>
</svg>
