<svg width="33" height="32" viewBox="0 0 33 32" fill="none" xmlns="http://www.w3.org/2000/svg">
<circle cx="16.2832" cy="16" r="15.5" fill="white" stroke="black"/>
<path d="M20.5547 19.4591V14.5316H21.9438V15.3669H22.0001C22.0877 15.1104 22.241 14.8882 22.46 14.7005C22.679 14.5128 22.9825 14.4189 23.3704 14.4189C23.8772 14.4189 24.2589 14.5879 24.5155 14.9258C24.7783 15.2637 24.9097 15.7455 24.9097 16.3712V19.4591H23.5206V16.4838C23.5206 16.1647 23.4705 15.93 23.3704 15.7799C23.2703 15.6234 23.092 15.5452 22.8354 15.5452C22.7228 15.5452 22.6133 15.5609 22.5069 15.5922C22.4005 15.6172 22.3036 15.661 22.216 15.7236C22.1346 15.7861 22.0689 15.8643 22.0189 15.9582C21.9688 16.0458 21.9438 16.149 21.9438 16.2679V19.4591H20.5547Z" fill="#ABABAB"/>
<path d="M17.2562 19.5717C16.8932 19.5717 16.5679 19.5123 16.28 19.3934C15.9985 19.2745 15.7576 19.1024 15.5573 18.8772C15.3634 18.6519 15.2132 18.3797 15.1068 18.0606C15.0005 17.7415 14.9473 17.3848 14.9473 16.9906C14.9473 16.5964 15.0005 16.2398 15.1068 15.9207C15.2132 15.6015 15.3634 15.3325 15.5573 15.1135C15.7576 14.8882 15.9985 14.7162 16.28 14.5973C16.5679 14.4784 16.8932 14.4189 17.2562 14.4189C17.6191 14.4189 17.9413 14.4784 18.2229 14.5973C18.5107 14.7162 18.7516 14.8882 18.9456 15.1135C19.1458 15.3325 19.2991 15.6015 19.4055 15.9207C19.5119 16.2398 19.565 16.5964 19.565 16.9906C19.565 17.3848 19.5119 17.7415 19.4055 18.0606C19.2991 18.3797 19.1458 18.6519 18.9456 18.8772C18.7516 19.1024 18.5107 19.2745 18.2229 19.3934C17.9413 19.5123 17.6191 19.5717 17.2562 19.5717ZM17.2562 18.4736C17.5315 18.4736 17.7442 18.3891 17.8944 18.2202C18.0446 18.0512 18.1196 17.8103 18.1196 17.4975V16.4932C18.1196 16.1803 18.0446 15.9394 17.8944 15.7705C17.7442 15.6015 17.5315 15.5171 17.2562 15.5171C16.9808 15.5171 16.7681 15.6015 16.6179 15.7705C16.4678 15.9394 16.3927 16.1803 16.3927 16.4932V17.4975C16.3927 17.8103 16.4678 18.0512 16.6179 18.2202C16.7681 18.3891 16.9808 18.4736 17.2562 18.4736Z" fill="#ABABAB"/>
<path d="M12.444 19.5717C12.0749 19.5717 11.7464 19.5123 11.4585 19.3934C11.1707 19.2682 10.9298 19.0962 10.7358 18.8772C10.5419 18.6519 10.3948 18.3797 10.2947 18.0606C10.1946 17.7415 10.1445 17.3848 10.1445 16.9906C10.1445 16.5964 10.1946 16.2429 10.2947 15.93C10.3948 15.6109 10.5419 15.3387 10.7358 15.1135C10.9298 14.8882 11.1707 14.7162 11.4585 14.5973C11.7464 14.4784 12.0749 14.4189 12.444 14.4189C12.9446 14.4189 13.3607 14.5316 13.6923 14.7568C14.0302 14.9821 14.2711 15.2981 14.415 15.7048L13.2888 16.1928C13.245 16.0051 13.1542 15.8456 13.0166 15.7142C12.8789 15.5828 12.6881 15.5171 12.444 15.5171C12.1625 15.5171 11.9497 15.6109 11.8058 15.7986C11.6619 15.9801 11.5899 16.2273 11.5899 16.5401V17.4599C11.5899 17.7728 11.6619 18.0199 11.8058 18.2014C11.9497 18.3829 12.1625 18.4736 12.444 18.4736C12.6943 18.4736 12.8914 18.4079 13.0353 18.2765C13.1855 18.1388 13.295 17.9605 13.3638 17.7415L14.4432 18.2108C14.2805 18.6801 14.0271 19.0242 13.683 19.2432C13.3451 19.4622 12.9321 19.5717 12.444 19.5717Z" fill="#ABABAB"/>
<path d="M8.46342 14.0055C8.18185 14.0055 7.97536 13.9429 7.84396 13.8178C7.71882 13.6864 7.65625 13.5206 7.65625 13.3204V13.1139C7.65625 12.9136 7.71882 12.751 7.84396 12.6258C7.97536 12.4944 8.18185 12.4287 8.46342 12.4287C8.745 12.4287 8.94835 12.4944 9.0735 12.6258C9.2049 12.751 9.2706 12.9136 9.2706 13.1139V13.3204C9.2706 13.5206 9.2049 13.6864 9.0735 13.8178C8.94835 13.9429 8.745 14.0055 8.46342 14.0055ZM7.76888 14.5311H9.15797V19.4586H7.76888V14.5311Z" fill="#ABABAB"/>
</svg>
