<svg width="31" height="30" viewBox="0 0 31 30" fill="none" xmlns="http://www.w3.org/2000/svg">
<circle opacity="0.5" cx="15.5" cy="15" r="15" fill="#C0C0C0"/>
<path d="M18.4869 17.705C18.2916 17.5098 17.975 17.5098 17.7797 17.705C17.5845 17.9003 17.5845 18.2169 17.7797 18.4121L18.4869 17.705ZM22.7479 23.1732C23.024 23.1732 23.2479 22.9493 23.2479 22.6732L23.2479 18.1732C23.2479 17.897 23.024 17.6732 22.7479 17.6732C22.4717 17.6732 22.2479 17.897 22.2479 18.1732V22.1732H18.2479C17.9717 22.1732 17.7479 22.397 17.7479 22.6732C17.7479 22.9493 17.9717 23.1732 18.2479 23.1732L22.7479 23.1732ZM17.7797 18.4121L22.3943 23.0267L23.1014 22.3196L18.4869 17.705L17.7797 18.4121Z" fill="#6E6E6E"/>
<path d="M12.5122 12.2935C12.7074 12.4888 13.024 12.4888 13.2193 12.2935C13.4145 12.0982 13.4145 11.7817 13.2193 11.5864L12.5122 12.2935ZM8.25115 6.82537C7.97501 6.82537 7.75115 7.04923 7.75115 7.32537L7.75115 11.8254C7.75115 12.1015 7.97501 12.3254 8.25115 12.3254C8.52729 12.3254 8.75115 12.1015 8.75115 11.8254L8.75115 7.82537L12.7511 7.82537C13.0273 7.82537 13.2511 7.60151 13.2511 7.32537C13.2511 7.04923 13.0273 6.82537 12.7511 6.82537L8.25115 6.82537ZM13.2193 11.5864L8.6047 6.97181L7.8976 7.67892L12.5122 12.2935L13.2193 11.5864Z" fill="#6E6E6E"/>
<path d="M12.5122 17.7067C12.7074 17.5115 13.024 17.5115 13.2193 17.7067C13.4145 17.902 13.4145 18.2186 13.2193 18.4139L12.5122 17.7067ZM8.25115 23.1749C7.97501 23.1749 7.75115 22.951 7.75115 22.6749L7.75115 18.1749C7.75115 17.8987 7.97501 17.6749 8.25115 17.6749C8.52729 17.6749 8.75115 17.8987 8.75115 18.1749L8.75115 22.1749L12.7511 22.1749C13.0273 22.1749 13.2511 22.3987 13.2511 22.6749C13.2511 22.951 13.0273 23.1749 12.7511 23.1749L8.25115 23.1749ZM13.2193 18.4139L8.6047 23.0284L7.8976 22.3213L12.5122 17.7067L13.2193 18.4139Z" fill="#6E6E6E"/>
<path d="M18.4883 12.2925C18.2931 12.4878 17.9765 12.4878 17.7812 12.2925C17.586 12.0973 17.586 11.7807 17.7812 11.5854L18.4883 12.2925ZM22.7493 6.82439C23.0255 6.82439 23.2493 7.04825 23.2493 7.32439L23.2493 11.8244C23.2493 12.1005 23.0255 12.3244 22.7493 12.3244C22.4732 12.3244 22.2493 12.1005 22.2493 11.8244L22.2493 7.82439L18.2493 7.82439C17.9732 7.82439 17.7493 7.60053 17.7493 7.32439C17.7493 7.04825 17.9732 6.82439 18.2493 6.82439L22.7493 6.82439ZM17.7812 11.5854L22.3958 6.97084L23.1029 7.67794L18.4883 12.2925L17.7812 11.5854Z" fill="#6E6E6E"/>
</svg>
